<?xml version="1.0" encoding="UTF-8"?>
<svg width="829px" height="317px" viewBox="0 0 829 317" version="1.1" xmlns="http://www.w3.org/2000/svg" xmlns:xlink="http://www.w3.org/1999/xlink">
    <!-- Generator: Sketch 55.2 (78181) - https://sketchapp.com -->
    <title>FirefoxSharpSans</title>
    <desc>Created with Sketch.</desc>
    <g id="Assets" stroke="none" stroke-width="1" fill="none" fill-rule="evenodd">
        <path d="M8.6,119 L8.6,9.5 L79.1,9.5 L79.1,29.6 L29.9,29.6 L29.9,54.95 L79.1,54.95 L79.1,74.75 L29.9,74.75 L29.9,119 L8.6,119 Z M95.3,119 L95.3,38 L116.45,38 L116.45,119 L95.3,119 Z M92.6,15.2 C92.6,7.4 98.15,1.7 105.8,1.7 C113.75,1.7 119.15,7.4 119.15,15.2 C119.15,22.85 113.75,28.4 105.8,28.4 C98,28.4 92.6,22.85 92.6,15.2 Z M132.65,119 L132.65,38 L153.05,38 L153.05,50.45 C156.95,40.85 165.05,36.5 175.4,36.5 C180.8,36.5 185.6,37.85 189.05,39.65 L181.55,60.05 C179.3,58.4 175.4,57.2 170.75,57.2 C160.1,57.2 153.2,62.6 153.2,76.25 L153.2,119 L132.65,119 Z M230.05,120.65 C203.95,120.65 187.15,102.2 187.15,78.65 C187.15,55.1 205.45,36.35 229.6,36.35 C253.9,36.35 271.45,53.9 271.45,77.9 L271.45,85.7 L207.1,85.7 C209.8,96.2 218.35,102.8 230.35,102.8 C239.95,102.8 246.4,98.6 250.45,92 L267.4,101.9 C259.3,113.3 247.9,120.65 230.05,120.65 Z M229.6,53.9 C219.1,53.9 211,60.05 207.7,69.5 L250.9,69.5 C248.2,59.45 240.4,53.9 229.6,53.9 Z M277.9,56.6 L277.9,38 L291.25,38 L291.25,35.15 C291.25,8.9 299.5,0.8 325.9,0.8 L331.3,0.8 L331.3,19.7 L327.85,19.7 C313.45,19.7 311.8,21.8 311.8,34.1 L311.8,38 L331.3,38 L331.3,56.6 L311.8,56.6 L311.8,119 L291.25,119 L291.25,56.6 L277.9,56.6 Z M379.4,120.65 C355.1,120.65 336.65,101.75 336.65,78.5 C336.65,55.1 355.1,36.35 379.4,36.35 C403.55,36.35 422.3,55.1 422.3,78.5 C422.3,101.75 403.85,120.65 379.4,120.65 Z M379.55,101 C391.85,101 401.75,90.95 401.75,78.35 C401.75,65.75 391.85,55.7 379.55,55.7 C367.1,55.7 357.35,65.75 357.35,78.35 C357.35,90.95 367.1,101 379.55,101 Z M419.8,119 L450.1,77.45 L421.45,38 L446.05,38 L463,62 L480.1,38 L504.4,38 L475.6,77.6 L506.5,119 L481.45,119 L462.85,93.65 L444.7,119 L419.8,119 Z M48.5,285.5 C24.95,285.5 10.55,276.2 0.2,263 L18.65,248.3 C25.85,259.7 35.6,265.55 48.65,265.55 C60.5,265.55 66.65,259.85 66.65,251.9 C66.65,241.7 56.15,239.6 41,236.15 C24.65,232.7 6.35,227.45 6.35,205.25 C6.35,187.25 22.4,172.85 45.2,172.85 C64.55,172.85 76.7,179.6 87.8,191.9 L70.55,205.4 C64.85,197 57.5,191.75 44.9,191.75 C33.05,191.75 27.95,197.6 27.95,204.8 C27.95,213.65 38.9,215.3 52.55,218.45 C69.35,222.05 88.7,227.45 88.7,251.15 C88.7,269.9 72.95,285.5 48.5,285.5 Z M102.65,284 L102.65,165.8 L123.2,165.8 L123.2,212.9 C128.6,205.7 136.85,201.35 146.75,201.35 C165.95,201.35 178.25,213.95 178.25,235.1 L178.25,284 L156.95,284 L156.95,238.25 C156.95,226.7 151.4,219.5 140.45,219.5 C130.7,219.5 123.2,226.7 123.2,239.3 L123.2,284 L102.65,284 Z M219.5,285.65 C201.8,285.65 191.3,275.75 191.3,261.5 C191.3,244.7 205.25,234.35 227.75,234.35 L249.05,234.35 L249.05,233.3 C249.05,224.6 243.2,218.6 231.5,218.6 C222.35,218.6 216.2,222.5 212.45,229.25 L193.4,219.8 C201.65,209 213.5,201.35 231.65,201.35 C255.5,201.35 269.15,213.8 269.15,234.2 L269.15,284 L249.2,284 L249.2,271.55 C243.35,279.95 232.25,285.65 219.5,285.65 Z M225.5,268.55 C235.4,268.55 245.15,262.55 249.2,253.85 L249.2,249.5 L230.15,249.5 C217.85,249.5 212.9,253.4 212.9,259.7 C212.9,265.55 216.95,268.55 225.5,268.55 Z M285.05,284 L285.05,203 L305.45,203 L305.45,215.45 C309.35,205.85 317.45,201.5 327.8,201.5 C333.2,201.5 338,202.85 341.45,204.65 L333.95,225.05 C331.7,223.4 327.8,222.2 323.15,222.2 C312.5,222.2 305.6,227.6 305.6,241.25 L305.6,284 L285.05,284 Z M395.15,285.65 C384.2,285.65 375.05,281.6 369.65,274.1 L369.65,316.4 L349.1,316.4 L349.1,203 L369.5,203 L369.5,214.25 C374.9,206.3 384.05,201.35 395,201.35 C415.4,201.35 434,217.7 434,243.5 C434,269.3 415.1,285.65 395.15,285.65 Z M390.95,266.15 C403.4,266.15 413.3,256.1 413.3,243.35 C413.3,230.6 403.4,220.55 390.95,220.55 C378.2,220.55 368.45,230.75 368.45,243.35 C368.45,255.95 378.2,266.15 390.95,266.15 Z M527,285.5 C503.45,285.5 489.05,276.2 478.7,263 L497.15,248.3 C504.35,259.7 514.1,265.55 527.15,265.55 C539,265.55 545.15,259.85 545.15,251.9 C545.15,241.7 534.65,239.6 519.5,236.15 C503.15,232.7 484.85,227.45 484.85,205.25 C484.85,187.25 500.9,172.85 523.7,172.85 C543.05,172.85 555.2,179.6 566.3,191.9 L549.05,205.4 C543.35,197 536,191.75 523.4,191.75 C511.55,191.75 506.45,197.6 506.45,204.8 C506.45,213.65 517.4,215.3 531.05,218.45 C547.85,222.05 567.2,227.45 567.2,251.15 C567.2,269.9 551.45,285.5 527,285.5 Z M604.5,285.65 C586.8,285.65 576.3,275.75 576.3,261.5 C576.3,244.7 590.25,234.35 612.75,234.35 L634.05,234.35 L634.05,233.3 C634.05,224.6 628.2,218.6 616.5,218.6 C607.35,218.6 601.2,222.5 597.45,229.25 L578.4,219.8 C586.65,209 598.5,201.35 616.65,201.35 C640.5,201.35 654.15,213.8 654.15,234.2 L654.15,284 L634.2,284 L634.2,271.55 C628.35,279.95 617.25,285.65 604.5,285.65 Z M612.5,268.55 C622.4,268.55 632.15,262.55 636.2,253.85 L636.2,249.5 L617.15,249.5 C604.85,249.5 599.9,253.4 599.9,259.7 C599.9,265.55 603.95,268.55 612.5,268.55 Z M670.05,284 L670.05,203 L690.75,203 L690.75,213.2 C696,205.85 704.4,201.35 714.45,201.35 C733.65,201.35 745.8,213.95 745.8,235.1 L745.8,284 L724.65,284 L724.65,238.25 C724.65,226.7 719.1,219.5 708.15,219.5 C698.4,219.5 690.9,226.7 690.9,239.3 L690.9,284 L670.05,284 Z M793.95,285.65 C774.75,285.65 762.6,278.45 756.15,265.55 L776.1,257.75 C779.7,264.95 786.15,268.7 794.7,268.7 C803.1,268.7 807.6,264.65 807.6,259.85 C807.6,254 798.9,252.65 788.55,250.55 C774.9,247.7 759.75,243.5 759.75,226.4 C759.75,212.75 772.95,200.9 792.9,201.05 C810,201.05 820.2,207.5 827.7,218.3 L808.8,225.95 C805.5,220.55 800.4,217.4 792.9,217.4 C784.8,217.4 780.9,220.7 780.9,225.2 C780.9,230.3 787.5,231.65 799.35,234.2 C812.85,236.9 828.75,241.55 828.75,258.95 C828.75,271.55 817.5,285.8 793.95,285.65 Z" id="FirefoxSharpSans" fill="#B933E1" fill-rule="nonzero"></path>
    </g>
</svg>