<?xml version="1.0" encoding="UTF-8"?>
<svg width="50px" height="128px" viewBox="0 0 50 128" version="1.1" xmlns="http://www.w3.org/2000/svg" xmlns:xlink="http://www.w3.org/1999/xlink">
    <!-- Generator: Sketch 55.2 (78181) - https://sketchapp.com -->
    <title>Combined Shape</title>
    <desc>Created with Sketch.</desc>
    <defs>
        <linearGradient x1="57.7310881%" y1="0%" x2="42.2689119%" y2="100%" id="linearGradient-1">
            <stop stop-color="#FF9100" offset="0%"></stop>
            <stop stop-color="#F10366" offset="49.9487445%"></stop>
            <stop stop-color="#6173FF" offset="100%"></stop>
        </linearGradient>
    </defs>
    <g id="Assets" stroke="none" stroke-width="1" fill="none" fill-rule="evenodd">
        <path d="M6.94621437,114.896032 L11.2771871,114.855155 C11.6725144,114.851424 11.9959738,115.173314 11.999654,115.574117 C12.0006885,115.686782 11.975836,115.798143 11.9270646,115.899382 L6.74140862,126.663705 C6.56790453,127.023863 6.13927495,127.173227 5.78403766,126.99732 C5.6448653,126.928404 5.531494,126.815583 5.46094064,126.67579 L0.0785244653,116.01121 C-0.101562916,115.654389 0.0377557351,115.217117 0.389701382,115.034535 C0.488631934,114.983212 0.597989927,114.955947 0.709114888,114.954898 L4.94593464,114.91491 C4.57185145,101.766067 5.01908571,95.8606853 7.67223941,88.6657345 C11.275516,78.8941945 18.7889614,70.7216581 31.7469949,63.4442987 C51.4205404,52.59507 53.2471521,32.0931392 36.9880169,1.47032671 C36.7290244,0.982534441 36.9145032,0.377145724 37.4022955,0.118153167 C37.8900877,-0.14083939 38.4954764,0.0446394266 38.754469,0.532431698 C55.4647796,32.0049978 53.5304939,53.7154629 32.7195701,65.1918791 C20.1624548,72.2441123 12.9775179,80.0593229 9.54872401,89.3576923 C7.00988708,96.2426333 6.57762728,101.976704 6.94621437,114.896032 Z" id="Combined-Shape" fill="url(#linearGradient-1)" fill-rule="nonzero"></path>
    </g>
</svg>