<?xml version="1.0" encoding="UTF-8"?>
<svg width="756px" height="314px" viewBox="0 0 756 314" version="1.1" xmlns="http://www.w3.org/2000/svg" xmlns:xlink="http://www.w3.org/1999/xlink">
    <!-- Generator: Sketch 55.2 (78181) - https://sketchapp.com -->
    <title>Group 38</title>
    <desc>Created with Sketch.</desc>
    <defs>
        <radialGradient cx="89.4219962%" cy="18.9389776%" fx="89.4219962%" fy="18.9389776%" r="113.709095%" gradientTransform="translate(0.894220,0.189390),scale(0.997869,1.000000),translate(-0.894220,-0.189390)" id="radialGradient-1">
            <stop stop-color="#FFF44F" offset="0%"></stop>
            <stop stop-color="#FF980E" offset="29%"></stop>
            <stop stop-color="#FF5D36" offset="43%"></stop>
            <stop stop-color="#FF3750" offset="53%"></stop>
            <stop stop-color="#F5156C" offset="75%"></stop>
            <stop stop-color="#F1136E" offset="76%"></stop>
            <stop stop-color="#DA057A" offset="88%"></stop>
            <stop stop-color="#D2007F" offset="95%"></stop>
        </radialGradient>
        <radialGradient cx="8.29929694%" cy="23.641516%" fx="8.29929694%" fy="23.641516%" r="67.2956857%" gradientTransform="translate(0.082993,0.236415),scale(0.997869,1.000000),translate(-0.082993,-0.236415)" id="radialGradient-2">
            <stop stop-color="#B5007F" offset="0%"></stop>
            <stop stop-color="#F5156C" stop-opacity="0" offset="100%"></stop>
        </radialGradient>
        <radialGradient cx="99.1212941%" cy="12.4685139%" fx="99.1212941%" fy="12.4685139%" r="133.52489%" gradientTransform="translate(0.991213,0.124685),scale(0.997869,1.000000),translate(-0.991213,-0.124685)" id="radialGradient-3">
            <stop stop-color="#FFDD00" stop-opacity="0.6" offset="0%"></stop>
            <stop stop-color="#FFD702" stop-opacity="0.58" offset="9%"></stop>
            <stop stop-color="#FEC606" stop-opacity="0.52" offset="20%"></stop>
            <stop stop-color="#FDA90E" stop-opacity="0.43" offset="32%"></stop>
            <stop stop-color="#FC8119" stop-opacity="0.3" offset="45%"></stop>
            <stop stop-color="#FA4E27" stop-opacity="0.14" offset="57%"></stop>
            <stop stop-color="#F92433" stop-opacity="0" offset="66%"></stop>
        </radialGradient>
        <radialGradient cx="52.8674994%" cy="55.6216398%" fx="52.8674994%" fy="55.6216398%" r="172.258202%" gradientTransform="translate(0.528675,0.556216),scale(0.997869,1.000000),translate(-0.528675,-0.556216)" id="radialGradient-4">
            <stop stop-color="#960E18" offset="15%"></stop>
            <stop stop-color="#B11927" stop-opacity="0.74" offset="18%"></stop>
            <stop stop-color="#DB293D" stop-opacity="0.34" offset="22%"></stop>
            <stop stop-color="#F5334B" stop-opacity="0.09" offset="26%"></stop>
            <stop stop-color="#FF3750" stop-opacity="0" offset="27%"></stop>
        </radialGradient>
        <radialGradient cx="39.8577268%" cy="53.456468%" fx="39.8577268%" fy="53.456468%" r="172.258202%" gradientTransform="translate(0.398577,0.534565),scale(0.997869,1.000000),translate(-0.398577,-0.534565)" id="radialGradient-5">
            <stop stop-color="#960E18" offset="11%"></stop>
            <stop stop-color="#B11927" stop-opacity="0.74" offset="15%"></stop>
            <stop stop-color="#DB293D" stop-opacity="0.34" offset="21%"></stop>
            <stop stop-color="#F5334B" stop-opacity="0.09" offset="26%"></stop>
            <stop stop-color="#FF3750" stop-opacity="0" offset="28%"></stop>
        </radialGradient>
        <linearGradient x1="40.8577655%" y1="37.0805586%" x2="81.6412441%" y2="83.7259018%" id="linearGradient-6">
            <stop stop-color="#FFBC04" offset="0%"></stop>
            <stop stop-color="#FFAB02" stop-opacity="0.62" offset="17%"></stop>
            <stop stop-color="#FF9B01" stop-opacity="0.29" offset="34%"></stop>
            <stop stop-color="#FF9200" stop-opacity="0.08" offset="45%"></stop>
            <stop stop-color="#FF8E00" stop-opacity="0" offset="51%"></stop>
        </linearGradient>
        <radialGradient cx="89.2860183%" cy="16.1265711%" fx="89.2860183%" fy="16.1265711%" r="119.190649%" gradientTransform="translate(0.892860,0.161266),scale(0.999708,1.000000),translate(-0.892860,-0.161266)" id="radialGradient-7">
            <stop stop-color="#FF980E" offset="0%"></stop>
            <stop stop-color="#FF7139" offset="30%"></stop>
            <stop stop-color="#FF5B51" offset="48%"></stop>
            <stop stop-color="#FF4F5E" offset="63%"></stop>
            <stop stop-color="#FF4055" offset="74%"></stop>
            <stop stop-color="#FF3750" offset="84%"></stop>
        </radialGradient>
        <radialGradient cx="89.2860183%" cy="16.1265711%" fx="89.2860183%" fy="16.1265711%" r="119.190649%" gradientTransform="translate(0.892860,0.161266),scale(0.999708,1.000000),translate(-0.892860,-0.161266)" id="radialGradient-8">
            <stop stop-color="#FFDE08" offset="8%"></stop>
            <stop stop-color="#FFDB08" stop-opacity="0.97" offset="15%"></stop>
            <stop stop-color="#FFD209" stop-opacity="0.88" offset="25%"></stop>
            <stop stop-color="#FFC40B" stop-opacity="0.73" offset="37%"></stop>
            <stop stop-color="#FFB00D" stop-opacity="0.53" offset="51%"></stop>
            <stop stop-color="#FF970F" stop-opacity="0.28" offset="67%"></stop>
            <stop stop-color="#FF7B12" stop-opacity="0" offset="82%"></stop>
        </radialGradient>
        <radialGradient cx="62.7023181%" cy="53.4611122%" fx="62.7023181%" fy="53.4611122%" r="58.4851023%" gradientTransform="translate(0.627023,0.534611),scale(0.999708,1.000000),rotate(75.547572),translate(-0.627023,-0.534611)" id="radialGradient-9">
            <stop stop-color="#FF3750" offset="36%"></stop>
            <stop stop-color="#FF4D47" stop-opacity="0.63" offset="44%"></stop>
            <stop stop-color="#FF673D" stop-opacity="0.18" offset="55%"></stop>
            <stop stop-color="#FF7139" stop-opacity="0" offset="59%"></stop>
        </radialGradient>
        <radialGradient cx="52.2060963%" cy="57.7813756%" fx="52.2060963%" fy="57.7813756%" r="58.3859304%" gradientTransform="translate(0.522061,0.577814),scale(0.999708,1.000000),translate(-0.522061,-0.577814)" id="radialGradient-10">
            <stop stop-color="#FF3750" stop-opacity="0.8" offset="22%"></stop>
            <stop stop-color="#FF444B" stop-opacity="0.63" offset="27%"></stop>
            <stop stop-color="#FF643E" stop-opacity="0.18" offset="41%"></stop>
            <stop stop-color="#FF7139" stop-opacity="0" offset="47%"></stop>
        </radialGradient>
        <radialGradient cx="122.043328%" cy="1.80716088%" fx="122.043328%" fy="1.80716088%" r="260.353377%" gradientTransform="translate(1.220433,0.018072),scale(1.000000,0.982914),translate(-1.220433,-0.018072)" id="radialGradient-11">
            <stop stop-color="#FFF44F" offset="5%"></stop>
            <stop stop-color="#FF980E" offset="46%"></stop>
            <stop stop-color="#FF8424" offset="52%"></stop>
            <stop stop-color="#FF7634" offset="59%"></stop>
            <stop stop-color="#FF7139" offset="64%"></stop>
        </radialGradient>
        <linearGradient x1="73.7794193%" y1="8.63601257%" x2="22.7430478%" y2="87.289566%" id="linearGradient-12">
            <stop stop-color="#FFF44F" stop-opacity="0.8" offset="0%"></stop>
            <stop stop-color="#FFF44F" stop-opacity="0.7" offset="9%"></stop>
            <stop stop-color="#FFF44F" stop-opacity="0" offset="75%"></stop>
        </linearGradient>
        <linearGradient x1="49.9973802%" y1="100.410404%" x2="49.9973802%" y2="1.01596242%" id="linearGradient-13">
            <stop stop-color="#3A8EE6" offset="0%"></stop>
            <stop stop-color="#5C79F0" offset="24%"></stop>
            <stop stop-color="#9059FF" offset="63%"></stop>
            <stop stop-color="#C139E6" offset="100%"></stop>
        </linearGradient>
        <linearGradient x1="16.5403294%" y1="8.63530718%" x2="90.3078986%" y2="76.1139571%" id="linearGradient-14">
            <stop stop-color="#9059FF" stop-opacity="0" offset="81%"></stop>
            <stop stop-color="#6E008B" stop-opacity="0.5" offset="100%"></stop>
        </linearGradient>
    </defs>
    <g id="Assets" stroke="none" stroke-width="1" fill="none" fill-rule="evenodd">
        <g id="Group-38" transform="translate(1.000000, 1.602190)">
            <path id="Path-6" d="M236.770476,177.250732 C137.752522,177.03852 76.4841734,188.610062 41.8418407,212.590463 C11.7697166,233.407238 1,262.739835 1,311.247899 C1,311.800184 0.55228475,312.247899 1.42108547e-14,312.247899 C-0.55228475,312.247899 -1,311.800184 -1,311.247899 C-1,262.148694 9.99460356,232.20359 40.703509,210.946018 C75.7665785,186.67437 137.386449,175.036838 236.785774,175.25076 L236.825319,170.080881 C236.828847,169.619673 237.20559,169.248649 237.666798,169.252177 C237.796441,169.253169 237.924074,169.284331 238.039587,169.343197 L250.321659,175.602117 C250.732598,175.811531 250.895967,176.314426 250.686553,176.725366 C250.604511,176.886361 250.472464,177.016403 250.310233,177.095973 L237.933853,183.166279 C237.519759,183.369382 237.019421,183.198339 236.816318,182.784245 C236.759226,182.667844 236.73002,182.53975 236.731012,182.410106 L236.770476,177.250732 Z" fill="#AB71FF" fill-rule="nonzero"></path>
            <path id="Path-6" d="M495.66233,104.933376 C534.140389,49.3228835 562.936988,14.0985929 582.121647,-0.790006371 C582.557955,-1.1286114 583.186147,-1.0494071 583.524752,-0.613098633 C583.863357,-0.176790162 583.784153,0.451401346 583.347844,0.790006371 C564.375986,15.5134581 535.673919,50.6220827 497.311157,106.065377 L501.566111,108.986615 C501.946346,109.247665 502.042964,109.767528 501.781914,110.147763 C501.708534,110.254645 501.611277,110.342975 501.497844,110.405757 L489.437037,117.081108 C489.033501,117.304455 488.525312,117.158383 488.301965,116.754847 C488.214464,116.596752 488.180599,116.414542 488.205455,116.235565 L490.101659,102.581709 C490.165103,102.124872 490.586874,101.805964 491.043711,101.869408 C491.172126,101.887242 491.294626,101.934729 491.401508,102.00811 L495.66233,104.933376 Z" fill="#FF8A50" fill-rule="nonzero"></path>
            <path d="M269,269.39781 C269,282.100359 279.297451,292.39781 292,292.39781 L510.417414,292.39781 C519.198587,292.39781 527.278702,297.193488 531.484919,304.901713 L535.029703,311.39781 L536.450218,305.967024 C538.84507,296.811245 546.396819,289.91768 555.732446,288.36537 L731.311512,259.170409 C744.402834,256.993608 754,245.668875 754,232.39781 L754,232.39781" id="Path-7" stroke="#FF4AA2" stroke-width="2" stroke-linejoin="round"></path>
            <g id="FF_Master__logo-and-wordmark-horizontal" transform="translate(269.000000, 93.397810)" fill-rule="nonzero">
                <path d="M192.051246,47.7266904 L234.681851,47.7266904 L234.681851,59.2626335 L204.281851,59.2626335 L204.281851,74.8982206 L234.681851,74.8982206 L234.681851,86.3430605 L204.281851,86.3430605 L204.281851,111.504626 L192.051246,111.504626 L192.051246,47.7266904 Z M249.184342,43.2740214 C253.375089,43.2740214 256.261922,46.3316726 256.261922,50.4370107 C256.261922,54.5423488 253.466192,57.6 249.093238,57.6 C244.902491,57.6 242.021352,54.633452 242.021352,50.6135231 C242.021352,46.2462633 245.249822,43.2740214 249.184342,43.2740214 Z M243.131673,64.341637 L255.185765,64.341637 L255.185765,111.516014 L243.131673,111.516014 L243.131673,64.341637 Z M290.135231,77.4377224 C288.465516,76.1183696 286.409535,75.3823763 284.281851,75.3423488 C279.385053,75.3423488 276.589324,78.4854093 276.589324,85.3864769 L276.589324,111.51032 L264.632028,111.51032 L264.632028,64.341637 L276.076868,64.341637 L276.076868,71.1743772 C278.525267,65.8448399 282.283274,63.9259081 287.35089,63.9259081 C290.213178,63.9169837 293.012174,64.7679895 295.385053,66.3686833 L290.135231,77.4377224 Z M295.111744,88.1822064 C295.111744,74.6419929 305.155872,63.3736655 319.396441,63.3736655 C333.637011,63.3736655 343.59573,73.4177936 343.59573,87.3964413 L343.59573,92.3786477 L306.903915,92.3786477 C308.213523,98.3174377 312.848399,102.246263 319.920285,102.246263 C325.426335,102.246263 329.184342,99.6270463 331.627046,95.2597865 L341.676868,101.28968 C336.694662,108.623488 329.617082,112.466904 319.572954,112.466904 C304.307473,112.46121 295.13452,102.240569 295.13452,88.1765125 L295.111744,88.1822064 Z M307.069039,82.852669 L331.87758,82.852669 C330.567972,76.8284698 325.676868,73.5088893 319.299644,73.5088893 C313.565836,73.5032028 308.765836,76.7316726 307.103203,82.8469751 L307.069039,82.852669 Z M346.590747,64.341637 L355.063345,64.341637 L355.063345,61.9786477 C355.063345,49.13879 360.478292,43.8092527 372.361566,43.8092527 L376.558007,43.8092527 L376.558007,54.2064057 L373.141637,54.2064057 C367.550178,54.2064057 366.308897,56.1252669 366.308897,61.9786477 L366.308897,64.341637 L376.558007,64.341637 L376.558007,75.1601423 L366.593594,75.1601423 L366.593594,111.504626 L355.063345,111.504626 L355.063345,75.1601423 L346.590747,75.1601423 L346.590747,64.341637 Z M378.824199,87.9259786 C378.824199,74.3857651 389.135943,63.3793594 403.461922,63.3793594 C412.231584,63.3793594 420.335087,68.0579183 424.719918,75.6526688 C429.104749,83.2474194 429.104749,92.6045379 424.719918,100.199288 C420.335087,107.794039 412.231584,112.472598 403.461922,112.472598 C388.788612,112.46121 378.824199,101.716726 378.824199,87.9145907 L378.824199,87.9259786 Z M416.40427,87.9259786 C416.40427,80.4156584 410.812811,74.5622776 403.47331,74.5622776 C396.071174,74.5622776 390.542349,80.4156584 390.542349,87.9259786 C390.542349,95.4362989 396.048399,101.295374 403.47331,101.295374 C410.801423,101.283986 416.392883,95.430605 416.392883,87.9145907 L416.40427,87.9259786 Z M444.361566,87.4021352 L427.313879,64.341637 L441.463345,64.341637 L451.530249,78.8327402 L461.819217,64.341637 L475.712456,64.341637 L458.414235,87.316726 L476.58363,111.504626 L462.519573,111.504626 L451.251246,96.1309609 L440.330249,111.504626 L426.266192,111.504626 L444.361566,87.4021352 Z" id="Shape" fill="#20133A"></path>
                <path d="M143.948754,31.5957295 C129.537367,12.6633452 107.074733,0.848398577 83.4505338,0.392882562 C64.9395018,0.0284697509 52.1338078,5.57437722 44.919573,10.0384342 C54.5992883,4.43558719 68.6064057,1.25836299 80.8711744,1.41779359 C112.421352,1.81637011 146.300356,23.2483986 151.333808,61.8818505 C157.107473,106.232028 126.149466,143.242705 82.5907473,143.356584 C34.6704626,143.476157 5.52882562,101.147331 13.1245552,63.1288256 C13.5060498,61.2327402 13.3124555,59.3822064 13.9501779,57.5886121 C14.3088968,50.9039146 16.8427046,40.4270463 22.3032028,29.7224199 C16.7857651,32.569395 9.77651246,41.5772242 6.29181495,49.9245552 C1.28683274,61.9558719 -0.472597865,76.344484 1.11032028,90.0327402 C1.22989324,91.0633452 1.33807829,92.0939502 1.4747331,93.1131673 C7.05850561,125.735208 32.1927318,151.52864 64.6593154,157.954917 C97.1258989,164.381195 130.190832,150.10742 147.780792,122.072275 C165.370753,94.0371292 163.837344,58.0554795 143.925979,31.6185053 L143.948754,31.5957295 Z" id="Path" fill="url(#radialGradient-1)"></path>
                <g id="Group" opacity="0.67" fill="url(#radialGradient-2)">
                    <path d="M143.948754,31.5957295 C129.537367,12.6633452 107.074733,0.848398577 83.4505338,0.392882562 C64.9395018,0.0284697509 52.1338078,5.57437722 44.919573,10.0384342 C54.5992883,4.43558719 68.6064057,1.25836299 80.8711744,1.41779359 C112.421352,1.81637011 146.300356,23.2483986 151.333808,61.8818505 C157.107473,106.232028 126.149466,143.242705 82.5907473,143.356584 C34.6704626,143.476157 5.52882562,101.147331 13.1245552,63.1288256 C13.5060498,61.2327402 13.3124555,59.3822064 13.9501779,57.5886121 C14.3088968,50.9039146 16.8427046,40.4270463 22.3032028,29.7224199 C16.7857651,32.569395 9.77651246,41.5772242 6.29181495,49.9245552 C1.28683274,61.9558719 -0.472597865,76.344484 1.11032028,90.0327402 C1.22989324,91.0633452 1.33807829,92.0939502 1.4747331,93.1131673 C7.05850561,125.735208 32.1927318,151.52864 64.6593154,157.954917 C97.1258989,164.381195 130.190832,150.10742 147.780792,122.072275 C165.370753,94.0371292 163.837344,58.0554795 143.925979,31.6185053 L143.948754,31.5957295 Z" id="Path"></path>
                </g>
                <path d="M143.948754,31.5957295 C129.537367,12.6633452 107.074733,0.848398577 83.4505338,0.392882562 C64.9395018,0.0284697509 52.1338078,5.57437722 44.919573,10.0384342 C54.5992883,4.43558719 68.6064057,1.25836299 80.8711744,1.41779359 C112.421352,1.81637011 146.300356,23.2483986 151.333808,61.8818505 C157.107473,106.232028 126.149466,143.242705 82.5907473,143.356584 C34.6704626,143.476157 5.52882562,101.147331 13.1245552,63.1288256 C13.5060498,61.2327402 13.3124555,59.3822064 13.9501779,57.5886121 C14.3088968,50.9039146 16.8427046,40.4270463 22.3032028,29.7224199 C16.7857651,32.569395 9.77651246,41.5772242 6.29181495,49.9245552 C1.28683274,61.9558719 -0.472597865,76.344484 1.11032028,90.0327402 C1.22989324,91.0633452 1.33807829,92.0939502 1.4747331,93.1131673 C7.05850561,125.735208 32.1927318,151.52864 64.6593154,157.954917 C97.1258989,164.381195 130.190832,150.10742 147.780792,122.072275 C165.370753,94.0371292 163.837344,58.0554795 143.925979,31.6185053 L143.948754,31.5957295 Z" id="Path" fill="url(#radialGradient-3)"></path>
                <path d="M143.948754,31.5957295 C129.537367,12.6633452 107.074733,0.848398577 83.4505338,0.392882562 C64.9395018,0.0284697509 52.1338078,5.57437722 44.919573,10.0384342 C54.5992883,4.43558719 68.6064057,1.25836299 80.8711744,1.41779359 C112.421352,1.81637011 146.300356,23.2483986 151.333808,61.8818505 C157.107473,106.232028 126.149466,143.242705 82.5907473,143.356584 C34.6704626,143.476157 5.52882562,101.147331 13.1245552,63.1288256 C13.5060498,61.2327402 13.3124555,59.3822064 13.9501779,57.5886121 C14.3088968,50.9039146 16.8427046,40.4270463 22.3032028,29.7224199 C16.7857651,32.569395 9.77651246,41.5772242 6.29181495,49.9245552 C1.28683274,61.9558719 -0.472597865,76.344484 1.11032028,90.0327402 C1.22989324,91.0633452 1.33807829,92.0939502 1.4747331,93.1131673 C7.05850561,125.735208 32.1927318,151.52864 64.6593154,157.954917 C97.1258989,164.381195 130.190832,150.10742 147.780792,122.072275 C165.370753,94.0371292 163.837344,58.0554795 143.925979,31.6185053 L143.948754,31.5957295 Z" id="Path" fill="url(#radialGradient-4)"></path>
                <path d="M143.948754,31.5957295 C129.537367,12.6633452 107.074733,0.848398577 83.4505338,0.392882562 C64.9395018,0.0284697509 52.1338078,5.57437722 44.919573,10.0384342 C54.5992883,4.43558719 68.6064057,1.25836299 80.8711744,1.41779359 C112.421352,1.81637011 146.300356,23.2483986 151.333808,61.8818505 C157.107473,106.232028 126.149466,143.242705 82.5907473,143.356584 C34.6704626,143.476157 5.52882562,101.147331 13.1245552,63.1288256 C13.5060498,61.2327402 13.3124555,59.3822064 13.9501779,57.5886121 C14.3088968,50.9039146 16.8427046,40.4270463 22.3032028,29.7224199 C16.7857651,32.569395 9.77651246,41.5772242 6.29181495,49.9245552 C1.28683274,61.9558719 -0.472597865,76.344484 1.11032028,90.0327402 C1.22989324,91.0633452 1.33807829,92.0939502 1.4747331,93.1131673 C7.05850561,125.735208 32.1927318,151.52864 64.6593154,157.954917 C97.1258989,164.381195 130.190832,150.10742 147.780792,122.072275 C165.370753,94.0371292 163.837344,58.0554795 143.925979,31.6185053 L143.948754,31.5957295 Z" id="Path" fill="url(#radialGradient-5)"></path>
                <path d="M151.333808,61.8818505 C151.960518,66.6564643 152.160597,71.4774202 151.931673,76.2875445 C154.579359,75.9003559 157.227046,75.541637 159.903203,75.2341637 C159.05677,59.4241687 153.504878,44.2278476 143.960142,31.5957295 C129.548754,12.6633452 107.086121,0.848398577 83.4619217,0.392882562 C64.9508897,0.0284697509 52.1451957,5.57437722 44.9309609,10.0384342 C54.6106762,4.43558719 68.6177936,1.25836299 80.8825623,1.41779359 C112.421352,1.81637011 146.300356,23.2483986 151.333808,61.8818505 Z" id="Path" fill="url(#linearGradient-6)"></path>
                <path d="M153.275445,59.6782918 C148.788612,19.3024911 112.694662,1.13879004 80.8540925,1.41779359 C68.5893238,1.51459075 54.5822064,4.43558719 44.9024911,10.0384342 C42.3434394,11.5560811 39.9635395,13.3572413 37.8078292,15.4078292 C38.0640569,15.197153 38.8327402,14.5651246 40.0854093,13.6996441 L40.2106762,13.6085409 L40.3245552,13.5345196 C45.0330506,10.3621302 50.2195933,7.96494018 55.6868327,6.4341637 C64.0967972,3.97437722 73.2014235,3.14875445 81.9587189,3.37081851 C117.950178,5.43772242 143.35089,35.2569395 144.233452,66.966548 C144.967972,93.2213523 123.427758,114.163701 98.5964413,115.365125 C80.5352313,116.241993 63.5217082,107.524555 55.2085409,90.0839858 C53.2667218,86.1129832 51.9473756,81.8668777 51.2967972,77.4946619 C47.3565836,50.9551601 65.2241993,28.3160142 81.6113879,22.7131673 C72.7686833,15.0092527 50.624911,15.5330961 34.1409253,27.6327402 C22.2690391,36.344484 14.5708185,49.6 12.0199288,65.4120996 C10.0725979,77.4718861 11.9060498,90.0099644 16.683274,101.20427 C27.054832,125.566279 50.2289507,142.039687 76.6462633,143.829181 C78.6220641,143.977224 80.6320285,144.051246 82.5907473,144.051246 C135.328114,144.05694 158.2121,104.125267 153.275445,59.6782918 Z" id="Path" fill="url(#radialGradient-7)"></path>
                <path d="M153.275445,59.6782918 C148.788612,19.3024911 112.694662,1.13879004 80.8540925,1.41779359 C68.5893238,1.51459075 54.5822064,4.43558719 44.9024911,10.0384342 C42.3434394,11.5560811 39.9635395,13.3572413 37.8078292,15.4078292 C38.0640569,15.197153 38.8327402,14.5651246 40.0854093,13.6996441 L40.2106762,13.6085409 L40.3245552,13.5345196 C45.0330506,10.3621302 50.2195933,7.96494018 55.6868327,6.4341637 C64.0967972,3.97437722 73.2014235,3.14875445 81.9587189,3.37081851 C117.950178,5.43772242 143.35089,35.2569395 144.233452,66.966548 C144.967972,93.2213523 123.427758,114.163701 98.5964413,115.365125 C80.5352313,116.241993 63.5217082,107.524555 55.2085409,90.0839858 C53.2667218,86.1129832 51.9473756,81.8668777 51.2967972,77.4946619 C47.3565836,50.9551601 65.2241993,28.3160142 81.6113879,22.7131673 C72.7686833,15.0092527 50.624911,15.5330961 34.1409253,27.6327402 C22.2690391,36.344484 14.5708185,49.6 12.0199288,65.4120996 C10.0725979,77.4718861 11.9060498,90.0099644 16.683274,101.20427 C27.054832,125.566279 50.2289507,142.039687 76.6462633,143.829181 C78.6220641,143.977224 80.6320285,144.051246 82.5907473,144.051246 C135.328114,144.05694 158.2121,104.125267 153.275445,59.6782918 Z" id="Path" fill="url(#radialGradient-8)"></path>
                <path d="M153.275445,59.6782918 C148.788612,19.3024911 112.694662,1.13879004 80.8540925,1.41779359 C68.5893238,1.51459075 54.5822064,4.43558719 44.9024911,10.0384342 C42.3434394,11.5560811 39.9635395,13.3572413 37.8078292,15.4078292 C38.0640569,15.197153 38.8327402,14.5651246 40.0854093,13.6996441 L40.2106762,13.6085409 L40.3245552,13.5345196 C45.0330506,10.3621302 50.2195933,7.96494018 55.6868327,6.4341637 C64.0967972,3.97437722 73.2014235,3.14875445 81.9587189,3.37081851 C117.950178,5.43772242 143.35089,35.2569395 144.233452,66.966548 C144.967972,93.2213523 123.427758,114.163701 98.5964413,115.365125 C80.5352313,116.241993 63.5217082,107.524555 55.2085409,90.0839858 C53.2667218,86.1129832 51.9473756,81.8668777 51.2967972,77.4946619 C47.3565836,50.9551601 65.2241993,28.3160142 81.6113879,22.7131673 C72.7686833,15.0092527 50.624911,15.5330961 34.1409253,27.6327402 C22.2690391,36.344484 14.5708185,49.6 12.0199288,65.4120996 C10.0725979,77.4718861 11.9060498,90.0099644 16.683274,101.20427 C27.054832,125.566279 50.2289507,142.039687 76.6462633,143.829181 C78.6220641,143.977224 80.6320285,144.051246 82.5907473,144.051246 C135.328114,144.05694 158.2121,104.125267 153.275445,59.6782918 Z" id="Path" fill="url(#radialGradient-9)" opacity="0.53" style="mix-blend-mode: multiply;"></path>
                <path d="M153.275445,59.6782918 C148.788612,19.3024911 112.694662,1.13879004 80.8540925,1.41779359 C68.5893238,1.51459075 54.5822064,4.43558719 44.9024911,10.0384342 C42.3434394,11.5560811 39.9635395,13.3572413 37.8078292,15.4078292 C38.0640569,15.197153 38.8327402,14.5651246 40.0854093,13.6996441 L40.2106762,13.6085409 L40.3245552,13.5345196 C45.0330506,10.3621302 50.2195933,7.96494018 55.6868327,6.4341637 C64.0967972,3.97437722 73.2014235,3.14875445 81.9587189,3.37081851 C117.950178,5.43772242 143.35089,35.2569395 144.233452,66.966548 C144.967972,93.2213523 123.427758,114.163701 98.5964413,115.365125 C80.5352313,116.241993 63.5217082,107.524555 55.2085409,90.0839858 C53.2667218,86.1129832 51.9473756,81.8668777 51.2967972,77.4946619 C47.3565836,50.9551601 65.2241993,28.3160142 81.6113879,22.7131673 C72.7686833,15.0092527 50.624911,15.5330961 34.1409253,27.6327402 C22.2690391,36.344484 14.5708185,49.6 12.0199288,65.4120996 C10.0725979,77.4718861 11.9060498,90.0099644 16.683274,101.20427 C27.054832,125.566279 50.2289507,142.039687 76.6462633,143.829181 C78.6220641,143.977224 80.6320285,144.051246 82.5907473,144.051246 C135.328114,144.05694 158.2121,104.125267 153.275445,59.6782918 Z" id="Path" fill="url(#radialGradient-10)" opacity="0.53" style="mix-blend-mode: multiply;"></path>
                <path d="M98.5964413,115.376512 C132.680427,113.303915 147.262633,85.1587189 148.173665,65.1843416 C149.602847,33.9814947 131.046263,0.33594306 81.9587189,3.37081851 C73.2014235,3.14875445 64.0967972,3.97437722 55.6868327,6.4341637 C50.2560442,8.03416046 45.0910521,10.4267107 40.3587189,13.5345196 L40.2448399,13.6085409 L40.119573,13.6996441 C39.3603796,14.2310795 38.6144721,14.7890866 37.8818505,15.3736655 C39.2483986,14.4398577 56.1765125,4.46405694 79.6925267,7.54448399 C107.871886,11.2341637 133.637011,33.1103203 133.637011,61.9672598 C133.637011,84.1736655 116.435587,101.124555 96.2960854,99.9174377 C66.3743772,98.1181495 58.8355872,67.5074733 74.397153,54.280427 C70.2007117,53.375089 62.3088968,55.1459075 56.8199288,63.3338078 C51.888968,70.6846975 52.1679715,82.0441281 55.2085409,90.0953737 C63.5217082,107.535943 80.5466192,116.469751 98.5964413,115.376512 Z" id="Path" fill="url(#radialGradient-11)"></path>
                <path d="M143.94306,31.5957295 C141.809164,28.8050477 139.492324,26.159133 137.007829,23.6754448 C135.030915,21.5951406 132.915528,19.6509626 130.676157,17.8562278 C131.96352,18.9794296 133.193094,20.1671946 134.360142,21.4149466 C138.719839,26.0583544 142.037496,31.5793709 144.091103,37.6085409 C148.253381,50.1921708 147.980071,65.941637 140.031317,78.3088968 C130.562278,93.0448399 115.137367,100.321708 98.4654804,99.9459075 C97.7423488,99.9459075 97.0192171,99.9459075 96.2903915,99.8946619 C66.3686833,98.0953737 58.8298932,67.4846975 74.3914591,54.2576512 C70.1950178,53.3523132 62.3032028,55.1231317 56.8142349,63.311032 C51.883274,70.6619217 52.1622776,82.0213523 55.202847,90.0725979 C53.2610278,86.1015953 51.9416816,81.8554898 51.2911032,77.483274 C47.3508897,50.9437722 65.2185053,28.3046263 81.605694,22.7017794 C72.7629893,14.9978648 50.6192171,15.5217082 34.1352313,27.6213523 C24.5295374,34.6704626 17.6569395,44.7032028 14.0298932,56.6604982 C14.5651246,49.9530249 17.1046263,39.9430605 22.3202847,29.716726 C16.802847,32.5637011 9.79359431,41.5715302 6.3088968,49.9188612 C1.30391459,61.9501779 -0.455516014,76.33879 1.12740214,90.0270463 C1.24697509,91.0576512 1.35516014,92.0882562 1.49181495,93.1074733 C7.08021601,125.723264 32.2130611,151.50919 64.6747932,157.932271 C97.1365252,164.355352 130.195431,150.08361 147.783574,122.053675 C165.371717,94.0237404 163.841778,58.0482881 143.937367,31.6128114 L143.94306,31.5957295 Z" id="Path" fill="url(#linearGradient-12)"></path>
                <path d="M144.085409,37.6085409 C142.041089,31.5801678 138.730983,26.0587933 134.377224,21.4149466 C129.292527,15.9259786 122.95516,11.7352313 116.253381,8.50676157 C110.580905,5.71901737 104.601357,3.60544109 98.4370107,2.20925267 C87.5636442,-0.166482571 76.3125714,-0.232437135 65.4120996,2.01565836 C54.0868327,4.39572954 44.1281139,9.28683274 37.830605,15.4021352 C42.5508897,12.5551601 49.13879,10.2149466 53.830605,9.03060498 C75.6156584,3.54163701 99.6042705,9.486121 115.957295,25.1330961 C119.267521,28.2688415 122.166151,31.8122489 124.58363,35.6782918 C134.337367,51.5017794 133.414947,71.3964413 125.807829,83.1259786 C120.159431,91.8434164 108.059786,100.019929 96.7686833,99.9288256 C114.08968,100.834164 130.243416,93.5516014 140.042705,78.2918149 C147.980071,65.941637 148.253381,50.1921708 144.085409,37.6085409 Z" id="Path" fill="url(#linearGradient-13)"></path>
                <path d="M144.085409,37.6085409 C142.041089,31.5801678 138.730983,26.0587933 134.377224,21.4149466 C129.292527,15.9259786 122.95516,11.7352313 116.253381,8.50676157 C110.580905,5.71901737 104.601357,3.60544109 98.4370107,2.20925267 C87.5636442,-0.166482571 76.3125714,-0.232437135 65.4120996,2.01565836 C54.0868327,4.39572954 44.1281139,9.28683274 37.830605,15.4021352 C42.5508897,12.5551601 49.13879,10.2149466 53.830605,9.03060498 C75.6156584,3.54163701 99.6042705,9.486121 115.957295,25.1330961 C119.267521,28.2688415 122.166151,31.8122489 124.58363,35.6782918 C134.337367,51.5017794 133.414947,71.3964413 125.807829,83.1259786 C120.159431,91.8434164 108.059786,100.019929 96.7686833,99.9288256 C114.08968,100.834164 130.243416,93.5516014 140.042705,78.2918149 C147.980071,65.941637 148.253381,50.1921708 144.085409,37.6085409 Z" id="Path" fill="url(#linearGradient-14)"></path>
            </g>
        </g>
    </g>
</svg>