<?xml version="1.0" encoding="UTF-8"?>
<svg width="618px" height="576px" viewBox="0 0 618 576" version="1.1" xmlns="http://www.w3.org/2000/svg" xmlns:xlink="http://www.w3.org/1999/xlink">
    <!-- Generator: Sketch 55.2 (78181) - https://sketchapp.com -->
    <title>Group 33</title>
    <desc>Created with Sketch.</desc>
    <g id="Assets" stroke="none" stroke-width="1" fill="none" fill-rule="evenodd">
        <g id="Group-33">
            <g id="Group-26">
                <g id="Group-2" fill="#EDEDF0">
                    <rect id="Rectangle" x="0" y="0" width="309" height="144"></rect>
                </g>
                <g id="Group-2" transform="translate(0.000000, 144.000000)" fill="#FFD567">
                    <rect id="Rectangle" x="0" y="0" width="309" height="144"></rect>
                </g>
                <g id="Group-2" transform="translate(309.000000, 0.000000)" fill="#FF298A">
                    <rect id="Rectangle" x="0" y="0" width="309" height="144"></rect>
                </g>
                <g id="Group-2" transform="translate(309.000000, 144.000000)" fill="#FF7139">
                    <rect id="Rectangle" x="0" y="0" width="309" height="144"></rect>
                </g>
                <g id="Group-2" transform="translate(0.000000, 288.000000)" fill="#E22850">
                    <rect id="Rectangle" x="0" y="0" width="309" height="144"></rect>
                </g>
                <g id="Group-2" transform="translate(309.000000, 288.000000)" fill="#0060DF">
                    <rect id="Rectangle" x="0" y="0" width="309" height="144"></rect>
                </g>
                <g id="Group-2" transform="translate(0.000000, 432.000000)" fill="#7542E5">
                    <rect id="Rectangle" x="0" y="0" width="309" height="144"></rect>
                </g>
                <g id="Group-2" transform="translate(309.000000, 432.000000)" fill="#20123A">
                    <rect id="Rectangle" x="0" y="0" width="309" height="144"></rect>
                </g>
            </g>
            <g id="Group-32" transform="translate(32.000000, 32.000000)" fill-rule="nonzero">
                <g id="FF_Master__logo-and-wordmark-one-color-ink" transform="translate(0.000000, 0.000000)" fill="#20133A">
                    <path d="M96.0828571,23.9485714 L117.474286,23.9485714 L117.474286,29.7371429 L102.22,29.7371429 L102.22,37.5828571 L117.474286,37.5828571 L117.474286,43.3257143 L102.22,43.3257143 L102.22,55.9514286 L96.0828571,55.9514286 L96.0828571,23.9485714 Z M124.751429,21.7142857 C126.854286,21.7142857 128.302857,23.2485714 128.302857,25.3085714 C128.302857,27.3685714 126.9,28.9028571 124.705714,28.9028571 C122.602857,28.9028571 121.157143,27.4142857 121.157143,25.3971429 C121.157143,23.2057143 122.777143,21.7142857 124.751429,21.7142857 Z M121.714286,32.2857143 L127.762857,32.2857143 L127.762857,55.9571429 L121.714286,55.9571429 L121.714286,32.2857143 Z M145.3,38.8571429 C144.462161,38.1951105 143.430499,37.8257995 142.362857,37.8057143 C139.905714,37.8057143 138.502857,39.3828571 138.502857,42.8457143 L138.502857,55.9542857 L132.502857,55.9542857 L132.502857,32.2857143 L138.245714,32.2857143 L138.245714,35.7142857 C139.474286,33.04 141.36,32.0771074 143.902857,32.0771074 C145.339113,32.0726293 146.743609,32.4996519 147.934286,33.3028571 L145.3,38.8571429 Z M147.797143,44.2485714 C147.797143,37.4542857 152.837143,31.8 159.982857,31.8 C167.128571,31.8 172.125714,36.84 172.125714,43.8542857 L172.125714,46.3542857 L153.714286,46.3542857 C154.371429,49.3342857 156.697143,51.3057143 160.245714,51.3057143 C163.008571,51.3057143 164.894286,49.9914286 166.12,47.8 L171.162857,50.8257143 C168.662857,54.5057143 165.111429,56.4342857 160.071429,56.4342857 C152.411429,56.4314286 147.808571,51.3028571 147.808571,44.2457143 L147.797143,44.2485714 Z M153.797143,41.5742857 L166.245714,41.5742857 C165.588571,38.5514286 163.134286,36.8857105 159.934286,36.8857105 C157.057143,36.8828571 154.648571,38.5028571 153.814286,41.5714286 L153.797143,41.5742857 Z M173.628571,32.2857143 L177.88,32.2857143 L177.88,31.1 C177.88,24.6571429 180.597143,21.9828571 186.56,21.9828571 L188.665714,21.9828571 L188.665714,27.2 L186.951429,27.2 C184.145714,27.2 183.522857,28.1628571 183.522857,31.1 L183.522857,32.2857143 L188.665714,32.2857143 L188.665714,37.7142857 L183.665714,37.7142857 L183.665714,55.9514286 L177.88,55.9514286 L177.88,37.7142857 L173.628571,37.7142857 L173.628571,32.2857143 Z M189.802857,44.12 C189.802857,37.3257143 194.977143,31.8028571 202.165714,31.8028571 C206.566206,31.8028571 210.632427,34.1504911 212.832673,37.9614285 C215.032919,41.7723658 215.032919,46.4676342 212.832673,50.2785715 C210.632427,54.0895089 206.566206,56.4371429 202.165714,56.4371429 C194.802857,56.4314286 189.802857,51.04 189.802857,44.1142857 L189.802857,44.12 Z M208.66,44.12 C208.66,40.3514286 205.854286,37.4142857 202.171429,37.4142857 C198.457143,37.4142857 195.682857,40.3514286 195.682857,44.12 C195.682857,47.8885714 198.445714,50.8285714 202.171429,50.8285714 C205.848571,50.8228571 208.654286,47.8857143 208.654286,44.1142857 L208.66,44.12 Z M222.688571,43.8571429 L214.134286,32.2857143 L221.234286,32.2857143 L226.285714,39.5571429 L231.448571,32.2857143 L238.42,32.2857143 L229.74,43.8142857 L238.857143,55.9514286 L231.8,55.9514286 L226.145714,48.2371429 L220.665714,55.9514286 L213.608571,55.9514286 L222.688571,43.8571429 Z" id="Shape"></path>
                    <path d="M78.8228571,29.4628571 L78.8228571,29.4371429 C78.7657143,29.22 78.7057143,29.0028571 78.6428571,28.7885714 L78.6171429,28.6914286 L78.4371429,28.0885714 L78.3942857,27.9571429 C78.3342857,27.7628571 78.2742857,27.5714286 78.2114286,27.3857143 C78.1942857,27.3342857 78.1771429,27.2828571 78.1628571,27.2314286 C78.1,27.0457143 78.0371429,26.86 77.9714286,26.6742857 C77.9542857,26.62 77.9342857,26.5657143 77.9142857,26.5114286 C77.8514286,26.3285714 77.7857143,26.1457143 77.7171429,25.9657143 C77.7,25.9114286 77.6771429,25.8571429 77.6571429,25.8028571 L77.4514286,25.2571429 C77.4314286,25.2114286 77.4114286,25.1657143 77.3942857,25.1171429 C77.3771429,25.0685714 77.3514286,25.0114286 77.3314286,24.9571429 L77.1685714,24.5542857 L77.1428571,24.4971429 C76.8857143,23.8742857 76.612381,23.26 76.3228571,22.6542857 C76.3057143,22.6114286 76.2857143,22.5714286 76.2657143,22.5314286 C76.1971429,22.3857143 76.1257143,22.2457143 76.0542857,22.0971429 L75.9257143,21.84 C75.8628571,21.7114286 75.7942857,21.5828571 75.7285714,21.4542857 L75.5742857,21.1685714 C75.5114286,21.0457143 75.4457143,20.9257143 75.3828571,20.8057143 L75.2114286,20.4914286 L75.02,20.1485714 L74.8314286,19.8228571 L74.6428571,19.4971429 C74.5742857,19.3857143 74.5085714,19.2742857 74.4428571,19.1628571 L74.2514286,18.8485714 L74.0371429,18.5057143 L73.8485714,18.22 L73.62,17.8657143 L73.4342857,17.58 L73.1828571,17.2114286 L73.0057143,16.9542857 C72.9114286,16.8171429 72.8142857,16.6685714 72.72,16.5457143 C72.6685714,16.4771429 72.62,16.4057143 72.5685714,16.3342857 C72.4228571,16.1314286 72.2828571,15.9285714 72.12,15.7257143 C70.964379,14.2083654 69.7011199,12.7760989 68.34,11.44 C67.3929463,10.4648184 66.3842008,9.55150772 65.32,8.70571429 C64.7057143,8.17428571 64.0628571,7.67428571 63.4057143,7.2 C62.0987708,6.22142682 60.7031698,5.36723101 59.2371429,4.64857143 C58.8885714,4.46857143 58.5371429,4.28857143 58.1828571,4.11714286 C55.3298505,2.71544858 52.32278,1.65204259 49.2228571,0.948571429 C48.8085714,0.86 48.3971429,0.777142857 47.98,0.7 C45.9071312,0.302673191 43.8044364,0.080934476 41.6942857,0.0367676905 L40.8057143,0.0367676905 C38.0557636,0.0251247416 35.3121512,0.301880061 32.62,0.862857143 C26.9228571,2.06 21.9142857,4.52 18.7457143,7.59428571 L18.76,7.59428571 L18.76,7.59428571 L18.7828571,7.57714286 L18.8028571,7.57714286 L18.8028571,7.57714286 L18.8457143,7.54857143 C21.2142857,6.12 24.4828571,4.97714286 26.82,4.38857143 L27.2085714,4.29428571 C27.6485714,4.18857143 28.1,4.09142857 28.5685714,4.00857143 L28.5685714,4.00857143 L28.9571429,3.93428571 C39.3142857,2.04857143 50.36,5.14 58.0514286,12.5057143 C59.7170307,14.0822176 61.1753949,15.8641293 62.3914286,17.8085714 C67.2971429,25.7685714 66.8314286,35.7714286 63.0057143,41.6714286 C60.1657143,46.0571429 54.08,50.1685714 48.4,50.1228571 L48.7457143,50.14 L48.5171429,50.14 L48.1657143,50.1257143 C45.6365499,50.0075372 43.1594883,49.3654081 40.8914286,48.24 C32.1028571,43.7542857 30.7942857,32.5771429 37.1514286,27.1742857 L37.1514286,27.1742857 C35.04,26.72 31.0742857,27.6085714 28.3114286,31.7285714 C25.8342857,35.4228571 25.9742857,41.1342857 27.5028571,45.1857143 C26.5252801,43.1889093 25.8612956,41.0533654 25.5342857,38.8542857 C23.6142857,25.9228571 31.9885714,14.8342857 40.0057143,11.5914286 L40.1742857,11.5257143 L40.3914286,11.4428571 L40.78,11.3028571 L40.78,11.3028571 C38.9742857,9.72857143 36.0628571,8.83714286 32.6885714,8.73142857 C28.0314286,8.6 22.4914286,9.98285714 17.7457143,13.1742857 C17.4619048,13.3647619 17.1819048,13.5619048 16.9057143,13.7657143 C16.7342857,13.8914286 16.5657143,14.02 16.3971429,14.1485714 L16.24,14.2714286 L15.8971429,14.5571429 L15.72,14.7028571 C15.6085714,14.7914286 15.5028571,14.8828571 15.3942857,14.9885714 L15.2257143,15.1314286 L14.8485714,15.4657143 L14.7514286,15.5514286 L14.2857143,15.9 L14.1285714,16.0542857 L13.8428571,16.34 L13.66,16.5257143 C13.5714286,16.6142857 13.4857143,16.7028571 13.4,16.7942857 L13.2171429,16.9885714 L12.9542857,17.2742857 C12.9,17.3342857 12.8428571,17.3942857 12.7885714,17.4571429 C12.66,17.6028571 12.5314286,17.7428571 12.4028571,17.9 L12.22,18.1171429 L12.0057143,18.3742857 L11.8085714,18.6228571 L11.62,18.86 L11.4171429,19.1257143 L11.2485714,19.3514286 L11.0428571,19.6371429 L10.9257143,19.8 C10.7828571,20.0057143 10.64,20.2114286 10.5,20.42 L10.38,20.5971429 L10.1657143,20.9285714 C10.1257143,20.9914286 10.0857143,21.0514286 10.0485714,21.1142857 C9.97714286,21.2285714 9.90571429,21.3428571 9.83714286,21.4571429 L9.73428571,21.6257143 L9.51428571,21.9971429 C9.50869416,22.0091656 9.50199877,22.0206434 9.49428571,22.0314286 C9.31428571,22.3428571 9.14,22.66 8.97142857,22.98 L8.97142857,22.98 C8.89714286,23.12 8.82571429,23.2657143 8.75428571,23.4028571 L8.69142857,23.5285714 C8.62095238,23.667619 8.55238095,23.807619 8.48571429,23.9485714 L8.42857143,24.0657143 C8.12,24.7142857 7.83428571,25.38 7.57142857,26.0657143 C7.56313019,26.089063 7.55359285,26.1119526 7.54285714,26.1342857 C7.48285714,26.2942857 7.42285714,26.4542857 7.36571429,26.6142857 C7.35142857,26.6457143 7.34,26.6771429 7.32857143,26.7085714 C7.27142857,26.8714286 7.21142857,27.0371429 7.15428571,27.2028571 L7.15428571,27.2171429 C7.03142857,27.58 6.91142857,27.9457143 6.79714286,28.3171429 C7.00966393,26.1055162 7.45303055,23.9221989 8.12,21.8028571 C8.12,21.8028571 8.12,21.7714286 8.12,21.7571429 C8.15714286,21.6342857 8.19714286,21.5085714 8.23714286,21.3857143 C8.23714286,21.3542857 8.25428571,21.3257143 8.26571429,21.2942857 C8.3,21.18 8.33714286,21.0685714 8.37428571,20.9542857 L8.41714286,20.8285714 L8.52285714,20.5114286 C8.54,20.46 8.55714286,20.4085714 8.57714286,20.3571429 L8.68,20.0714286 L8.74285714,19.8914286 L8.84571429,19.6057143 C8.86857143,19.54 8.89428571,19.4742857 8.92,19.4057143 C8.94571429,19.3371429 8.98571429,19.2314286 9.01714286,19.1428571 L9.10285714,18.9228571 C9.13428571,18.8371429 9.16571429,18.7542857 9.2,18.6714286 L9.29428571,18.4314286 L9.38857143,18.1971429 L9.49428571,17.94 C9.52571429,17.8657143 9.55714286,17.7914286 9.58571429,17.7171429 L9.70571429,17.4314286 C9.73428571,17.3628571 9.76285714,17.2942857 9.79428571,17.2257143 C9.82571429,17.1571429 9.88,17.0285714 9.92285714,16.94 L10.0085714,16.7485714 C10.0542857,16.64 10.1057143,16.5342857 10.1542857,16.4257143 L10.2314286,16.26 C10.2857143,16.1371429 10.3457143,16.0142857 10.4028571,15.8914286 L10.46,15.7714286 L10.6828571,15.3114286 L10.7,15.2771429 L10.9514286,14.7742857 L10.9514286,14.7742857 C9.93365955,15.3476252 9.0080413,16.0709751 8.20571429,16.92 L7.92,17.2057143 C5.81322746,19.4692777 4.11216034,22.0788693 2.89142857,24.92 C0.954285714,29.5828571 -0.0142857143,34.9485714 0.0054107968,40.3171429 C0.0121091578,41.9135958 0.107495236,43.5084511 0.291428571,45.0942857 C0.291428571,45.1771429 0.311428571,45.26 0.32,45.3428571 C0.365714286,45.7485714 0.411428571,46.1542857 0.462857143,46.5571429 C0.462857143,46.5857143 0.462857143,46.6142857 0.462857143,46.6428571 C2.9690404,61.2098667 13.2760775,73.221945 27.2933554,77.9117895 C41.3106333,82.6016341 56.7711304,79.2107539 67.5389504,69.084907 C78.3067704,58.9590601 82.6404281,43.7359051 78.82,29.4571429 L78.8228571,29.4628571 Z" id="Path"></path>
                </g>
                <g id="FF_Master__logo-and-wordmark-one-color-ink-Copy-4" transform="translate(0.000000, 288.000000)" fill="#FFFFFF">
                    <path d="M96.0828571,23.9485714 L117.474286,23.9485714 L117.474286,29.7371429 L102.22,29.7371429 L102.22,37.5828571 L117.474286,37.5828571 L117.474286,43.3257143 L102.22,43.3257143 L102.22,55.9514286 L96.0828571,55.9514286 L96.0828571,23.9485714 Z M124.751429,21.7142857 C126.854286,21.7142857 128.302857,23.2485714 128.302857,25.3085714 C128.302857,27.3685714 126.9,28.9028571 124.705714,28.9028571 C122.602857,28.9028571 121.157143,27.4142857 121.157143,25.3971429 C121.157143,23.2057143 122.777143,21.7142857 124.751429,21.7142857 Z M121.714286,32.2857143 L127.762857,32.2857143 L127.762857,55.9571429 L121.714286,55.9571429 L121.714286,32.2857143 Z M145.3,38.8571429 C144.462161,38.1951105 143.430499,37.8257995 142.362857,37.8057143 C139.905714,37.8057143 138.502857,39.3828571 138.502857,42.8457143 L138.502857,55.9542857 L132.502857,55.9542857 L132.502857,32.2857143 L138.245714,32.2857143 L138.245714,35.7142857 C139.474286,33.04 141.36,32.0771074 143.902857,32.0771074 C145.339113,32.0726293 146.743609,32.4996519 147.934286,33.3028571 L145.3,38.8571429 Z M147.797143,44.2485714 C147.797143,37.4542857 152.837143,31.8 159.982857,31.8 C167.128571,31.8 172.125714,36.84 172.125714,43.8542857 L172.125714,46.3542857 L153.714286,46.3542857 C154.371429,49.3342857 156.697143,51.3057143 160.245714,51.3057143 C163.008571,51.3057143 164.894286,49.9914286 166.12,47.8 L171.162857,50.8257143 C168.662857,54.5057143 165.111429,56.4342857 160.071429,56.4342857 C152.411429,56.4314286 147.808571,51.3028571 147.808571,44.2457143 L147.797143,44.2485714 Z M153.797143,41.5742857 L166.245714,41.5742857 C165.588571,38.5514286 163.134286,36.8857105 159.934286,36.8857105 C157.057143,36.8828571 154.648571,38.5028571 153.814286,41.5714286 L153.797143,41.5742857 Z M173.628571,32.2857143 L177.88,32.2857143 L177.88,31.1 C177.88,24.6571429 180.597143,21.9828571 186.56,21.9828571 L188.665714,21.9828571 L188.665714,27.2 L186.951429,27.2 C184.145714,27.2 183.522857,28.1628571 183.522857,31.1 L183.522857,32.2857143 L188.665714,32.2857143 L188.665714,37.7142857 L183.665714,37.7142857 L183.665714,55.9514286 L177.88,55.9514286 L177.88,37.7142857 L173.628571,37.7142857 L173.628571,32.2857143 Z M189.802857,44.12 C189.802857,37.3257143 194.977143,31.8028571 202.165714,31.8028571 C206.566206,31.8028571 210.632427,34.1504911 212.832673,37.9614285 C215.032919,41.7723658 215.032919,46.4676342 212.832673,50.2785715 C210.632427,54.0895089 206.566206,56.4371429 202.165714,56.4371429 C194.802857,56.4314286 189.802857,51.04 189.802857,44.1142857 L189.802857,44.12 Z M208.66,44.12 C208.66,40.3514286 205.854286,37.4142857 202.171429,37.4142857 C198.457143,37.4142857 195.682857,40.3514286 195.682857,44.12 C195.682857,47.8885714 198.445714,50.8285714 202.171429,50.8285714 C205.848571,50.8228571 208.654286,47.8857143 208.654286,44.1142857 L208.66,44.12 Z M222.688571,43.8571429 L214.134286,32.2857143 L221.234286,32.2857143 L226.285714,39.5571429 L231.448571,32.2857143 L238.42,32.2857143 L229.74,43.8142857 L238.857143,55.9514286 L231.8,55.9514286 L226.145714,48.2371429 L220.665714,55.9514286 L213.608571,55.9514286 L222.688571,43.8571429 Z" id="Shape"></path>
                    <path d="M78.8228571,29.4628571 L78.8228571,29.4371429 C78.7657143,29.22 78.7057143,29.0028571 78.6428571,28.7885714 L78.6171429,28.6914286 L78.4371429,28.0885714 L78.3942857,27.9571429 C78.3342857,27.7628571 78.2742857,27.5714286 78.2114286,27.3857143 C78.1942857,27.3342857 78.1771429,27.2828571 78.1628571,27.2314286 C78.1,27.0457143 78.0371429,26.86 77.9714286,26.6742857 C77.9542857,26.62 77.9342857,26.5657143 77.9142857,26.5114286 C77.8514286,26.3285714 77.7857143,26.1457143 77.7171429,25.9657143 C77.7,25.9114286 77.6771429,25.8571429 77.6571429,25.8028571 L77.4514286,25.2571429 C77.4314286,25.2114286 77.4114286,25.1657143 77.3942857,25.1171429 C77.3771429,25.0685714 77.3514286,25.0114286 77.3314286,24.9571429 L77.1685714,24.5542857 L77.1428571,24.4971429 C76.8857143,23.8742857 76.612381,23.26 76.3228571,22.6542857 C76.3057143,22.6114286 76.2857143,22.5714286 76.2657143,22.5314286 C76.1971429,22.3857143 76.1257143,22.2457143 76.0542857,22.0971429 L75.9257143,21.84 C75.8628571,21.7114286 75.7942857,21.5828571 75.7285714,21.4542857 L75.5742857,21.1685714 C75.5114286,21.0457143 75.4457143,20.9257143 75.3828571,20.8057143 L75.2114286,20.4914286 L75.02,20.1485714 L74.8314286,19.8228571 L74.6428571,19.4971429 C74.5742857,19.3857143 74.5085714,19.2742857 74.4428571,19.1628571 L74.2514286,18.8485714 L74.0371429,18.5057143 L73.8485714,18.22 L73.62,17.8657143 L73.4342857,17.58 L73.1828571,17.2114286 L73.0057143,16.9542857 C72.9114286,16.8171429 72.8142857,16.6685714 72.72,16.5457143 C72.6685714,16.4771429 72.62,16.4057143 72.5685714,16.3342857 C72.4228571,16.1314286 72.2828571,15.9285714 72.12,15.7257143 C70.964379,14.2083654 69.7011199,12.7760989 68.34,11.44 C67.3929463,10.4648184 66.3842008,9.55150772 65.32,8.70571429 C64.7057143,8.17428571 64.0628571,7.67428571 63.4057143,7.2 C62.0987708,6.22142682 60.7031698,5.36723101 59.2371429,4.64857143 C58.8885714,4.46857143 58.5371429,4.28857143 58.1828571,4.11714286 C55.3298505,2.71544858 52.32278,1.65204259 49.2228571,0.948571429 C48.8085714,0.86 48.3971429,0.777142857 47.98,0.7 C45.9071312,0.302673191 43.8044364,0.080934476 41.6942857,0.0367676905 L40.8057143,0.0367676905 C38.0557636,0.0251247416 35.3121512,0.301880061 32.62,0.862857143 C26.9228571,2.06 21.9142857,4.52 18.7457143,7.59428571 L18.76,7.59428571 L18.76,7.59428571 L18.7828571,7.57714286 L18.8028571,7.57714286 L18.8028571,7.57714286 L18.8457143,7.54857143 C21.2142857,6.12 24.4828571,4.97714286 26.82,4.38857143 L27.2085714,4.29428571 C27.6485714,4.18857143 28.1,4.09142857 28.5685714,4.00857143 L28.5685714,4.00857143 L28.9571429,3.93428571 C39.3142857,2.04857143 50.36,5.14 58.0514286,12.5057143 C59.7170307,14.0822176 61.1753949,15.8641293 62.3914286,17.8085714 C67.2971429,25.7685714 66.8314286,35.7714286 63.0057143,41.6714286 C60.1657143,46.0571429 54.08,50.1685714 48.4,50.1228571 L48.7457143,50.14 L48.5171429,50.14 L48.1657143,50.1257143 C45.6365499,50.0075372 43.1594883,49.3654081 40.8914286,48.24 C32.1028571,43.7542857 30.7942857,32.5771429 37.1514286,27.1742857 L37.1514286,27.1742857 C35.04,26.72 31.0742857,27.6085714 28.3114286,31.7285714 C25.8342857,35.4228571 25.9742857,41.1342857 27.5028571,45.1857143 C26.5252801,43.1889093 25.8612956,41.0533654 25.5342857,38.8542857 C23.6142857,25.9228571 31.9885714,14.8342857 40.0057143,11.5914286 L40.1742857,11.5257143 L40.3914286,11.4428571 L40.78,11.3028571 L40.78,11.3028571 C38.9742857,9.72857143 36.0628571,8.83714286 32.6885714,8.73142857 C28.0314286,8.6 22.4914286,9.98285714 17.7457143,13.1742857 C17.4619048,13.3647619 17.1819048,13.5619048 16.9057143,13.7657143 C16.7342857,13.8914286 16.5657143,14.02 16.3971429,14.1485714 L16.24,14.2714286 L15.8971429,14.5571429 L15.72,14.7028571 C15.6085714,14.7914286 15.5028571,14.8828571 15.3942857,14.9885714 L15.2257143,15.1314286 L14.8485714,15.4657143 L14.7514286,15.5514286 L14.2857143,15.9 L14.1285714,16.0542857 L13.8428571,16.34 L13.66,16.5257143 C13.5714286,16.6142857 13.4857143,16.7028571 13.4,16.7942857 L13.2171429,16.9885714 L12.9542857,17.2742857 C12.9,17.3342857 12.8428571,17.3942857 12.7885714,17.4571429 C12.66,17.6028571 12.5314286,17.7428571 12.4028571,17.9 L12.22,18.1171429 L12.0057143,18.3742857 L11.8085714,18.6228571 L11.62,18.86 L11.4171429,19.1257143 L11.2485714,19.3514286 L11.0428571,19.6371429 L10.9257143,19.8 C10.7828571,20.0057143 10.64,20.2114286 10.5,20.42 L10.38,20.5971429 L10.1657143,20.9285714 C10.1257143,20.9914286 10.0857143,21.0514286 10.0485714,21.1142857 C9.97714286,21.2285714 9.90571429,21.3428571 9.83714286,21.4571429 L9.73428571,21.6257143 L9.51428571,21.9971429 C9.50869416,22.0091656 9.50199877,22.0206434 9.49428571,22.0314286 C9.31428571,22.3428571 9.14,22.66 8.97142857,22.98 L8.97142857,22.98 C8.89714286,23.12 8.82571429,23.2657143 8.75428571,23.4028571 L8.69142857,23.5285714 C8.62095238,23.667619 8.55238095,23.807619 8.48571429,23.9485714 L8.42857143,24.0657143 C8.12,24.7142857 7.83428571,25.38 7.57142857,26.0657143 C7.56313019,26.089063 7.55359285,26.1119526 7.54285714,26.1342857 C7.48285714,26.2942857 7.42285714,26.4542857 7.36571429,26.6142857 C7.35142857,26.6457143 7.34,26.6771429 7.32857143,26.7085714 C7.27142857,26.8714286 7.21142857,27.0371429 7.15428571,27.2028571 L7.15428571,27.2171429 C7.03142857,27.58 6.91142857,27.9457143 6.79714286,28.3171429 C7.00966393,26.1055162 7.45303055,23.9221989 8.12,21.8028571 C8.12,21.8028571 8.12,21.7714286 8.12,21.7571429 C8.15714286,21.6342857 8.19714286,21.5085714 8.23714286,21.3857143 C8.23714286,21.3542857 8.25428571,21.3257143 8.26571429,21.2942857 C8.3,21.18 8.33714286,21.0685714 8.37428571,20.9542857 L8.41714286,20.8285714 L8.52285714,20.5114286 C8.54,20.46 8.55714286,20.4085714 8.57714286,20.3571429 L8.68,20.0714286 L8.74285714,19.8914286 L8.84571429,19.6057143 C8.86857143,19.54 8.89428571,19.4742857 8.92,19.4057143 C8.94571429,19.3371429 8.98571429,19.2314286 9.01714286,19.1428571 L9.10285714,18.9228571 C9.13428571,18.8371429 9.16571429,18.7542857 9.2,18.6714286 L9.29428571,18.4314286 L9.38857143,18.1971429 L9.49428571,17.94 C9.52571429,17.8657143 9.55714286,17.7914286 9.58571429,17.7171429 L9.70571429,17.4314286 C9.73428571,17.3628571 9.76285714,17.2942857 9.79428571,17.2257143 C9.82571429,17.1571429 9.88,17.0285714 9.92285714,16.94 L10.0085714,16.7485714 C10.0542857,16.64 10.1057143,16.5342857 10.1542857,16.4257143 L10.2314286,16.26 C10.2857143,16.1371429 10.3457143,16.0142857 10.4028571,15.8914286 L10.46,15.7714286 L10.6828571,15.3114286 L10.7,15.2771429 L10.9514286,14.7742857 L10.9514286,14.7742857 C9.93365955,15.3476252 9.0080413,16.0709751 8.20571429,16.92 L7.92,17.2057143 C5.81322746,19.4692777 4.11216034,22.0788693 2.89142857,24.92 C0.954285714,29.5828571 -0.0142857143,34.9485714 0.0054107968,40.3171429 C0.0121091578,41.9135958 0.107495236,43.5084511 0.291428571,45.0942857 C0.291428571,45.1771429 0.311428571,45.26 0.32,45.3428571 C0.365714286,45.7485714 0.411428571,46.1542857 0.462857143,46.5571429 C0.462857143,46.5857143 0.462857143,46.6142857 0.462857143,46.6428571 C2.9690404,61.2098667 13.2760775,73.221945 27.2933554,77.9117895 C41.3106333,82.6016341 56.7711304,79.2107539 67.5389504,69.084907 C78.3067704,58.9590601 82.6404281,43.7359051 78.82,29.4571429 L78.8228571,29.4628571 Z" id="Path"></path>
                </g>
                <g id="FF_Master__logo-and-wordmark-one-color-ink-Copy" transform="translate(0.000000, 144.000000)" fill="#20133A">
                    <path d="M96.0828571,23.9485714 L117.474286,23.9485714 L117.474286,29.7371429 L102.22,29.7371429 L102.22,37.5828571 L117.474286,37.5828571 L117.474286,43.3257143 L102.22,43.3257143 L102.22,55.9514286 L96.0828571,55.9514286 L96.0828571,23.9485714 Z M124.751429,21.7142857 C126.854286,21.7142857 128.302857,23.2485714 128.302857,25.3085714 C128.302857,27.3685714 126.9,28.9028571 124.705714,28.9028571 C122.602857,28.9028571 121.157143,27.4142857 121.157143,25.3971429 C121.157143,23.2057143 122.777143,21.7142857 124.751429,21.7142857 Z M121.714286,32.2857143 L127.762857,32.2857143 L127.762857,55.9571429 L121.714286,55.9571429 L121.714286,32.2857143 Z M145.3,38.8571429 C144.462161,38.1951105 143.430499,37.8257995 142.362857,37.8057143 C139.905714,37.8057143 138.502857,39.3828571 138.502857,42.8457143 L138.502857,55.9542857 L132.502857,55.9542857 L132.502857,32.2857143 L138.245714,32.2857143 L138.245714,35.7142857 C139.474286,33.04 141.36,32.0771074 143.902857,32.0771074 C145.339113,32.0726293 146.743609,32.4996519 147.934286,33.3028571 L145.3,38.8571429 Z M147.797143,44.2485714 C147.797143,37.4542857 152.837143,31.8 159.982857,31.8 C167.128571,31.8 172.125714,36.84 172.125714,43.8542857 L172.125714,46.3542857 L153.714286,46.3542857 C154.371429,49.3342857 156.697143,51.3057143 160.245714,51.3057143 C163.008571,51.3057143 164.894286,49.9914286 166.12,47.8 L171.162857,50.8257143 C168.662857,54.5057143 165.111429,56.4342857 160.071429,56.4342857 C152.411429,56.4314286 147.808571,51.3028571 147.808571,44.2457143 L147.797143,44.2485714 Z M153.797143,41.5742857 L166.245714,41.5742857 C165.588571,38.5514286 163.134286,36.8857105 159.934286,36.8857105 C157.057143,36.8828571 154.648571,38.5028571 153.814286,41.5714286 L153.797143,41.5742857 Z M173.628571,32.2857143 L177.88,32.2857143 L177.88,31.1 C177.88,24.6571429 180.597143,21.9828571 186.56,21.9828571 L188.665714,21.9828571 L188.665714,27.2 L186.951429,27.2 C184.145714,27.2 183.522857,28.1628571 183.522857,31.1 L183.522857,32.2857143 L188.665714,32.2857143 L188.665714,37.7142857 L183.665714,37.7142857 L183.665714,55.9514286 L177.88,55.9514286 L177.88,37.7142857 L173.628571,37.7142857 L173.628571,32.2857143 Z M189.802857,44.12 C189.802857,37.3257143 194.977143,31.8028571 202.165714,31.8028571 C206.566206,31.8028571 210.632427,34.1504911 212.832673,37.9614285 C215.032919,41.7723658 215.032919,46.4676342 212.832673,50.2785715 C210.632427,54.0895089 206.566206,56.4371429 202.165714,56.4371429 C194.802857,56.4314286 189.802857,51.04 189.802857,44.1142857 L189.802857,44.12 Z M208.66,44.12 C208.66,40.3514286 205.854286,37.4142857 202.171429,37.4142857 C198.457143,37.4142857 195.682857,40.3514286 195.682857,44.12 C195.682857,47.8885714 198.445714,50.8285714 202.171429,50.8285714 C205.848571,50.8228571 208.654286,47.8857143 208.654286,44.1142857 L208.66,44.12 Z M222.688571,43.8571429 L214.134286,32.2857143 L221.234286,32.2857143 L226.285714,39.5571429 L231.448571,32.2857143 L238.42,32.2857143 L229.74,43.8142857 L238.857143,55.9514286 L231.8,55.9514286 L226.145714,48.2371429 L220.665714,55.9514286 L213.608571,55.9514286 L222.688571,43.8571429 Z" id="Shape"></path>
                    <path d="M78.8228571,29.4628571 L78.8228571,29.4371429 C78.7657143,29.22 78.7057143,29.0028571 78.6428571,28.7885714 L78.6171429,28.6914286 L78.4371429,28.0885714 L78.3942857,27.9571429 C78.3342857,27.7628571 78.2742857,27.5714286 78.2114286,27.3857143 C78.1942857,27.3342857 78.1771429,27.2828571 78.1628571,27.2314286 C78.1,27.0457143 78.0371429,26.86 77.9714286,26.6742857 C77.9542857,26.62 77.9342857,26.5657143 77.9142857,26.5114286 C77.8514286,26.3285714 77.7857143,26.1457143 77.7171429,25.9657143 C77.7,25.9114286 77.6771429,25.8571429 77.6571429,25.8028571 L77.4514286,25.2571429 C77.4314286,25.2114286 77.4114286,25.1657143 77.3942857,25.1171429 C77.3771429,25.0685714 77.3514286,25.0114286 77.3314286,24.9571429 L77.1685714,24.5542857 L77.1428571,24.4971429 C76.8857143,23.8742857 76.612381,23.26 76.3228571,22.6542857 C76.3057143,22.6114286 76.2857143,22.5714286 76.2657143,22.5314286 C76.1971429,22.3857143 76.1257143,22.2457143 76.0542857,22.0971429 L75.9257143,21.84 C75.8628571,21.7114286 75.7942857,21.5828571 75.7285714,21.4542857 L75.5742857,21.1685714 C75.5114286,21.0457143 75.4457143,20.9257143 75.3828571,20.8057143 L75.2114286,20.4914286 L75.02,20.1485714 L74.8314286,19.8228571 L74.6428571,19.4971429 C74.5742857,19.3857143 74.5085714,19.2742857 74.4428571,19.1628571 L74.2514286,18.8485714 L74.0371429,18.5057143 L73.8485714,18.22 L73.62,17.8657143 L73.4342857,17.58 L73.1828571,17.2114286 L73.0057143,16.9542857 C72.9114286,16.8171429 72.8142857,16.6685714 72.72,16.5457143 C72.6685714,16.4771429 72.62,16.4057143 72.5685714,16.3342857 C72.4228571,16.1314286 72.2828571,15.9285714 72.12,15.7257143 C70.964379,14.2083654 69.7011199,12.7760989 68.34,11.44 C67.3929463,10.4648184 66.3842008,9.55150772 65.32,8.70571429 C64.7057143,8.17428571 64.0628571,7.67428571 63.4057143,7.2 C62.0987708,6.22142682 60.7031698,5.36723101 59.2371429,4.64857143 C58.8885714,4.46857143 58.5371429,4.28857143 58.1828571,4.11714286 C55.3298505,2.71544858 52.32278,1.65204259 49.2228571,0.948571429 C48.8085714,0.86 48.3971429,0.777142857 47.98,0.7 C45.9071312,0.302673191 43.8044364,0.080934476 41.6942857,0.0367676905 L40.8057143,0.0367676905 C38.0557636,0.0251247416 35.3121512,0.301880061 32.62,0.862857143 C26.9228571,2.06 21.9142857,4.52 18.7457143,7.59428571 L18.76,7.59428571 L18.76,7.59428571 L18.7828571,7.57714286 L18.8028571,7.57714286 L18.8028571,7.57714286 L18.8457143,7.54857143 C21.2142857,6.12 24.4828571,4.97714286 26.82,4.38857143 L27.2085714,4.29428571 C27.6485714,4.18857143 28.1,4.09142857 28.5685714,4.00857143 L28.5685714,4.00857143 L28.9571429,3.93428571 C39.3142857,2.04857143 50.36,5.14 58.0514286,12.5057143 C59.7170307,14.0822176 61.1753949,15.8641293 62.3914286,17.8085714 C67.2971429,25.7685714 66.8314286,35.7714286 63.0057143,41.6714286 C60.1657143,46.0571429 54.08,50.1685714 48.4,50.1228571 L48.7457143,50.14 L48.5171429,50.14 L48.1657143,50.1257143 C45.6365499,50.0075372 43.1594883,49.3654081 40.8914286,48.24 C32.1028571,43.7542857 30.7942857,32.5771429 37.1514286,27.1742857 L37.1514286,27.1742857 C35.04,26.72 31.0742857,27.6085714 28.3114286,31.7285714 C25.8342857,35.4228571 25.9742857,41.1342857 27.5028571,45.1857143 C26.5252801,43.1889093 25.8612956,41.0533654 25.5342857,38.8542857 C23.6142857,25.9228571 31.9885714,14.8342857 40.0057143,11.5914286 L40.1742857,11.5257143 L40.3914286,11.4428571 L40.78,11.3028571 L40.78,11.3028571 C38.9742857,9.72857143 36.0628571,8.83714286 32.6885714,8.73142857 C28.0314286,8.6 22.4914286,9.98285714 17.7457143,13.1742857 C17.4619048,13.3647619 17.1819048,13.5619048 16.9057143,13.7657143 C16.7342857,13.8914286 16.5657143,14.02 16.3971429,14.1485714 L16.24,14.2714286 L15.8971429,14.5571429 L15.72,14.7028571 C15.6085714,14.7914286 15.5028571,14.8828571 15.3942857,14.9885714 L15.2257143,15.1314286 L14.8485714,15.4657143 L14.7514286,15.5514286 L14.2857143,15.9 L14.1285714,16.0542857 L13.8428571,16.34 L13.66,16.5257143 C13.5714286,16.6142857 13.4857143,16.7028571 13.4,16.7942857 L13.2171429,16.9885714 L12.9542857,17.2742857 C12.9,17.3342857 12.8428571,17.3942857 12.7885714,17.4571429 C12.66,17.6028571 12.5314286,17.7428571 12.4028571,17.9 L12.22,18.1171429 L12.0057143,18.3742857 L11.8085714,18.6228571 L11.62,18.86 L11.4171429,19.1257143 L11.2485714,19.3514286 L11.0428571,19.6371429 L10.9257143,19.8 C10.7828571,20.0057143 10.64,20.2114286 10.5,20.42 L10.38,20.5971429 L10.1657143,20.9285714 C10.1257143,20.9914286 10.0857143,21.0514286 10.0485714,21.1142857 C9.97714286,21.2285714 9.90571429,21.3428571 9.83714286,21.4571429 L9.73428571,21.6257143 L9.51428571,21.9971429 C9.50869416,22.0091656 9.50199877,22.0206434 9.49428571,22.0314286 C9.31428571,22.3428571 9.14,22.66 8.97142857,22.98 L8.97142857,22.98 C8.89714286,23.12 8.82571429,23.2657143 8.75428571,23.4028571 L8.69142857,23.5285714 C8.62095238,23.667619 8.55238095,23.807619 8.48571429,23.9485714 L8.42857143,24.0657143 C8.12,24.7142857 7.83428571,25.38 7.57142857,26.0657143 C7.56313019,26.089063 7.55359285,26.1119526 7.54285714,26.1342857 C7.48285714,26.2942857 7.42285714,26.4542857 7.36571429,26.6142857 C7.35142857,26.6457143 7.34,26.6771429 7.32857143,26.7085714 C7.27142857,26.8714286 7.21142857,27.0371429 7.15428571,27.2028571 L7.15428571,27.2171429 C7.03142857,27.58 6.91142857,27.9457143 6.79714286,28.3171429 C7.00966393,26.1055162 7.45303055,23.9221989 8.12,21.8028571 C8.12,21.8028571 8.12,21.7714286 8.12,21.7571429 C8.15714286,21.6342857 8.19714286,21.5085714 8.23714286,21.3857143 C8.23714286,21.3542857 8.25428571,21.3257143 8.26571429,21.2942857 C8.3,21.18 8.33714286,21.0685714 8.37428571,20.9542857 L8.41714286,20.8285714 L8.52285714,20.5114286 C8.54,20.46 8.55714286,20.4085714 8.57714286,20.3571429 L8.68,20.0714286 L8.74285714,19.8914286 L8.84571429,19.6057143 C8.86857143,19.54 8.89428571,19.4742857 8.92,19.4057143 C8.94571429,19.3371429 8.98571429,19.2314286 9.01714286,19.1428571 L9.10285714,18.9228571 C9.13428571,18.8371429 9.16571429,18.7542857 9.2,18.6714286 L9.29428571,18.4314286 L9.38857143,18.1971429 L9.49428571,17.94 C9.52571429,17.8657143 9.55714286,17.7914286 9.58571429,17.7171429 L9.70571429,17.4314286 C9.73428571,17.3628571 9.76285714,17.2942857 9.79428571,17.2257143 C9.82571429,17.1571429 9.88,17.0285714 9.92285714,16.94 L10.0085714,16.7485714 C10.0542857,16.64 10.1057143,16.5342857 10.1542857,16.4257143 L10.2314286,16.26 C10.2857143,16.1371429 10.3457143,16.0142857 10.4028571,15.8914286 L10.46,15.7714286 L10.6828571,15.3114286 L10.7,15.2771429 L10.9514286,14.7742857 L10.9514286,14.7742857 C9.93365955,15.3476252 9.0080413,16.0709751 8.20571429,16.92 L7.92,17.2057143 C5.81322746,19.4692777 4.11216034,22.0788693 2.89142857,24.92 C0.954285714,29.5828571 -0.0142857143,34.9485714 0.0054107968,40.3171429 C0.0121091578,41.9135958 0.107495236,43.5084511 0.291428571,45.0942857 C0.291428571,45.1771429 0.311428571,45.26 0.32,45.3428571 C0.365714286,45.7485714 0.411428571,46.1542857 0.462857143,46.5571429 C0.462857143,46.5857143 0.462857143,46.6142857 0.462857143,46.6428571 C2.9690404,61.2098667 13.2760775,73.221945 27.2933554,77.9117895 C41.3106333,82.6016341 56.7711304,79.2107539 67.5389504,69.084907 C78.3067704,58.9590601 82.6404281,43.7359051 78.82,29.4571429 L78.8228571,29.4628571 Z" id="Path"></path>
                </g>
                <g id="FF_Master__logo-and-wordmark-one-color-ink-Copy-5" transform="translate(0.000000, 432.000000)" fill="#FFFFFF">
                    <path d="M96.0828571,23.9485714 L117.474286,23.9485714 L117.474286,29.7371429 L102.22,29.7371429 L102.22,37.5828571 L117.474286,37.5828571 L117.474286,43.3257143 L102.22,43.3257143 L102.22,55.9514286 L96.0828571,55.9514286 L96.0828571,23.9485714 Z M124.751429,21.7142857 C126.854286,21.7142857 128.302857,23.2485714 128.302857,25.3085714 C128.302857,27.3685714 126.9,28.9028571 124.705714,28.9028571 C122.602857,28.9028571 121.157143,27.4142857 121.157143,25.3971429 C121.157143,23.2057143 122.777143,21.7142857 124.751429,21.7142857 Z M121.714286,32.2857143 L127.762857,32.2857143 L127.762857,55.9571429 L121.714286,55.9571429 L121.714286,32.2857143 Z M145.3,38.8571429 C144.462161,38.1951105 143.430499,37.8257995 142.362857,37.8057143 C139.905714,37.8057143 138.502857,39.3828571 138.502857,42.8457143 L138.502857,55.9542857 L132.502857,55.9542857 L132.502857,32.2857143 L138.245714,32.2857143 L138.245714,35.7142857 C139.474286,33.04 141.36,32.0771074 143.902857,32.0771074 C145.339113,32.0726293 146.743609,32.4996519 147.934286,33.3028571 L145.3,38.8571429 Z M147.797143,44.2485714 C147.797143,37.4542857 152.837143,31.8 159.982857,31.8 C167.128571,31.8 172.125714,36.84 172.125714,43.8542857 L172.125714,46.3542857 L153.714286,46.3542857 C154.371429,49.3342857 156.697143,51.3057143 160.245714,51.3057143 C163.008571,51.3057143 164.894286,49.9914286 166.12,47.8 L171.162857,50.8257143 C168.662857,54.5057143 165.111429,56.4342857 160.071429,56.4342857 C152.411429,56.4314286 147.808571,51.3028571 147.808571,44.2457143 L147.797143,44.2485714 Z M153.797143,41.5742857 L166.245714,41.5742857 C165.588571,38.5514286 163.134286,36.8857105 159.934286,36.8857105 C157.057143,36.8828571 154.648571,38.5028571 153.814286,41.5714286 L153.797143,41.5742857 Z M173.628571,32.2857143 L177.88,32.2857143 L177.88,31.1 C177.88,24.6571429 180.597143,21.9828571 186.56,21.9828571 L188.665714,21.9828571 L188.665714,27.2 L186.951429,27.2 C184.145714,27.2 183.522857,28.1628571 183.522857,31.1 L183.522857,32.2857143 L188.665714,32.2857143 L188.665714,37.7142857 L183.665714,37.7142857 L183.665714,55.9514286 L177.88,55.9514286 L177.88,37.7142857 L173.628571,37.7142857 L173.628571,32.2857143 Z M189.802857,44.12 C189.802857,37.3257143 194.977143,31.8028571 202.165714,31.8028571 C206.566206,31.8028571 210.632427,34.1504911 212.832673,37.9614285 C215.032919,41.7723658 215.032919,46.4676342 212.832673,50.2785715 C210.632427,54.0895089 206.566206,56.4371429 202.165714,56.4371429 C194.802857,56.4314286 189.802857,51.04 189.802857,44.1142857 L189.802857,44.12 Z M208.66,44.12 C208.66,40.3514286 205.854286,37.4142857 202.171429,37.4142857 C198.457143,37.4142857 195.682857,40.3514286 195.682857,44.12 C195.682857,47.8885714 198.445714,50.8285714 202.171429,50.8285714 C205.848571,50.8228571 208.654286,47.8857143 208.654286,44.1142857 L208.66,44.12 Z M222.688571,43.8571429 L214.134286,32.2857143 L221.234286,32.2857143 L226.285714,39.5571429 L231.448571,32.2857143 L238.42,32.2857143 L229.74,43.8142857 L238.857143,55.9514286 L231.8,55.9514286 L226.145714,48.2371429 L220.665714,55.9514286 L213.608571,55.9514286 L222.688571,43.8571429 Z" id="Shape"></path>
                    <path d="M78.8228571,29.4628571 L78.8228571,29.4371429 C78.7657143,29.22 78.7057143,29.0028571 78.6428571,28.7885714 L78.6171429,28.6914286 L78.4371429,28.0885714 L78.3942857,27.9571429 C78.3342857,27.7628571 78.2742857,27.5714286 78.2114286,27.3857143 C78.1942857,27.3342857 78.1771429,27.2828571 78.1628571,27.2314286 C78.1,27.0457143 78.0371429,26.86 77.9714286,26.6742857 C77.9542857,26.62 77.9342857,26.5657143 77.9142857,26.5114286 C77.8514286,26.3285714 77.7857143,26.1457143 77.7171429,25.9657143 C77.7,25.9114286 77.6771429,25.8571429 77.6571429,25.8028571 L77.4514286,25.2571429 C77.4314286,25.2114286 77.4114286,25.1657143 77.3942857,25.1171429 C77.3771429,25.0685714 77.3514286,25.0114286 77.3314286,24.9571429 L77.1685714,24.5542857 L77.1428571,24.4971429 C76.8857143,23.8742857 76.612381,23.26 76.3228571,22.6542857 C76.3057143,22.6114286 76.2857143,22.5714286 76.2657143,22.5314286 C76.1971429,22.3857143 76.1257143,22.2457143 76.0542857,22.0971429 L75.9257143,21.84 C75.8628571,21.7114286 75.7942857,21.5828571 75.7285714,21.4542857 L75.5742857,21.1685714 C75.5114286,21.0457143 75.4457143,20.9257143 75.3828571,20.8057143 L75.2114286,20.4914286 L75.02,20.1485714 L74.8314286,19.8228571 L74.6428571,19.4971429 C74.5742857,19.3857143 74.5085714,19.2742857 74.4428571,19.1628571 L74.2514286,18.8485714 L74.0371429,18.5057143 L73.8485714,18.22 L73.62,17.8657143 L73.4342857,17.58 L73.1828571,17.2114286 L73.0057143,16.9542857 C72.9114286,16.8171429 72.8142857,16.6685714 72.72,16.5457143 C72.6685714,16.4771429 72.62,16.4057143 72.5685714,16.3342857 C72.4228571,16.1314286 72.2828571,15.9285714 72.12,15.7257143 C70.964379,14.2083654 69.7011199,12.7760989 68.34,11.44 C67.3929463,10.4648184 66.3842008,9.55150772 65.32,8.70571429 C64.7057143,8.17428571 64.0628571,7.67428571 63.4057143,7.2 C62.0987708,6.22142682 60.7031698,5.36723101 59.2371429,4.64857143 C58.8885714,4.46857143 58.5371429,4.28857143 58.1828571,4.11714286 C55.3298505,2.71544858 52.32278,1.65204259 49.2228571,0.948571429 C48.8085714,0.86 48.3971429,0.777142857 47.98,0.7 C45.9071312,0.302673191 43.8044364,0.080934476 41.6942857,0.0367676905 L40.8057143,0.0367676905 C38.0557636,0.0251247416 35.3121512,0.301880061 32.62,0.862857143 C26.9228571,2.06 21.9142857,4.52 18.7457143,7.59428571 L18.76,7.59428571 L18.76,7.59428571 L18.7828571,7.57714286 L18.8028571,7.57714286 L18.8028571,7.57714286 L18.8457143,7.54857143 C21.2142857,6.12 24.4828571,4.97714286 26.82,4.38857143 L27.2085714,4.29428571 C27.6485714,4.18857143 28.1,4.09142857 28.5685714,4.00857143 L28.5685714,4.00857143 L28.9571429,3.93428571 C39.3142857,2.04857143 50.36,5.14 58.0514286,12.5057143 C59.7170307,14.0822176 61.1753949,15.8641293 62.3914286,17.8085714 C67.2971429,25.7685714 66.8314286,35.7714286 63.0057143,41.6714286 C60.1657143,46.0571429 54.08,50.1685714 48.4,50.1228571 L48.7457143,50.14 L48.5171429,50.14 L48.1657143,50.1257143 C45.6365499,50.0075372 43.1594883,49.3654081 40.8914286,48.24 C32.1028571,43.7542857 30.7942857,32.5771429 37.1514286,27.1742857 L37.1514286,27.1742857 C35.04,26.72 31.0742857,27.6085714 28.3114286,31.7285714 C25.8342857,35.4228571 25.9742857,41.1342857 27.5028571,45.1857143 C26.5252801,43.1889093 25.8612956,41.0533654 25.5342857,38.8542857 C23.6142857,25.9228571 31.9885714,14.8342857 40.0057143,11.5914286 L40.1742857,11.5257143 L40.3914286,11.4428571 L40.78,11.3028571 L40.78,11.3028571 C38.9742857,9.72857143 36.0628571,8.83714286 32.6885714,8.73142857 C28.0314286,8.6 22.4914286,9.98285714 17.7457143,13.1742857 C17.4619048,13.3647619 17.1819048,13.5619048 16.9057143,13.7657143 C16.7342857,13.8914286 16.5657143,14.02 16.3971429,14.1485714 L16.24,14.2714286 L15.8971429,14.5571429 L15.72,14.7028571 C15.6085714,14.7914286 15.5028571,14.8828571 15.3942857,14.9885714 L15.2257143,15.1314286 L14.8485714,15.4657143 L14.7514286,15.5514286 L14.2857143,15.9 L14.1285714,16.0542857 L13.8428571,16.34 L13.66,16.5257143 C13.5714286,16.6142857 13.4857143,16.7028571 13.4,16.7942857 L13.2171429,16.9885714 L12.9542857,17.2742857 C12.9,17.3342857 12.8428571,17.3942857 12.7885714,17.4571429 C12.66,17.6028571 12.5314286,17.7428571 12.4028571,17.9 L12.22,18.1171429 L12.0057143,18.3742857 L11.8085714,18.6228571 L11.62,18.86 L11.4171429,19.1257143 L11.2485714,19.3514286 L11.0428571,19.6371429 L10.9257143,19.8 C10.7828571,20.0057143 10.64,20.2114286 10.5,20.42 L10.38,20.5971429 L10.1657143,20.9285714 C10.1257143,20.9914286 10.0857143,21.0514286 10.0485714,21.1142857 C9.97714286,21.2285714 9.90571429,21.3428571 9.83714286,21.4571429 L9.73428571,21.6257143 L9.51428571,21.9971429 C9.50869416,22.0091656 9.50199877,22.0206434 9.49428571,22.0314286 C9.31428571,22.3428571 9.14,22.66 8.97142857,22.98 L8.97142857,22.98 C8.89714286,23.12 8.82571429,23.2657143 8.75428571,23.4028571 L8.69142857,23.5285714 C8.62095238,23.667619 8.55238095,23.807619 8.48571429,23.9485714 L8.42857143,24.0657143 C8.12,24.7142857 7.83428571,25.38 7.57142857,26.0657143 C7.56313019,26.089063 7.55359285,26.1119526 7.54285714,26.1342857 C7.48285714,26.2942857 7.42285714,26.4542857 7.36571429,26.6142857 C7.35142857,26.6457143 7.34,26.6771429 7.32857143,26.7085714 C7.27142857,26.8714286 7.21142857,27.0371429 7.15428571,27.2028571 L7.15428571,27.2171429 C7.03142857,27.58 6.91142857,27.9457143 6.79714286,28.3171429 C7.00966393,26.1055162 7.45303055,23.9221989 8.12,21.8028571 C8.12,21.8028571 8.12,21.7714286 8.12,21.7571429 C8.15714286,21.6342857 8.19714286,21.5085714 8.23714286,21.3857143 C8.23714286,21.3542857 8.25428571,21.3257143 8.26571429,21.2942857 C8.3,21.18 8.33714286,21.0685714 8.37428571,20.9542857 L8.41714286,20.8285714 L8.52285714,20.5114286 C8.54,20.46 8.55714286,20.4085714 8.57714286,20.3571429 L8.68,20.0714286 L8.74285714,19.8914286 L8.84571429,19.6057143 C8.86857143,19.54 8.89428571,19.4742857 8.92,19.4057143 C8.94571429,19.3371429 8.98571429,19.2314286 9.01714286,19.1428571 L9.10285714,18.9228571 C9.13428571,18.8371429 9.16571429,18.7542857 9.2,18.6714286 L9.29428571,18.4314286 L9.38857143,18.1971429 L9.49428571,17.94 C9.52571429,17.8657143 9.55714286,17.7914286 9.58571429,17.7171429 L9.70571429,17.4314286 C9.73428571,17.3628571 9.76285714,17.2942857 9.79428571,17.2257143 C9.82571429,17.1571429 9.88,17.0285714 9.92285714,16.94 L10.0085714,16.7485714 C10.0542857,16.64 10.1057143,16.5342857 10.1542857,16.4257143 L10.2314286,16.26 C10.2857143,16.1371429 10.3457143,16.0142857 10.4028571,15.8914286 L10.46,15.7714286 L10.6828571,15.3114286 L10.7,15.2771429 L10.9514286,14.7742857 L10.9514286,14.7742857 C9.93365955,15.3476252 9.0080413,16.0709751 8.20571429,16.92 L7.92,17.2057143 C5.81322746,19.4692777 4.11216034,22.0788693 2.89142857,24.92 C0.954285714,29.5828571 -0.0142857143,34.9485714 0.0054107968,40.3171429 C0.0121091578,41.9135958 0.107495236,43.5084511 0.291428571,45.0942857 C0.291428571,45.1771429 0.311428571,45.26 0.32,45.3428571 C0.365714286,45.7485714 0.411428571,46.1542857 0.462857143,46.5571429 C0.462857143,46.5857143 0.462857143,46.6142857 0.462857143,46.6428571 C2.9690404,61.2098667 13.2760775,73.221945 27.2933554,77.9117895 C41.3106333,82.6016341 56.7711304,79.2107539 67.5389504,69.084907 C78.3067704,58.9590601 82.6404281,43.7359051 78.82,29.4571429 L78.8228571,29.4628571 Z" id="Path"></path>
                </g>
                <g id="FF_Master__logo-and-wordmark-one-color-ink-Copy-2" transform="translate(309.000000, 144.000000)" fill="#20133A">
                    <path d="M96.0828571,23.9485714 L117.474286,23.9485714 L117.474286,29.7371429 L102.22,29.7371429 L102.22,37.5828571 L117.474286,37.5828571 L117.474286,43.3257143 L102.22,43.3257143 L102.22,55.9514286 L96.0828571,55.9514286 L96.0828571,23.9485714 Z M124.751429,21.7142857 C126.854286,21.7142857 128.302857,23.2485714 128.302857,25.3085714 C128.302857,27.3685714 126.9,28.9028571 124.705714,28.9028571 C122.602857,28.9028571 121.157143,27.4142857 121.157143,25.3971429 C121.157143,23.2057143 122.777143,21.7142857 124.751429,21.7142857 Z M121.714286,32.2857143 L127.762857,32.2857143 L127.762857,55.9571429 L121.714286,55.9571429 L121.714286,32.2857143 Z M145.3,38.8571429 C144.462161,38.1951105 143.430499,37.8257995 142.362857,37.8057143 C139.905714,37.8057143 138.502857,39.3828571 138.502857,42.8457143 L138.502857,55.9542857 L132.502857,55.9542857 L132.502857,32.2857143 L138.245714,32.2857143 L138.245714,35.7142857 C139.474286,33.04 141.36,32.0771074 143.902857,32.0771074 C145.339113,32.0726293 146.743609,32.4996519 147.934286,33.3028571 L145.3,38.8571429 Z M147.797143,44.2485714 C147.797143,37.4542857 152.837143,31.8 159.982857,31.8 C167.128571,31.8 172.125714,36.84 172.125714,43.8542857 L172.125714,46.3542857 L153.714286,46.3542857 C154.371429,49.3342857 156.697143,51.3057143 160.245714,51.3057143 C163.008571,51.3057143 164.894286,49.9914286 166.12,47.8 L171.162857,50.8257143 C168.662857,54.5057143 165.111429,56.4342857 160.071429,56.4342857 C152.411429,56.4314286 147.808571,51.3028571 147.808571,44.2457143 L147.797143,44.2485714 Z M153.797143,41.5742857 L166.245714,41.5742857 C165.588571,38.5514286 163.134286,36.8857105 159.934286,36.8857105 C157.057143,36.8828571 154.648571,38.5028571 153.814286,41.5714286 L153.797143,41.5742857 Z M173.628571,32.2857143 L177.88,32.2857143 L177.88,31.1 C177.88,24.6571429 180.597143,21.9828571 186.56,21.9828571 L188.665714,21.9828571 L188.665714,27.2 L186.951429,27.2 C184.145714,27.2 183.522857,28.1628571 183.522857,31.1 L183.522857,32.2857143 L188.665714,32.2857143 L188.665714,37.7142857 L183.665714,37.7142857 L183.665714,55.9514286 L177.88,55.9514286 L177.88,37.7142857 L173.628571,37.7142857 L173.628571,32.2857143 Z M189.802857,44.12 C189.802857,37.3257143 194.977143,31.8028571 202.165714,31.8028571 C206.566206,31.8028571 210.632427,34.1504911 212.832673,37.9614285 C215.032919,41.7723658 215.032919,46.4676342 212.832673,50.2785715 C210.632427,54.0895089 206.566206,56.4371429 202.165714,56.4371429 C194.802857,56.4314286 189.802857,51.04 189.802857,44.1142857 L189.802857,44.12 Z M208.66,44.12 C208.66,40.3514286 205.854286,37.4142857 202.171429,37.4142857 C198.457143,37.4142857 195.682857,40.3514286 195.682857,44.12 C195.682857,47.8885714 198.445714,50.8285714 202.171429,50.8285714 C205.848571,50.8228571 208.654286,47.8857143 208.654286,44.1142857 L208.66,44.12 Z M222.688571,43.8571429 L214.134286,32.2857143 L221.234286,32.2857143 L226.285714,39.5571429 L231.448571,32.2857143 L238.42,32.2857143 L229.74,43.8142857 L238.857143,55.9514286 L231.8,55.9514286 L226.145714,48.2371429 L220.665714,55.9514286 L213.608571,55.9514286 L222.688571,43.8571429 Z" id="Shape"></path>
                    <path d="M78.8228571,29.4628571 L78.8228571,29.4371429 C78.7657143,29.22 78.7057143,29.0028571 78.6428571,28.7885714 L78.6171429,28.6914286 L78.4371429,28.0885714 L78.3942857,27.9571429 C78.3342857,27.7628571 78.2742857,27.5714286 78.2114286,27.3857143 C78.1942857,27.3342857 78.1771429,27.2828571 78.1628571,27.2314286 C78.1,27.0457143 78.0371429,26.86 77.9714286,26.6742857 C77.9542857,26.62 77.9342857,26.5657143 77.9142857,26.5114286 C77.8514286,26.3285714 77.7857143,26.1457143 77.7171429,25.9657143 C77.7,25.9114286 77.6771429,25.8571429 77.6571429,25.8028571 L77.4514286,25.2571429 C77.4314286,25.2114286 77.4114286,25.1657143 77.3942857,25.1171429 C77.3771429,25.0685714 77.3514286,25.0114286 77.3314286,24.9571429 L77.1685714,24.5542857 L77.1428571,24.4971429 C76.8857143,23.8742857 76.612381,23.26 76.3228571,22.6542857 C76.3057143,22.6114286 76.2857143,22.5714286 76.2657143,22.5314286 C76.1971429,22.3857143 76.1257143,22.2457143 76.0542857,22.0971429 L75.9257143,21.84 C75.8628571,21.7114286 75.7942857,21.5828571 75.7285714,21.4542857 L75.5742857,21.1685714 C75.5114286,21.0457143 75.4457143,20.9257143 75.3828571,20.8057143 L75.2114286,20.4914286 L75.02,20.1485714 L74.8314286,19.8228571 L74.6428571,19.4971429 C74.5742857,19.3857143 74.5085714,19.2742857 74.4428571,19.1628571 L74.2514286,18.8485714 L74.0371429,18.5057143 L73.8485714,18.22 L73.62,17.8657143 L73.4342857,17.58 L73.1828571,17.2114286 L73.0057143,16.9542857 C72.9114286,16.8171429 72.8142857,16.6685714 72.72,16.5457143 C72.6685714,16.4771429 72.62,16.4057143 72.5685714,16.3342857 C72.4228571,16.1314286 72.2828571,15.9285714 72.12,15.7257143 C70.964379,14.2083654 69.7011199,12.7760989 68.34,11.44 C67.3929463,10.4648184 66.3842008,9.55150772 65.32,8.70571429 C64.7057143,8.17428571 64.0628571,7.67428571 63.4057143,7.2 C62.0987708,6.22142682 60.7031698,5.36723101 59.2371429,4.64857143 C58.8885714,4.46857143 58.5371429,4.28857143 58.1828571,4.11714286 C55.3298505,2.71544858 52.32278,1.65204259 49.2228571,0.948571429 C48.8085714,0.86 48.3971429,0.777142857 47.98,0.7 C45.9071312,0.302673191 43.8044364,0.080934476 41.6942857,0.0367676905 L40.8057143,0.0367676905 C38.0557636,0.0251247416 35.3121512,0.301880061 32.62,0.862857143 C26.9228571,2.06 21.9142857,4.52 18.7457143,7.59428571 L18.76,7.59428571 L18.76,7.59428571 L18.7828571,7.57714286 L18.8028571,7.57714286 L18.8028571,7.57714286 L18.8457143,7.54857143 C21.2142857,6.12 24.4828571,4.97714286 26.82,4.38857143 L27.2085714,4.29428571 C27.6485714,4.18857143 28.1,4.09142857 28.5685714,4.00857143 L28.5685714,4.00857143 L28.9571429,3.93428571 C39.3142857,2.04857143 50.36,5.14 58.0514286,12.5057143 C59.7170307,14.0822176 61.1753949,15.8641293 62.3914286,17.8085714 C67.2971429,25.7685714 66.8314286,35.7714286 63.0057143,41.6714286 C60.1657143,46.0571429 54.08,50.1685714 48.4,50.1228571 L48.7457143,50.14 L48.5171429,50.14 L48.1657143,50.1257143 C45.6365499,50.0075372 43.1594883,49.3654081 40.8914286,48.24 C32.1028571,43.7542857 30.7942857,32.5771429 37.1514286,27.1742857 L37.1514286,27.1742857 C35.04,26.72 31.0742857,27.6085714 28.3114286,31.7285714 C25.8342857,35.4228571 25.9742857,41.1342857 27.5028571,45.1857143 C26.5252801,43.1889093 25.8612956,41.0533654 25.5342857,38.8542857 C23.6142857,25.9228571 31.9885714,14.8342857 40.0057143,11.5914286 L40.1742857,11.5257143 L40.3914286,11.4428571 L40.78,11.3028571 L40.78,11.3028571 C38.9742857,9.72857143 36.0628571,8.83714286 32.6885714,8.73142857 C28.0314286,8.6 22.4914286,9.98285714 17.7457143,13.1742857 C17.4619048,13.3647619 17.1819048,13.5619048 16.9057143,13.7657143 C16.7342857,13.8914286 16.5657143,14.02 16.3971429,14.1485714 L16.24,14.2714286 L15.8971429,14.5571429 L15.72,14.7028571 C15.6085714,14.7914286 15.5028571,14.8828571 15.3942857,14.9885714 L15.2257143,15.1314286 L14.8485714,15.4657143 L14.7514286,15.5514286 L14.2857143,15.9 L14.1285714,16.0542857 L13.8428571,16.34 L13.66,16.5257143 C13.5714286,16.6142857 13.4857143,16.7028571 13.4,16.7942857 L13.2171429,16.9885714 L12.9542857,17.2742857 C12.9,17.3342857 12.8428571,17.3942857 12.7885714,17.4571429 C12.66,17.6028571 12.5314286,17.7428571 12.4028571,17.9 L12.22,18.1171429 L12.0057143,18.3742857 L11.8085714,18.6228571 L11.62,18.86 L11.4171429,19.1257143 L11.2485714,19.3514286 L11.0428571,19.6371429 L10.9257143,19.8 C10.7828571,20.0057143 10.64,20.2114286 10.5,20.42 L10.38,20.5971429 L10.1657143,20.9285714 C10.1257143,20.9914286 10.0857143,21.0514286 10.0485714,21.1142857 C9.97714286,21.2285714 9.90571429,21.3428571 9.83714286,21.4571429 L9.73428571,21.6257143 L9.51428571,21.9971429 C9.50869416,22.0091656 9.50199877,22.0206434 9.49428571,22.0314286 C9.31428571,22.3428571 9.14,22.66 8.97142857,22.98 L8.97142857,22.98 C8.89714286,23.12 8.82571429,23.2657143 8.75428571,23.4028571 L8.69142857,23.5285714 C8.62095238,23.667619 8.55238095,23.807619 8.48571429,23.9485714 L8.42857143,24.0657143 C8.12,24.7142857 7.83428571,25.38 7.57142857,26.0657143 C7.56313019,26.089063 7.55359285,26.1119526 7.54285714,26.1342857 C7.48285714,26.2942857 7.42285714,26.4542857 7.36571429,26.6142857 C7.35142857,26.6457143 7.34,26.6771429 7.32857143,26.7085714 C7.27142857,26.8714286 7.21142857,27.0371429 7.15428571,27.2028571 L7.15428571,27.2171429 C7.03142857,27.58 6.91142857,27.9457143 6.79714286,28.3171429 C7.00966393,26.1055162 7.45303055,23.9221989 8.12,21.8028571 C8.12,21.8028571 8.12,21.7714286 8.12,21.7571429 C8.15714286,21.6342857 8.19714286,21.5085714 8.23714286,21.3857143 C8.23714286,21.3542857 8.25428571,21.3257143 8.26571429,21.2942857 C8.3,21.18 8.33714286,21.0685714 8.37428571,20.9542857 L8.41714286,20.8285714 L8.52285714,20.5114286 C8.54,20.46 8.55714286,20.4085714 8.57714286,20.3571429 L8.68,20.0714286 L8.74285714,19.8914286 L8.84571429,19.6057143 C8.86857143,19.54 8.89428571,19.4742857 8.92,19.4057143 C8.94571429,19.3371429 8.98571429,19.2314286 9.01714286,19.1428571 L9.10285714,18.9228571 C9.13428571,18.8371429 9.16571429,18.7542857 9.2,18.6714286 L9.29428571,18.4314286 L9.38857143,18.1971429 L9.49428571,17.94 C9.52571429,17.8657143 9.55714286,17.7914286 9.58571429,17.7171429 L9.70571429,17.4314286 C9.73428571,17.3628571 9.76285714,17.2942857 9.79428571,17.2257143 C9.82571429,17.1571429 9.88,17.0285714 9.92285714,16.94 L10.0085714,16.7485714 C10.0542857,16.64 10.1057143,16.5342857 10.1542857,16.4257143 L10.2314286,16.26 C10.2857143,16.1371429 10.3457143,16.0142857 10.4028571,15.8914286 L10.46,15.7714286 L10.6828571,15.3114286 L10.7,15.2771429 L10.9514286,14.7742857 L10.9514286,14.7742857 C9.93365955,15.3476252 9.0080413,16.0709751 8.20571429,16.92 L7.92,17.2057143 C5.81322746,19.4692777 4.11216034,22.0788693 2.89142857,24.92 C0.954285714,29.5828571 -0.0142857143,34.9485714 0.0054107968,40.3171429 C0.0121091578,41.9135958 0.107495236,43.5084511 0.291428571,45.0942857 C0.291428571,45.1771429 0.311428571,45.26 0.32,45.3428571 C0.365714286,45.7485714 0.411428571,46.1542857 0.462857143,46.5571429 C0.462857143,46.5857143 0.462857143,46.6142857 0.462857143,46.6428571 C2.9690404,61.2098667 13.2760775,73.221945 27.2933554,77.9117895 C41.3106333,82.6016341 56.7711304,79.2107539 67.5389504,69.084907 C78.3067704,58.9590601 82.6404281,43.7359051 78.82,29.4571429 L78.8228571,29.4628571 Z" id="Path"></path>
                </g>
                <g id="FF_Master__logo-and-wordmark-one-color-ink-Copy-6" transform="translate(309.000000, 432.000000)" fill="#FFFFFF">
                    <path d="M96.0828571,23.9485714 L117.474286,23.9485714 L117.474286,29.7371429 L102.22,29.7371429 L102.22,37.5828571 L117.474286,37.5828571 L117.474286,43.3257143 L102.22,43.3257143 L102.22,55.9514286 L96.0828571,55.9514286 L96.0828571,23.9485714 Z M124.751429,21.7142857 C126.854286,21.7142857 128.302857,23.2485714 128.302857,25.3085714 C128.302857,27.3685714 126.9,28.9028571 124.705714,28.9028571 C122.602857,28.9028571 121.157143,27.4142857 121.157143,25.3971429 C121.157143,23.2057143 122.777143,21.7142857 124.751429,21.7142857 Z M121.714286,32.2857143 L127.762857,32.2857143 L127.762857,55.9571429 L121.714286,55.9571429 L121.714286,32.2857143 Z M145.3,38.8571429 C144.462161,38.1951105 143.430499,37.8257995 142.362857,37.8057143 C139.905714,37.8057143 138.502857,39.3828571 138.502857,42.8457143 L138.502857,55.9542857 L132.502857,55.9542857 L132.502857,32.2857143 L138.245714,32.2857143 L138.245714,35.7142857 C139.474286,33.04 141.36,32.0771074 143.902857,32.0771074 C145.339113,32.0726293 146.743609,32.4996519 147.934286,33.3028571 L145.3,38.8571429 Z M147.797143,44.2485714 C147.797143,37.4542857 152.837143,31.8 159.982857,31.8 C167.128571,31.8 172.125714,36.84 172.125714,43.8542857 L172.125714,46.3542857 L153.714286,46.3542857 C154.371429,49.3342857 156.697143,51.3057143 160.245714,51.3057143 C163.008571,51.3057143 164.894286,49.9914286 166.12,47.8 L171.162857,50.8257143 C168.662857,54.5057143 165.111429,56.4342857 160.071429,56.4342857 C152.411429,56.4314286 147.808571,51.3028571 147.808571,44.2457143 L147.797143,44.2485714 Z M153.797143,41.5742857 L166.245714,41.5742857 C165.588571,38.5514286 163.134286,36.8857105 159.934286,36.8857105 C157.057143,36.8828571 154.648571,38.5028571 153.814286,41.5714286 L153.797143,41.5742857 Z M173.628571,32.2857143 L177.88,32.2857143 L177.88,31.1 C177.88,24.6571429 180.597143,21.9828571 186.56,21.9828571 L188.665714,21.9828571 L188.665714,27.2 L186.951429,27.2 C184.145714,27.2 183.522857,28.1628571 183.522857,31.1 L183.522857,32.2857143 L188.665714,32.2857143 L188.665714,37.7142857 L183.665714,37.7142857 L183.665714,55.9514286 L177.88,55.9514286 L177.88,37.7142857 L173.628571,37.7142857 L173.628571,32.2857143 Z M189.802857,44.12 C189.802857,37.3257143 194.977143,31.8028571 202.165714,31.8028571 C206.566206,31.8028571 210.632427,34.1504911 212.832673,37.9614285 C215.032919,41.7723658 215.032919,46.4676342 212.832673,50.2785715 C210.632427,54.0895089 206.566206,56.4371429 202.165714,56.4371429 C194.802857,56.4314286 189.802857,51.04 189.802857,44.1142857 L189.802857,44.12 Z M208.66,44.12 C208.66,40.3514286 205.854286,37.4142857 202.171429,37.4142857 C198.457143,37.4142857 195.682857,40.3514286 195.682857,44.12 C195.682857,47.8885714 198.445714,50.8285714 202.171429,50.8285714 C205.848571,50.8228571 208.654286,47.8857143 208.654286,44.1142857 L208.66,44.12 Z M222.688571,43.8571429 L214.134286,32.2857143 L221.234286,32.2857143 L226.285714,39.5571429 L231.448571,32.2857143 L238.42,32.2857143 L229.74,43.8142857 L238.857143,55.9514286 L231.8,55.9514286 L226.145714,48.2371429 L220.665714,55.9514286 L213.608571,55.9514286 L222.688571,43.8571429 Z" id="Shape"></path>
                    <path d="M78.8228571,29.4628571 L78.8228571,29.4371429 C78.7657143,29.22 78.7057143,29.0028571 78.6428571,28.7885714 L78.6171429,28.6914286 L78.4371429,28.0885714 L78.3942857,27.9571429 C78.3342857,27.7628571 78.2742857,27.5714286 78.2114286,27.3857143 C78.1942857,27.3342857 78.1771429,27.2828571 78.1628571,27.2314286 C78.1,27.0457143 78.0371429,26.86 77.9714286,26.6742857 C77.9542857,26.62 77.9342857,26.5657143 77.9142857,26.5114286 C77.8514286,26.3285714 77.7857143,26.1457143 77.7171429,25.9657143 C77.7,25.9114286 77.6771429,25.8571429 77.6571429,25.8028571 L77.4514286,25.2571429 C77.4314286,25.2114286 77.4114286,25.1657143 77.3942857,25.1171429 C77.3771429,25.0685714 77.3514286,25.0114286 77.3314286,24.9571429 L77.1685714,24.5542857 L77.1428571,24.4971429 C76.8857143,23.8742857 76.612381,23.26 76.3228571,22.6542857 C76.3057143,22.6114286 76.2857143,22.5714286 76.2657143,22.5314286 C76.1971429,22.3857143 76.1257143,22.2457143 76.0542857,22.0971429 L75.9257143,21.84 C75.8628571,21.7114286 75.7942857,21.5828571 75.7285714,21.4542857 L75.5742857,21.1685714 C75.5114286,21.0457143 75.4457143,20.9257143 75.3828571,20.8057143 L75.2114286,20.4914286 L75.02,20.1485714 L74.8314286,19.8228571 L74.6428571,19.4971429 C74.5742857,19.3857143 74.5085714,19.2742857 74.4428571,19.1628571 L74.2514286,18.8485714 L74.0371429,18.5057143 L73.8485714,18.22 L73.62,17.8657143 L73.4342857,17.58 L73.1828571,17.2114286 L73.0057143,16.9542857 C72.9114286,16.8171429 72.8142857,16.6685714 72.72,16.5457143 C72.6685714,16.4771429 72.62,16.4057143 72.5685714,16.3342857 C72.4228571,16.1314286 72.2828571,15.9285714 72.12,15.7257143 C70.964379,14.2083654 69.7011199,12.7760989 68.34,11.44 C67.3929463,10.4648184 66.3842008,9.55150772 65.32,8.70571429 C64.7057143,8.17428571 64.0628571,7.67428571 63.4057143,7.2 C62.0987708,6.22142682 60.7031698,5.36723101 59.2371429,4.64857143 C58.8885714,4.46857143 58.5371429,4.28857143 58.1828571,4.11714286 C55.3298505,2.71544858 52.32278,1.65204259 49.2228571,0.948571429 C48.8085714,0.86 48.3971429,0.777142857 47.98,0.7 C45.9071312,0.302673191 43.8044364,0.080934476 41.6942857,0.0367676905 L40.8057143,0.0367676905 C38.0557636,0.0251247416 35.3121512,0.301880061 32.62,0.862857143 C26.9228571,2.06 21.9142857,4.52 18.7457143,7.59428571 L18.76,7.59428571 L18.76,7.59428571 L18.7828571,7.57714286 L18.8028571,7.57714286 L18.8028571,7.57714286 L18.8457143,7.54857143 C21.2142857,6.12 24.4828571,4.97714286 26.82,4.38857143 L27.2085714,4.29428571 C27.6485714,4.18857143 28.1,4.09142857 28.5685714,4.00857143 L28.5685714,4.00857143 L28.9571429,3.93428571 C39.3142857,2.04857143 50.36,5.14 58.0514286,12.5057143 C59.7170307,14.0822176 61.1753949,15.8641293 62.3914286,17.8085714 C67.2971429,25.7685714 66.8314286,35.7714286 63.0057143,41.6714286 C60.1657143,46.0571429 54.08,50.1685714 48.4,50.1228571 L48.7457143,50.14 L48.5171429,50.14 L48.1657143,50.1257143 C45.6365499,50.0075372 43.1594883,49.3654081 40.8914286,48.24 C32.1028571,43.7542857 30.7942857,32.5771429 37.1514286,27.1742857 L37.1514286,27.1742857 C35.04,26.72 31.0742857,27.6085714 28.3114286,31.7285714 C25.8342857,35.4228571 25.9742857,41.1342857 27.5028571,45.1857143 C26.5252801,43.1889093 25.8612956,41.0533654 25.5342857,38.8542857 C23.6142857,25.9228571 31.9885714,14.8342857 40.0057143,11.5914286 L40.1742857,11.5257143 L40.3914286,11.4428571 L40.78,11.3028571 L40.78,11.3028571 C38.9742857,9.72857143 36.0628571,8.83714286 32.6885714,8.73142857 C28.0314286,8.6 22.4914286,9.98285714 17.7457143,13.1742857 C17.4619048,13.3647619 17.1819048,13.5619048 16.9057143,13.7657143 C16.7342857,13.8914286 16.5657143,14.02 16.3971429,14.1485714 L16.24,14.2714286 L15.8971429,14.5571429 L15.72,14.7028571 C15.6085714,14.7914286 15.5028571,14.8828571 15.3942857,14.9885714 L15.2257143,15.1314286 L14.8485714,15.4657143 L14.7514286,15.5514286 L14.2857143,15.9 L14.1285714,16.0542857 L13.8428571,16.34 L13.66,16.5257143 C13.5714286,16.6142857 13.4857143,16.7028571 13.4,16.7942857 L13.2171429,16.9885714 L12.9542857,17.2742857 C12.9,17.3342857 12.8428571,17.3942857 12.7885714,17.4571429 C12.66,17.6028571 12.5314286,17.7428571 12.4028571,17.9 L12.22,18.1171429 L12.0057143,18.3742857 L11.8085714,18.6228571 L11.62,18.86 L11.4171429,19.1257143 L11.2485714,19.3514286 L11.0428571,19.6371429 L10.9257143,19.8 C10.7828571,20.0057143 10.64,20.2114286 10.5,20.42 L10.38,20.5971429 L10.1657143,20.9285714 C10.1257143,20.9914286 10.0857143,21.0514286 10.0485714,21.1142857 C9.97714286,21.2285714 9.90571429,21.3428571 9.83714286,21.4571429 L9.73428571,21.6257143 L9.51428571,21.9971429 C9.50869416,22.0091656 9.50199877,22.0206434 9.49428571,22.0314286 C9.31428571,22.3428571 9.14,22.66 8.97142857,22.98 L8.97142857,22.98 C8.89714286,23.12 8.82571429,23.2657143 8.75428571,23.4028571 L8.69142857,23.5285714 C8.62095238,23.667619 8.55238095,23.807619 8.48571429,23.9485714 L8.42857143,24.0657143 C8.12,24.7142857 7.83428571,25.38 7.57142857,26.0657143 C7.56313019,26.089063 7.55359285,26.1119526 7.54285714,26.1342857 C7.48285714,26.2942857 7.42285714,26.4542857 7.36571429,26.6142857 C7.35142857,26.6457143 7.34,26.6771429 7.32857143,26.7085714 C7.27142857,26.8714286 7.21142857,27.0371429 7.15428571,27.2028571 L7.15428571,27.2171429 C7.03142857,27.58 6.91142857,27.9457143 6.79714286,28.3171429 C7.00966393,26.1055162 7.45303055,23.9221989 8.12,21.8028571 C8.12,21.8028571 8.12,21.7714286 8.12,21.7571429 C8.15714286,21.6342857 8.19714286,21.5085714 8.23714286,21.3857143 C8.23714286,21.3542857 8.25428571,21.3257143 8.26571429,21.2942857 C8.3,21.18 8.33714286,21.0685714 8.37428571,20.9542857 L8.41714286,20.8285714 L8.52285714,20.5114286 C8.54,20.46 8.55714286,20.4085714 8.57714286,20.3571429 L8.68,20.0714286 L8.74285714,19.8914286 L8.84571429,19.6057143 C8.86857143,19.54 8.89428571,19.4742857 8.92,19.4057143 C8.94571429,19.3371429 8.98571429,19.2314286 9.01714286,19.1428571 L9.10285714,18.9228571 C9.13428571,18.8371429 9.16571429,18.7542857 9.2,18.6714286 L9.29428571,18.4314286 L9.38857143,18.1971429 L9.49428571,17.94 C9.52571429,17.8657143 9.55714286,17.7914286 9.58571429,17.7171429 L9.70571429,17.4314286 C9.73428571,17.3628571 9.76285714,17.2942857 9.79428571,17.2257143 C9.82571429,17.1571429 9.88,17.0285714 9.92285714,16.94 L10.0085714,16.7485714 C10.0542857,16.64 10.1057143,16.5342857 10.1542857,16.4257143 L10.2314286,16.26 C10.2857143,16.1371429 10.3457143,16.0142857 10.4028571,15.8914286 L10.46,15.7714286 L10.6828571,15.3114286 L10.7,15.2771429 L10.9514286,14.7742857 L10.9514286,14.7742857 C9.93365955,15.3476252 9.0080413,16.0709751 8.20571429,16.92 L7.92,17.2057143 C5.81322746,19.4692777 4.11216034,22.0788693 2.89142857,24.92 C0.954285714,29.5828571 -0.0142857143,34.9485714 0.0054107968,40.3171429 C0.0121091578,41.9135958 0.107495236,43.5084511 0.291428571,45.0942857 C0.291428571,45.1771429 0.311428571,45.26 0.32,45.3428571 C0.365714286,45.7485714 0.411428571,46.1542857 0.462857143,46.5571429 C0.462857143,46.5857143 0.462857143,46.6142857 0.462857143,46.6428571 C2.9690404,61.2098667 13.2760775,73.221945 27.2933554,77.9117895 C41.3106333,82.6016341 56.7711304,79.2107539 67.5389504,69.084907 C78.3067704,58.9590601 82.6404281,43.7359051 78.82,29.4571429 L78.8228571,29.4628571 Z" id="Path"></path>
                </g>
                <g id="FF_Master__logo-and-wordmark-one-color-ink-Copy-3" transform="translate(309.000000, 0.000000)" fill="#20133A">
                    <path d="M96.0828571,23.9485714 L117.474286,23.9485714 L117.474286,29.7371429 L102.22,29.7371429 L102.22,37.5828571 L117.474286,37.5828571 L117.474286,43.3257143 L102.22,43.3257143 L102.22,55.9514286 L96.0828571,55.9514286 L96.0828571,23.9485714 Z M124.751429,21.7142857 C126.854286,21.7142857 128.302857,23.2485714 128.302857,25.3085714 C128.302857,27.3685714 126.9,28.9028571 124.705714,28.9028571 C122.602857,28.9028571 121.157143,27.4142857 121.157143,25.3971429 C121.157143,23.2057143 122.777143,21.7142857 124.751429,21.7142857 Z M121.714286,32.2857143 L127.762857,32.2857143 L127.762857,55.9571429 L121.714286,55.9571429 L121.714286,32.2857143 Z M145.3,38.8571429 C144.462161,38.1951105 143.430499,37.8257995 142.362857,37.8057143 C139.905714,37.8057143 138.502857,39.3828571 138.502857,42.8457143 L138.502857,55.9542857 L132.502857,55.9542857 L132.502857,32.2857143 L138.245714,32.2857143 L138.245714,35.7142857 C139.474286,33.04 141.36,32.0771074 143.902857,32.0771074 C145.339113,32.0726293 146.743609,32.4996519 147.934286,33.3028571 L145.3,38.8571429 Z M147.797143,44.2485714 C147.797143,37.4542857 152.837143,31.8 159.982857,31.8 C167.128571,31.8 172.125714,36.84 172.125714,43.8542857 L172.125714,46.3542857 L153.714286,46.3542857 C154.371429,49.3342857 156.697143,51.3057143 160.245714,51.3057143 C163.008571,51.3057143 164.894286,49.9914286 166.12,47.8 L171.162857,50.8257143 C168.662857,54.5057143 165.111429,56.4342857 160.071429,56.4342857 C152.411429,56.4314286 147.808571,51.3028571 147.808571,44.2457143 L147.797143,44.2485714 Z M153.797143,41.5742857 L166.245714,41.5742857 C165.588571,38.5514286 163.134286,36.8857105 159.934286,36.8857105 C157.057143,36.8828571 154.648571,38.5028571 153.814286,41.5714286 L153.797143,41.5742857 Z M173.628571,32.2857143 L177.88,32.2857143 L177.88,31.1 C177.88,24.6571429 180.597143,21.9828571 186.56,21.9828571 L188.665714,21.9828571 L188.665714,27.2 L186.951429,27.2 C184.145714,27.2 183.522857,28.1628571 183.522857,31.1 L183.522857,32.2857143 L188.665714,32.2857143 L188.665714,37.7142857 L183.665714,37.7142857 L183.665714,55.9514286 L177.88,55.9514286 L177.88,37.7142857 L173.628571,37.7142857 L173.628571,32.2857143 Z M189.802857,44.12 C189.802857,37.3257143 194.977143,31.8028571 202.165714,31.8028571 C206.566206,31.8028571 210.632427,34.1504911 212.832673,37.9614285 C215.032919,41.7723658 215.032919,46.4676342 212.832673,50.2785715 C210.632427,54.0895089 206.566206,56.4371429 202.165714,56.4371429 C194.802857,56.4314286 189.802857,51.04 189.802857,44.1142857 L189.802857,44.12 Z M208.66,44.12 C208.66,40.3514286 205.854286,37.4142857 202.171429,37.4142857 C198.457143,37.4142857 195.682857,40.3514286 195.682857,44.12 C195.682857,47.8885714 198.445714,50.8285714 202.171429,50.8285714 C205.848571,50.8228571 208.654286,47.8857143 208.654286,44.1142857 L208.66,44.12 Z M222.688571,43.8571429 L214.134286,32.2857143 L221.234286,32.2857143 L226.285714,39.5571429 L231.448571,32.2857143 L238.42,32.2857143 L229.74,43.8142857 L238.857143,55.9514286 L231.8,55.9514286 L226.145714,48.2371429 L220.665714,55.9514286 L213.608571,55.9514286 L222.688571,43.8571429 Z" id="Shape"></path>
                    <path d="M78.8228571,29.4628571 L78.8228571,29.4371429 C78.7657143,29.22 78.7057143,29.0028571 78.6428571,28.7885714 L78.6171429,28.6914286 L78.4371429,28.0885714 L78.3942857,27.9571429 C78.3342857,27.7628571 78.2742857,27.5714286 78.2114286,27.3857143 C78.1942857,27.3342857 78.1771429,27.2828571 78.1628571,27.2314286 C78.1,27.0457143 78.0371429,26.86 77.9714286,26.6742857 C77.9542857,26.62 77.9342857,26.5657143 77.9142857,26.5114286 C77.8514286,26.3285714 77.7857143,26.1457143 77.7171429,25.9657143 C77.7,25.9114286 77.6771429,25.8571429 77.6571429,25.8028571 L77.4514286,25.2571429 C77.4314286,25.2114286 77.4114286,25.1657143 77.3942857,25.1171429 C77.3771429,25.0685714 77.3514286,25.0114286 77.3314286,24.9571429 L77.1685714,24.5542857 L77.1428571,24.4971429 C76.8857143,23.8742857 76.612381,23.26 76.3228571,22.6542857 C76.3057143,22.6114286 76.2857143,22.5714286 76.2657143,22.5314286 C76.1971429,22.3857143 76.1257143,22.2457143 76.0542857,22.0971429 L75.9257143,21.84 C75.8628571,21.7114286 75.7942857,21.5828571 75.7285714,21.4542857 L75.5742857,21.1685714 C75.5114286,21.0457143 75.4457143,20.9257143 75.3828571,20.8057143 L75.2114286,20.4914286 L75.02,20.1485714 L74.8314286,19.8228571 L74.6428571,19.4971429 C74.5742857,19.3857143 74.5085714,19.2742857 74.4428571,19.1628571 L74.2514286,18.8485714 L74.0371429,18.5057143 L73.8485714,18.22 L73.62,17.8657143 L73.4342857,17.58 L73.1828571,17.2114286 L73.0057143,16.9542857 C72.9114286,16.8171429 72.8142857,16.6685714 72.72,16.5457143 C72.6685714,16.4771429 72.62,16.4057143 72.5685714,16.3342857 C72.4228571,16.1314286 72.2828571,15.9285714 72.12,15.7257143 C70.964379,14.2083654 69.7011199,12.7760989 68.34,11.44 C67.3929463,10.4648184 66.3842008,9.55150772 65.32,8.70571429 C64.7057143,8.17428571 64.0628571,7.67428571 63.4057143,7.2 C62.0987708,6.22142682 60.7031698,5.36723101 59.2371429,4.64857143 C58.8885714,4.46857143 58.5371429,4.28857143 58.1828571,4.11714286 C55.3298505,2.71544858 52.32278,1.65204259 49.2228571,0.948571429 C48.8085714,0.86 48.3971429,0.777142857 47.98,0.7 C45.9071312,0.302673191 43.8044364,0.080934476 41.6942857,0.0367676905 L40.8057143,0.0367676905 C38.0557636,0.0251247416 35.3121512,0.301880061 32.62,0.862857143 C26.9228571,2.06 21.9142857,4.52 18.7457143,7.59428571 L18.76,7.59428571 L18.76,7.59428571 L18.7828571,7.57714286 L18.8028571,7.57714286 L18.8028571,7.57714286 L18.8457143,7.54857143 C21.2142857,6.12 24.4828571,4.97714286 26.82,4.38857143 L27.2085714,4.29428571 C27.6485714,4.18857143 28.1,4.09142857 28.5685714,4.00857143 L28.5685714,4.00857143 L28.9571429,3.93428571 C39.3142857,2.04857143 50.36,5.14 58.0514286,12.5057143 C59.7170307,14.0822176 61.1753949,15.8641293 62.3914286,17.8085714 C67.2971429,25.7685714 66.8314286,35.7714286 63.0057143,41.6714286 C60.1657143,46.0571429 54.08,50.1685714 48.4,50.1228571 L48.7457143,50.14 L48.5171429,50.14 L48.1657143,50.1257143 C45.6365499,50.0075372 43.1594883,49.3654081 40.8914286,48.24 C32.1028571,43.7542857 30.7942857,32.5771429 37.1514286,27.1742857 L37.1514286,27.1742857 C35.04,26.72 31.0742857,27.6085714 28.3114286,31.7285714 C25.8342857,35.4228571 25.9742857,41.1342857 27.5028571,45.1857143 C26.5252801,43.1889093 25.8612956,41.0533654 25.5342857,38.8542857 C23.6142857,25.9228571 31.9885714,14.8342857 40.0057143,11.5914286 L40.1742857,11.5257143 L40.3914286,11.4428571 L40.78,11.3028571 L40.78,11.3028571 C38.9742857,9.72857143 36.0628571,8.83714286 32.6885714,8.73142857 C28.0314286,8.6 22.4914286,9.98285714 17.7457143,13.1742857 C17.4619048,13.3647619 17.1819048,13.5619048 16.9057143,13.7657143 C16.7342857,13.8914286 16.5657143,14.02 16.3971429,14.1485714 L16.24,14.2714286 L15.8971429,14.5571429 L15.72,14.7028571 C15.6085714,14.7914286 15.5028571,14.8828571 15.3942857,14.9885714 L15.2257143,15.1314286 L14.8485714,15.4657143 L14.7514286,15.5514286 L14.2857143,15.9 L14.1285714,16.0542857 L13.8428571,16.34 L13.66,16.5257143 C13.5714286,16.6142857 13.4857143,16.7028571 13.4,16.7942857 L13.2171429,16.9885714 L12.9542857,17.2742857 C12.9,17.3342857 12.8428571,17.3942857 12.7885714,17.4571429 C12.66,17.6028571 12.5314286,17.7428571 12.4028571,17.9 L12.22,18.1171429 L12.0057143,18.3742857 L11.8085714,18.6228571 L11.62,18.86 L11.4171429,19.1257143 L11.2485714,19.3514286 L11.0428571,19.6371429 L10.9257143,19.8 C10.7828571,20.0057143 10.64,20.2114286 10.5,20.42 L10.38,20.5971429 L10.1657143,20.9285714 C10.1257143,20.9914286 10.0857143,21.0514286 10.0485714,21.1142857 C9.97714286,21.2285714 9.90571429,21.3428571 9.83714286,21.4571429 L9.73428571,21.6257143 L9.51428571,21.9971429 C9.50869416,22.0091656 9.50199877,22.0206434 9.49428571,22.0314286 C9.31428571,22.3428571 9.14,22.66 8.97142857,22.98 L8.97142857,22.98 C8.89714286,23.12 8.82571429,23.2657143 8.75428571,23.4028571 L8.69142857,23.5285714 C8.62095238,23.667619 8.55238095,23.807619 8.48571429,23.9485714 L8.42857143,24.0657143 C8.12,24.7142857 7.83428571,25.38 7.57142857,26.0657143 C7.56313019,26.089063 7.55359285,26.1119526 7.54285714,26.1342857 C7.48285714,26.2942857 7.42285714,26.4542857 7.36571429,26.6142857 C7.35142857,26.6457143 7.34,26.6771429 7.32857143,26.7085714 C7.27142857,26.8714286 7.21142857,27.0371429 7.15428571,27.2028571 L7.15428571,27.2171429 C7.03142857,27.58 6.91142857,27.9457143 6.79714286,28.3171429 C7.00966393,26.1055162 7.45303055,23.9221989 8.12,21.8028571 C8.12,21.8028571 8.12,21.7714286 8.12,21.7571429 C8.15714286,21.6342857 8.19714286,21.5085714 8.23714286,21.3857143 C8.23714286,21.3542857 8.25428571,21.3257143 8.26571429,21.2942857 C8.3,21.18 8.33714286,21.0685714 8.37428571,20.9542857 L8.41714286,20.8285714 L8.52285714,20.5114286 C8.54,20.46 8.55714286,20.4085714 8.57714286,20.3571429 L8.68,20.0714286 L8.74285714,19.8914286 L8.84571429,19.6057143 C8.86857143,19.54 8.89428571,19.4742857 8.92,19.4057143 C8.94571429,19.3371429 8.98571429,19.2314286 9.01714286,19.1428571 L9.10285714,18.9228571 C9.13428571,18.8371429 9.16571429,18.7542857 9.2,18.6714286 L9.29428571,18.4314286 L9.38857143,18.1971429 L9.49428571,17.94 C9.52571429,17.8657143 9.55714286,17.7914286 9.58571429,17.7171429 L9.70571429,17.4314286 C9.73428571,17.3628571 9.76285714,17.2942857 9.79428571,17.2257143 C9.82571429,17.1571429 9.88,17.0285714 9.92285714,16.94 L10.0085714,16.7485714 C10.0542857,16.64 10.1057143,16.5342857 10.1542857,16.4257143 L10.2314286,16.26 C10.2857143,16.1371429 10.3457143,16.0142857 10.4028571,15.8914286 L10.46,15.7714286 L10.6828571,15.3114286 L10.7,15.2771429 L10.9514286,14.7742857 L10.9514286,14.7742857 C9.93365955,15.3476252 9.0080413,16.0709751 8.20571429,16.92 L7.92,17.2057143 C5.81322746,19.4692777 4.11216034,22.0788693 2.89142857,24.92 C0.954285714,29.5828571 -0.0142857143,34.9485714 0.0054107968,40.3171429 C0.0121091578,41.9135958 0.107495236,43.5084511 0.291428571,45.0942857 C0.291428571,45.1771429 0.311428571,45.26 0.32,45.3428571 C0.365714286,45.7485714 0.411428571,46.1542857 0.462857143,46.5571429 C0.462857143,46.5857143 0.462857143,46.6142857 0.462857143,46.6428571 C2.9690404,61.2098667 13.2760775,73.221945 27.2933554,77.9117895 C41.3106333,82.6016341 56.7711304,79.2107539 67.5389504,69.084907 C78.3067704,58.9590601 82.6404281,43.7359051 78.82,29.4571429 L78.8228571,29.4628571 Z" id="Path"></path>
                </g>
                <g id="FF_Master__logo-and-wordmark-one-color-ink-Copy-7" transform="translate(309.000000, 288.000000)" fill="#FFFFFF">
                    <path d="M96.0828571,23.9485714 L117.474286,23.9485714 L117.474286,29.7371429 L102.22,29.7371429 L102.22,37.5828571 L117.474286,37.5828571 L117.474286,43.3257143 L102.22,43.3257143 L102.22,55.9514286 L96.0828571,55.9514286 L96.0828571,23.9485714 Z M124.751429,21.7142857 C126.854286,21.7142857 128.302857,23.2485714 128.302857,25.3085714 C128.302857,27.3685714 126.9,28.9028571 124.705714,28.9028571 C122.602857,28.9028571 121.157143,27.4142857 121.157143,25.3971429 C121.157143,23.2057143 122.777143,21.7142857 124.751429,21.7142857 Z M121.714286,32.2857143 L127.762857,32.2857143 L127.762857,55.9571429 L121.714286,55.9571429 L121.714286,32.2857143 Z M145.3,38.8571429 C144.462161,38.1951105 143.430499,37.8257995 142.362857,37.8057143 C139.905714,37.8057143 138.502857,39.3828571 138.502857,42.8457143 L138.502857,55.9542857 L132.502857,55.9542857 L132.502857,32.2857143 L138.245714,32.2857143 L138.245714,35.7142857 C139.474286,33.04 141.36,32.0771074 143.902857,32.0771074 C145.339113,32.0726293 146.743609,32.4996519 147.934286,33.3028571 L145.3,38.8571429 Z M147.797143,44.2485714 C147.797143,37.4542857 152.837143,31.8 159.982857,31.8 C167.128571,31.8 172.125714,36.84 172.125714,43.8542857 L172.125714,46.3542857 L153.714286,46.3542857 C154.371429,49.3342857 156.697143,51.3057143 160.245714,51.3057143 C163.008571,51.3057143 164.894286,49.9914286 166.12,47.8 L171.162857,50.8257143 C168.662857,54.5057143 165.111429,56.4342857 160.071429,56.4342857 C152.411429,56.4314286 147.808571,51.3028571 147.808571,44.2457143 L147.797143,44.2485714 Z M153.797143,41.5742857 L166.245714,41.5742857 C165.588571,38.5514286 163.134286,36.8857105 159.934286,36.8857105 C157.057143,36.8828571 154.648571,38.5028571 153.814286,41.5714286 L153.797143,41.5742857 Z M173.628571,32.2857143 L177.88,32.2857143 L177.88,31.1 C177.88,24.6571429 180.597143,21.9828571 186.56,21.9828571 L188.665714,21.9828571 L188.665714,27.2 L186.951429,27.2 C184.145714,27.2 183.522857,28.1628571 183.522857,31.1 L183.522857,32.2857143 L188.665714,32.2857143 L188.665714,37.7142857 L183.665714,37.7142857 L183.665714,55.9514286 L177.88,55.9514286 L177.88,37.7142857 L173.628571,37.7142857 L173.628571,32.2857143 Z M189.802857,44.12 C189.802857,37.3257143 194.977143,31.8028571 202.165714,31.8028571 C206.566206,31.8028571 210.632427,34.1504911 212.832673,37.9614285 C215.032919,41.7723658 215.032919,46.4676342 212.832673,50.2785715 C210.632427,54.0895089 206.566206,56.4371429 202.165714,56.4371429 C194.802857,56.4314286 189.802857,51.04 189.802857,44.1142857 L189.802857,44.12 Z M208.66,44.12 C208.66,40.3514286 205.854286,37.4142857 202.171429,37.4142857 C198.457143,37.4142857 195.682857,40.3514286 195.682857,44.12 C195.682857,47.8885714 198.445714,50.8285714 202.171429,50.8285714 C205.848571,50.8228571 208.654286,47.8857143 208.654286,44.1142857 L208.66,44.12 Z M222.688571,43.8571429 L214.134286,32.2857143 L221.234286,32.2857143 L226.285714,39.5571429 L231.448571,32.2857143 L238.42,32.2857143 L229.74,43.8142857 L238.857143,55.9514286 L231.8,55.9514286 L226.145714,48.2371429 L220.665714,55.9514286 L213.608571,55.9514286 L222.688571,43.8571429 Z" id="Shape"></path>
                    <path d="M78.8228571,29.4628571 L78.8228571,29.4371429 C78.7657143,29.22 78.7057143,29.0028571 78.6428571,28.7885714 L78.6171429,28.6914286 L78.4371429,28.0885714 L78.3942857,27.9571429 C78.3342857,27.7628571 78.2742857,27.5714286 78.2114286,27.3857143 C78.1942857,27.3342857 78.1771429,27.2828571 78.1628571,27.2314286 C78.1,27.0457143 78.0371429,26.86 77.9714286,26.6742857 C77.9542857,26.62 77.9342857,26.5657143 77.9142857,26.5114286 C77.8514286,26.3285714 77.7857143,26.1457143 77.7171429,25.9657143 C77.7,25.9114286 77.6771429,25.8571429 77.6571429,25.8028571 L77.4514286,25.2571429 C77.4314286,25.2114286 77.4114286,25.1657143 77.3942857,25.1171429 C77.3771429,25.0685714 77.3514286,25.0114286 77.3314286,24.9571429 L77.1685714,24.5542857 L77.1428571,24.4971429 C76.8857143,23.8742857 76.612381,23.26 76.3228571,22.6542857 C76.3057143,22.6114286 76.2857143,22.5714286 76.2657143,22.5314286 C76.1971429,22.3857143 76.1257143,22.2457143 76.0542857,22.0971429 L75.9257143,21.84 C75.8628571,21.7114286 75.7942857,21.5828571 75.7285714,21.4542857 L75.5742857,21.1685714 C75.5114286,21.0457143 75.4457143,20.9257143 75.3828571,20.8057143 L75.2114286,20.4914286 L75.02,20.1485714 L74.8314286,19.8228571 L74.6428571,19.4971429 C74.5742857,19.3857143 74.5085714,19.2742857 74.4428571,19.1628571 L74.2514286,18.8485714 L74.0371429,18.5057143 L73.8485714,18.22 L73.62,17.8657143 L73.4342857,17.58 L73.1828571,17.2114286 L73.0057143,16.9542857 C72.9114286,16.8171429 72.8142857,16.6685714 72.72,16.5457143 C72.6685714,16.4771429 72.62,16.4057143 72.5685714,16.3342857 C72.4228571,16.1314286 72.2828571,15.9285714 72.12,15.7257143 C70.964379,14.2083654 69.7011199,12.7760989 68.34,11.44 C67.3929463,10.4648184 66.3842008,9.55150772 65.32,8.70571429 C64.7057143,8.17428571 64.0628571,7.67428571 63.4057143,7.2 C62.0987708,6.22142682 60.7031698,5.36723101 59.2371429,4.64857143 C58.8885714,4.46857143 58.5371429,4.28857143 58.1828571,4.11714286 C55.3298505,2.71544858 52.32278,1.65204259 49.2228571,0.948571429 C48.8085714,0.86 48.3971429,0.777142857 47.98,0.7 C45.9071312,0.302673191 43.8044364,0.080934476 41.6942857,0.0367676905 L40.8057143,0.0367676905 C38.0557636,0.0251247416 35.3121512,0.301880061 32.62,0.862857143 C26.9228571,2.06 21.9142857,4.52 18.7457143,7.59428571 L18.76,7.59428571 L18.76,7.59428571 L18.7828571,7.57714286 L18.8028571,7.57714286 L18.8028571,7.57714286 L18.8457143,7.54857143 C21.2142857,6.12 24.4828571,4.97714286 26.82,4.38857143 L27.2085714,4.29428571 C27.6485714,4.18857143 28.1,4.09142857 28.5685714,4.00857143 L28.5685714,4.00857143 L28.9571429,3.93428571 C39.3142857,2.04857143 50.36,5.14 58.0514286,12.5057143 C59.7170307,14.0822176 61.1753949,15.8641293 62.3914286,17.8085714 C67.2971429,25.7685714 66.8314286,35.7714286 63.0057143,41.6714286 C60.1657143,46.0571429 54.08,50.1685714 48.4,50.1228571 L48.7457143,50.14 L48.5171429,50.14 L48.1657143,50.1257143 C45.6365499,50.0075372 43.1594883,49.3654081 40.8914286,48.24 C32.1028571,43.7542857 30.7942857,32.5771429 37.1514286,27.1742857 L37.1514286,27.1742857 C35.04,26.72 31.0742857,27.6085714 28.3114286,31.7285714 C25.8342857,35.4228571 25.9742857,41.1342857 27.5028571,45.1857143 C26.5252801,43.1889093 25.8612956,41.0533654 25.5342857,38.8542857 C23.6142857,25.9228571 31.9885714,14.8342857 40.0057143,11.5914286 L40.1742857,11.5257143 L40.3914286,11.4428571 L40.78,11.3028571 L40.78,11.3028571 C38.9742857,9.72857143 36.0628571,8.83714286 32.6885714,8.73142857 C28.0314286,8.6 22.4914286,9.98285714 17.7457143,13.1742857 C17.4619048,13.3647619 17.1819048,13.5619048 16.9057143,13.7657143 C16.7342857,13.8914286 16.5657143,14.02 16.3971429,14.1485714 L16.24,14.2714286 L15.8971429,14.5571429 L15.72,14.7028571 C15.6085714,14.7914286 15.5028571,14.8828571 15.3942857,14.9885714 L15.2257143,15.1314286 L14.8485714,15.4657143 L14.7514286,15.5514286 L14.2857143,15.9 L14.1285714,16.0542857 L13.8428571,16.34 L13.66,16.5257143 C13.5714286,16.6142857 13.4857143,16.7028571 13.4,16.7942857 L13.2171429,16.9885714 L12.9542857,17.2742857 C12.9,17.3342857 12.8428571,17.3942857 12.7885714,17.4571429 C12.66,17.6028571 12.5314286,17.7428571 12.4028571,17.9 L12.22,18.1171429 L12.0057143,18.3742857 L11.8085714,18.6228571 L11.62,18.86 L11.4171429,19.1257143 L11.2485714,19.3514286 L11.0428571,19.6371429 L10.9257143,19.8 C10.7828571,20.0057143 10.64,20.2114286 10.5,20.42 L10.38,20.5971429 L10.1657143,20.9285714 C10.1257143,20.9914286 10.0857143,21.0514286 10.0485714,21.1142857 C9.97714286,21.2285714 9.90571429,21.3428571 9.83714286,21.4571429 L9.73428571,21.6257143 L9.51428571,21.9971429 C9.50869416,22.0091656 9.50199877,22.0206434 9.49428571,22.0314286 C9.31428571,22.3428571 9.14,22.66 8.97142857,22.98 L8.97142857,22.98 C8.89714286,23.12 8.82571429,23.2657143 8.75428571,23.4028571 L8.69142857,23.5285714 C8.62095238,23.667619 8.55238095,23.807619 8.48571429,23.9485714 L8.42857143,24.0657143 C8.12,24.7142857 7.83428571,25.38 7.57142857,26.0657143 C7.56313019,26.089063 7.55359285,26.1119526 7.54285714,26.1342857 C7.48285714,26.2942857 7.42285714,26.4542857 7.36571429,26.6142857 C7.35142857,26.6457143 7.34,26.6771429 7.32857143,26.7085714 C7.27142857,26.8714286 7.21142857,27.0371429 7.15428571,27.2028571 L7.15428571,27.2171429 C7.03142857,27.58 6.91142857,27.9457143 6.79714286,28.3171429 C7.00966393,26.1055162 7.45303055,23.9221989 8.12,21.8028571 C8.12,21.8028571 8.12,21.7714286 8.12,21.7571429 C8.15714286,21.6342857 8.19714286,21.5085714 8.23714286,21.3857143 C8.23714286,21.3542857 8.25428571,21.3257143 8.26571429,21.2942857 C8.3,21.18 8.33714286,21.0685714 8.37428571,20.9542857 L8.41714286,20.8285714 L8.52285714,20.5114286 C8.54,20.46 8.55714286,20.4085714 8.57714286,20.3571429 L8.68,20.0714286 L8.74285714,19.8914286 L8.84571429,19.6057143 C8.86857143,19.54 8.89428571,19.4742857 8.92,19.4057143 C8.94571429,19.3371429 8.98571429,19.2314286 9.01714286,19.1428571 L9.10285714,18.9228571 C9.13428571,18.8371429 9.16571429,18.7542857 9.2,18.6714286 L9.29428571,18.4314286 L9.38857143,18.1971429 L9.49428571,17.94 C9.52571429,17.8657143 9.55714286,17.7914286 9.58571429,17.7171429 L9.70571429,17.4314286 C9.73428571,17.3628571 9.76285714,17.2942857 9.79428571,17.2257143 C9.82571429,17.1571429 9.88,17.0285714 9.92285714,16.94 L10.0085714,16.7485714 C10.0542857,16.64 10.1057143,16.5342857 10.1542857,16.4257143 L10.2314286,16.26 C10.2857143,16.1371429 10.3457143,16.0142857 10.4028571,15.8914286 L10.46,15.7714286 L10.6828571,15.3114286 L10.7,15.2771429 L10.9514286,14.7742857 L10.9514286,14.7742857 C9.93365955,15.3476252 9.0080413,16.0709751 8.20571429,16.92 L7.92,17.2057143 C5.81322746,19.4692777 4.11216034,22.0788693 2.89142857,24.92 C0.954285714,29.5828571 -0.0142857143,34.9485714 0.0054107968,40.3171429 C0.0121091578,41.9135958 0.107495236,43.5084511 0.291428571,45.0942857 C0.291428571,45.1771429 0.311428571,45.26 0.32,45.3428571 C0.365714286,45.7485714 0.411428571,46.1542857 0.462857143,46.5571429 C0.462857143,46.5857143 0.462857143,46.6142857 0.462857143,46.6428571 C2.9690404,61.2098667 13.2760775,73.221945 27.2933554,77.9117895 C41.3106333,82.6016341 56.7711304,79.2107539 67.5389504,69.084907 C78.3067704,58.9590601 82.6404281,43.7359051 78.82,29.4571429 L78.8228571,29.4628571 Z" id="Path"></path>
                </g>
            </g>
        </g>
    </g>
</svg>