<?xml version="1.0" encoding="UTF-8"?>
<svg width="1003px" height="162px" viewBox="0 0 1003 162" version="1.1" xmlns="http://www.w3.org/2000/svg" xmlns:xlink="http://www.w3.org/1999/xlink">
    <!-- Generator: Sketch 55.2 (78181) - https://sketchapp.com -->
    <title>Group 23</title>
    <desc>Created with Sketch.</desc>
    <defs>
        <path d="M73.7875256,56.8536891 L79.5148885,56.8536891 L79.5148885,66.3132163 L61.5691513,66.3132163 L61.5691513,41.892192 C61.5691513,34.3631805 59.0872941,31.4674069 54.2190356,31.4674069 C48.3007606,31.4674069 45.9143594,35.7145415 45.9143594,41.7956662 L45.9143594,56.9511802 L51.6417223,56.9511802 L51.6417223,66.4097421 L33.6005291,66.4097421 L33.6005291,41.892192 C33.6005291,34.3631805 31.1186718,31.4674069 26.2504134,31.4674069 C20.3321384,31.4674069 17.9457371,35.7145415 17.9457371,41.7956662 L17.9457371,56.9511802 L26.1549573,56.9511802 L26.1549573,66.4097421 L0,66.4097421 L0,56.9511802 L5.72736292,56.9511802 L5.72736292,32.336139 L0,32.336139 L0,22.8766117 L18.0411932,22.8766117 L18.0411932,29.4403653 C20.6185065,24.8071275 25.1049408,22.0078797 31.1186718,22.0078797 C37.323315,22.0078797 43.0506779,25.0001791 45.150711,31.3708811 C47.5371122,25.5793338 52.4053707,22.0078797 59.1827501,22.0078797 C66.9146901,22.0078797 73.9784377,26.7376433 73.9784377,37.0659026 L73.9784377,56.8536891 L73.7875256,56.8536891 Z M107.674423,57.7224212 C100.992499,57.7224212 97.5560817,51.9308739 97.5560817,44.4028277 C97.5560817,36.1971705 101.46978,31.4674069 107.769879,31.4674069 C113.592698,31.4674069 118.270044,35.4249642 118.270044,44.2088109 C118.270044,52.6075197 114.069978,57.7224212 107.674423,57.7224212 L107.674423,57.7224212 Z M107.960791,22.0078797 C92.4969111,22.0078797 84.8604272,32.5291905 84.8604272,45.2705946 C84.8604272,59.170308 94.0242079,67.375 107.292599,67.375 C121.03827,67.375 130.965699,58.5911533 130.965699,44.6914398 C130.965699,32.5291905 123.424671,22.0078797 107.960791,22.0078797 L107.960791,22.0078797 Z M169.529942,50.194375 L179.266459,51.1596329 L176.59369,66.4097421 L139.079463,66.4097421 L137.838534,59.8469538 L161.51068,32.336139 L148.052331,32.336139 L146.14321,39.0939094 L137.265798,38.1286515 L138.793095,22.8766117 L176.498234,22.8766117 L177.452794,29.4403653 L153.588782,56.9511802 L167.525365,56.9511802 L169.529942,50.194375 Z M188.334784,66.4097421 L201.22135,66.4097421 L201.22135,50.7725645 L188.334784,50.7725645 L188.334784,66.4097421 Z M188.334784,38.5137894 L201.22135,38.5137894 L201.22135,22.8766117 L188.334784,22.8766117 L188.334784,38.5137894 Z M239.88105,0 L221.267121,66.3132163 L209.144202,66.3132163 L227.758132,0 L239.88105,0 Z M264.890535,0 L246.276605,66.3132163 L234.153687,66.3132163 L252.767617,0 L264.890535,0 Z M281.404431,58.399067 C277.681645,58.399067 276.345261,56.1780086 276.345261,53.3787607 C276.345261,48.6489971 280.163503,47.3941619 284.554481,47.3941619 C286.558103,47.3941619 288.754547,47.6837393 290.759124,47.9733166 C290.472756,55.2127507 285.79541,58.399067 281.404431,58.399067 L281.404431,58.399067 Z M307.750301,58.6876791 C307.081154,58.8816959 306.509372,58.9772564 305.936636,58.9772564 C303.932059,58.9772564 302.977498,58.1085244 302.977498,55.5988539 L302.977498,36.7763252 C302.977498,26.8341691 295.149148,22.0078797 285.890866,22.0078797 C278.827118,22.0078797 275.008876,22.8766117 267.466894,25.965437 L265.940551,36.0041189 L275.772524,37.0659026 L277.204365,32.1430874 C279.208942,31.0813037 281.213519,30.8882521 283.790833,30.8882521 C290.759124,30.8882521 290.853626,36.1971705 290.853626,40.6373567 L290.853626,42.0852436 C288.659091,41.7956662 286.177234,41.6991404 283.790833,41.6991404 C273.958859,41.6991404 263.745062,44.2088109 263.745062,54.9231734 C263.745062,63.9965974 270.807855,67.375 277.012498,67.375 C283.981745,67.375 288.372723,63.1278653 290.853626,58.6876791 C291.427316,63.9965974 294.577366,67.375 300.304729,67.375 C302.977498,67.375 305.745724,66.603759 308.035714,65.3479585 L307.750301,58.6876791 Z" id="path-1"></path>
        <radialGradient cx="89.4219962%" cy="18.9389776%" fx="89.4219962%" fy="18.9389776%" r="113.709095%" gradientTransform="translate(0.894220,0.189390),scale(0.997869,1.000000),translate(-0.894220,-0.189390)" id="radialGradient-3">
            <stop stop-color="#FFF44F" offset="0%"></stop>
            <stop stop-color="#FF980E" offset="29%"></stop>
            <stop stop-color="#FF5D36" offset="43%"></stop>
            <stop stop-color="#FF3750" offset="53%"></stop>
            <stop stop-color="#F5156C" offset="75%"></stop>
            <stop stop-color="#F1136E" offset="76%"></stop>
            <stop stop-color="#DA057A" offset="88%"></stop>
            <stop stop-color="#D2007F" offset="95%"></stop>
        </radialGradient>
        <radialGradient cx="8.29929694%" cy="23.641516%" fx="8.29929694%" fy="23.641516%" r="67.2956857%" gradientTransform="translate(0.082993,0.236415),scale(0.997869,1.000000),translate(-0.082993,-0.236415)" id="radialGradient-4">
            <stop stop-color="#B5007F" offset="0%"></stop>
            <stop stop-color="#F5156C" stop-opacity="0" offset="100%"></stop>
        </radialGradient>
        <radialGradient cx="99.1212941%" cy="12.4685139%" fx="99.1212941%" fy="12.4685139%" r="133.52489%" gradientTransform="translate(0.991213,0.124685),scale(0.997869,1.000000),translate(-0.991213,-0.124685)" id="radialGradient-5">
            <stop stop-color="#FFDD00" stop-opacity="0.6" offset="0%"></stop>
            <stop stop-color="#FFD702" stop-opacity="0.58" offset="9%"></stop>
            <stop stop-color="#FEC606" stop-opacity="0.52" offset="20%"></stop>
            <stop stop-color="#FDA90E" stop-opacity="0.43" offset="32%"></stop>
            <stop stop-color="#FC8119" stop-opacity="0.3" offset="45%"></stop>
            <stop stop-color="#FA4E27" stop-opacity="0.14" offset="57%"></stop>
            <stop stop-color="#F92433" stop-opacity="0" offset="66%"></stop>
        </radialGradient>
        <radialGradient cx="52.8674994%" cy="55.6216398%" fx="52.8674994%" fy="55.6216398%" r="172.258202%" gradientTransform="translate(0.528675,0.556216),scale(0.997869,1.000000),translate(-0.528675,-0.556216)" id="radialGradient-6">
            <stop stop-color="#960E18" offset="15%"></stop>
            <stop stop-color="#B11927" stop-opacity="0.74" offset="18%"></stop>
            <stop stop-color="#DB293D" stop-opacity="0.34" offset="22%"></stop>
            <stop stop-color="#F5334B" stop-opacity="0.09" offset="26%"></stop>
            <stop stop-color="#FF3750" stop-opacity="0" offset="27%"></stop>
        </radialGradient>
        <radialGradient cx="39.8577268%" cy="53.456468%" fx="39.8577268%" fy="53.456468%" r="172.258202%" gradientTransform="translate(0.398577,0.534565),scale(0.997869,1.000000),translate(-0.398577,-0.534565)" id="radialGradient-7">
            <stop stop-color="#960E18" offset="11%"></stop>
            <stop stop-color="#B11927" stop-opacity="0.74" offset="15%"></stop>
            <stop stop-color="#DB293D" stop-opacity="0.34" offset="21%"></stop>
            <stop stop-color="#F5334B" stop-opacity="0.09" offset="26%"></stop>
            <stop stop-color="#FF3750" stop-opacity="0" offset="28%"></stop>
        </radialGradient>
        <linearGradient x1="40.8577655%" y1="37.0805586%" x2="81.6412441%" y2="83.7259018%" id="linearGradient-8">
            <stop stop-color="#FFBC04" offset="0%"></stop>
            <stop stop-color="#FFAB02" stop-opacity="0.62" offset="17%"></stop>
            <stop stop-color="#FF9B01" stop-opacity="0.29" offset="34%"></stop>
            <stop stop-color="#FF9200" stop-opacity="0.08" offset="45%"></stop>
            <stop stop-color="#FF8E00" stop-opacity="0" offset="51%"></stop>
        </linearGradient>
        <radialGradient cx="89.2860183%" cy="16.1265711%" fx="89.2860183%" fy="16.1265711%" r="119.190649%" gradientTransform="translate(0.892860,0.161266),scale(0.999708,1.000000),translate(-0.892860,-0.161266)" id="radialGradient-9">
            <stop stop-color="#FF980E" offset="0%"></stop>
            <stop stop-color="#FF7139" offset="30%"></stop>
            <stop stop-color="#FF5B51" offset="48%"></stop>
            <stop stop-color="#FF4F5E" offset="63%"></stop>
            <stop stop-color="#FF4055" offset="74%"></stop>
            <stop stop-color="#FF3750" offset="84%"></stop>
        </radialGradient>
        <radialGradient cx="89.2860183%" cy="16.1265711%" fx="89.2860183%" fy="16.1265711%" r="119.190649%" gradientTransform="translate(0.892860,0.161266),scale(0.999708,1.000000),translate(-0.892860,-0.161266)" id="radialGradient-10">
            <stop stop-color="#FFDE08" offset="8%"></stop>
            <stop stop-color="#FFDB08" stop-opacity="0.97" offset="15%"></stop>
            <stop stop-color="#FFD209" stop-opacity="0.88" offset="25%"></stop>
            <stop stop-color="#FFC40B" stop-opacity="0.73" offset="37%"></stop>
            <stop stop-color="#FFB00D" stop-opacity="0.53" offset="51%"></stop>
            <stop stop-color="#FF970F" stop-opacity="0.28" offset="67%"></stop>
            <stop stop-color="#FF7B12" stop-opacity="0" offset="82%"></stop>
        </radialGradient>
        <radialGradient cx="62.7023181%" cy="53.4611122%" fx="62.7023181%" fy="53.4611122%" r="58.4851023%" gradientTransform="translate(0.627023,0.534611),scale(0.999708,1.000000),rotate(75.547572),translate(-0.627023,-0.534611)" id="radialGradient-11">
            <stop stop-color="#FF3750" offset="36%"></stop>
            <stop stop-color="#FF4D47" stop-opacity="0.63" offset="44%"></stop>
            <stop stop-color="#FF673D" stop-opacity="0.18" offset="55%"></stop>
            <stop stop-color="#FF7139" stop-opacity="0" offset="59%"></stop>
        </radialGradient>
        <radialGradient cx="52.2060963%" cy="57.7813756%" fx="52.2060963%" fy="57.7813756%" r="58.3859304%" gradientTransform="translate(0.522061,0.577814),scale(0.999708,1.000000),translate(-0.522061,-0.577814)" id="radialGradient-12">
            <stop stop-color="#FF3750" stop-opacity="0.8" offset="22%"></stop>
            <stop stop-color="#FF444B" stop-opacity="0.63" offset="27%"></stop>
            <stop stop-color="#FF643E" stop-opacity="0.18" offset="41%"></stop>
            <stop stop-color="#FF7139" stop-opacity="0" offset="47%"></stop>
        </radialGradient>
        <radialGradient cx="122.043328%" cy="1.80716088%" fx="122.043328%" fy="1.80716088%" r="260.353377%" gradientTransform="translate(1.220433,0.018072),scale(1.000000,0.982914),translate(-1.220433,-0.018072)" id="radialGradient-13">
            <stop stop-color="#FFF44F" offset="5%"></stop>
            <stop stop-color="#FF980E" offset="46%"></stop>
            <stop stop-color="#FF8424" offset="52%"></stop>
            <stop stop-color="#FF7634" offset="59%"></stop>
            <stop stop-color="#FF7139" offset="64%"></stop>
        </radialGradient>
        <linearGradient x1="73.7794193%" y1="8.63601257%" x2="22.7430478%" y2="87.289566%" id="linearGradient-14">
            <stop stop-color="#FFF44F" stop-opacity="0.8" offset="0%"></stop>
            <stop stop-color="#FFF44F" stop-opacity="0.7" offset="9%"></stop>
            <stop stop-color="#FFF44F" stop-opacity="0" offset="75%"></stop>
        </linearGradient>
        <linearGradient x1="49.9973802%" y1="100.410404%" x2="49.9973802%" y2="1.01596242%" id="linearGradient-15">
            <stop stop-color="#3A8EE6" offset="0%"></stop>
            <stop stop-color="#5C79F0" offset="24%"></stop>
            <stop stop-color="#9059FF" offset="63%"></stop>
            <stop stop-color="#C139E6" offset="100%"></stop>
        </linearGradient>
        <linearGradient x1="16.5403294%" y1="8.63530718%" x2="90.3078986%" y2="76.1139571%" id="linearGradient-16">
            <stop stop-color="#9059FF" stop-opacity="0" offset="81%"></stop>
            <stop stop-color="#6E008B" stop-opacity="0.5" offset="100%"></stop>
        </linearGradient>
    </defs>
    <g id="Assets" stroke="none" stroke-width="1" fill="none" fill-rule="evenodd">
        <g id="Group-23" transform="translate(1.000000, 1.000000)">
            <g id="Group-27">
                <g id="Group">
                    <g id="Logo" stroke="#EDEDF0" stroke-width="2">
                        <g id="Grid">
                            <rect id="Rectangle" x="0" y="0" width="902" height="16"></rect>
                            <rect id="Rectangle" x="0" y="16" width="902" height="16"></rect>
                            <rect id="Rectangle" x="0" y="32" width="902" height="16"></rect>
                            <rect id="Rectangle" x="0" y="48" width="902" height="16"></rect>
                            <rect id="Rectangle" x="0" y="64" width="902" height="16"></rect>
                            <rect id="Rectangle" x="0" y="80" width="902" height="16"></rect>
                            <rect id="Rectangle" x="0" y="96" width="902" height="16"></rect>
                            <rect id="Rectangle" x="0" y="112" width="902" height="16"></rect>
                            <rect id="Rectangle" x="0" y="128" width="902" height="16"></rect>
                            <rect id="Rectangle" x="0" y="144" width="902" height="16"></rect>
                            <polygon id="Rectangle" transform="translate(168.000000, 80.000000) rotate(-270.000000) translate(-168.000000, -80.000000) " points="88 72 248 72 248 88 88 88"></polygon>
                            <polygon id="Rectangle" transform="translate(184.000000, 80.000000) rotate(-270.000000) translate(-184.000000, -80.000000) " points="104 72 264 72 264 88 104 88"></polygon>
                        </g>
                    </g>
                    <g id="Assets-/-Logos-/-Mozilla-/-Logotype" transform="translate(556.500000, 31.000000)">
                        <g id="background" fill="#000000">
                            <rect id="Base" x="0" y="0" width="345" height="98"></rect>
                        </g>
                        <g id="logotype" transform="translate(21.562500, 12.250000)">
                            <mask id="mask-2" fill="white">
                                <use xlink:href="#path-1"></use>
                            </mask>
                            <use id="Mask" fill="#FFFFFF" xlink:href="#path-1"></use>
                            <g mask="url(#mask-2)" fill="#FFFFFF" id="Base">
                                <g transform="translate(-21.562500, -12.250000)">
                                    <rect x="0" y="0" width="345" height="98"></rect>
                                </g>
                            </g>
                        </g>
                    </g>
                </g>
                <path id="Path-4" d="M927.5,65 L927.5,111 L932.5,111 L932.5,113 L920.5,113 L920.5,111 L925.5,111 L925.5,65 L920.5,65 L920.5,63 L932.5,63 L932.5,65 L927.5,65 Z" fill="#CDCDD4" fill-rule="nonzero"></path>
                <path d="M945.86,83.144 C943.544,83.144 941.576,81.188 941.576,78.872 C941.576,76.556 943.544,74.612 945.86,74.612 C947.036,74.612 948.116,75.104 948.896,75.908 L948.044,76.724 C947.492,76.124 946.712,75.728 945.86,75.728 C944.216,75.728 942.824,77.168 942.824,78.872 C942.824,80.588 944.216,82.028 945.86,82.028 C946.712,82.028 947.492,81.632 948.044,81.032 L948.896,81.848 C948.116,82.64 947.036,83.144 945.86,83.144 Z M953.024,83.144 C951.248,83.144 949.748,81.656 949.748,79.892 C949.748,78.128 951.248,76.652 953.024,76.652 C954.788,76.652 956.276,78.128 956.276,79.892 C956.276,81.656 954.788,83.144 953.024,83.144 Z M953.024,82.112 C954.14,82.112 955.088,81.104 955.088,79.892 C955.088,78.692 954.14,77.684 953.024,77.684 C951.884,77.684 950.936,78.692 950.936,79.892 C950.936,81.104 951.884,82.112 953.024,82.112 Z M960.824,76.652 C962.192,76.652 963.152,77.648 963.152,79.052 L963.152,83 L961.988,83 L961.988,79.256 C961.988,78.332 961.4,77.684 960.56,77.684 C959.696,77.684 958.952,78.248 958.856,78.98 L958.856,83 L957.668,83 L957.668,76.796 L958.856,76.796 L958.856,77.696 C959.228,77.084 959.984,76.652 960.824,76.652 Z M967.1,83.144 C966.188,83.144 965.192,82.82 964.448,82.22 L965.012,81.368 C965.672,81.848 966.38,82.124 967.112,82.124 C967.808,82.124 968.288,81.8 968.288,81.32 C968.288,80.744 967.652,80.564 966.884,80.348 C965.456,79.952 964.748,79.544 964.748,78.536 C964.736,77.396 965.684,76.652 967.004,76.652 C967.808,76.652 968.624,76.928 969.296,77.372 L968.768,78.248 C968.168,77.876 967.544,77.672 967.004,77.672 C966.392,77.672 965.912,77.936 965.912,78.404 C965.912,78.884 966.296,79.028 967.34,79.352 C968.36,79.652 969.452,79.988 969.452,81.224 C969.452,82.4 968.456,83.144 967.1,83.144 Z M971.42,75.764 C971.012,75.764 970.7,75.428 970.7,75.044 C970.7,74.672 971.012,74.336 971.42,74.336 C971.804,74.336 972.128,74.672 972.128,75.044 C972.128,75.428 971.804,75.764 971.42,75.764 Z M970.82,83 L970.82,76.796 L972.008,76.796 L972.008,83 L970.82,83 Z M975.968,83.144 C975.056,83.144 974.06,82.82 973.316,82.22 L973.88,81.368 C974.54,81.848 975.248,82.124 975.98,82.124 C976.676,82.124 977.156,81.8 977.156,81.32 C977.156,80.744 976.52,80.564 975.752,80.348 C974.324,79.952 973.616,79.544 973.616,78.536 C973.604,77.396 974.552,76.652 975.872,76.652 C976.676,76.652 977.492,76.928 978.164,77.372 L977.636,78.248 C977.036,77.876 976.412,77.672 975.872,77.672 C975.26,77.672 974.78,77.936 974.78,78.404 C974.78,78.884 975.164,79.028 976.208,79.352 C977.228,79.652 978.32,79.988 978.32,81.224 C978.32,82.4 977.324,83.144 975.968,83.144 Z M982.604,81.884 L983.036,82.7 C982.7,82.976 982.244,83.144 981.8,83.144 C980.84,83.144 980.168,82.448 980.168,81.452 L980.168,77.804 L979.232,77.804 L979.232,76.796 L980.168,76.796 L980.168,75.092 L981.332,75.092 L981.332,76.796 L982.796,76.796 L982.796,77.804 L981.332,77.804 L981.332,81.368 C981.332,81.8 981.62,82.112 981.968,82.112 C982.232,82.112 982.472,82.016 982.604,81.884 Z M987.092,82.088 C987.74,82.088 988.496,81.8 988.868,81.416 L989.612,82.184 C989.06,82.772 987.98,83.144 987.104,83.144 C985.376,83.144 983.912,81.788 983.912,79.88 C983.912,78.02 985.292,76.652 987.008,76.652 C988.904,76.652 989.996,78.092 989.996,80.312 L985.112,80.312 C985.268,81.344 986.024,82.088 987.092,82.088 Z M987.056,77.708 C986.096,77.708 985.316,78.356 985.124,79.364 L988.844,79.364 C988.712,78.404 988.124,77.708 987.056,77.708 Z M994.532,76.652 C995.9,76.652 996.86,77.648 996.86,79.052 L996.86,83 L995.696,83 L995.696,79.256 C995.696,78.332 995.108,77.684 994.268,77.684 C993.404,77.684 992.66,78.248 992.564,78.98 L992.564,83 L991.376,83 L991.376,76.796 L992.564,76.796 L992.564,77.696 C992.936,77.084 993.692,76.652 994.532,76.652 Z M1001.468,81.884 L1001.9,82.7 C1001.564,82.976 1001.108,83.144 1000.664,83.144 C999.704,83.144 999.032,82.448 999.032,81.452 L999.032,77.804 L998.096,77.804 L998.096,76.796 L999.032,76.796 L999.032,75.092 L1000.196,75.092 L1000.196,76.796 L1001.66,76.796 L1001.66,77.804 L1000.196,77.804 L1000.196,81.368 C1000.196,81.8 1000.484,82.112 1000.832,82.112 C1001.096,82.112 1001.336,82.016 1001.468,81.884 Z M947.36,101 L946.028,101 L944.336,98.72 L942.632,101 L941.312,101 L943.676,97.832 L941.408,94.796 L942.752,94.796 L944.336,96.932 L945.932,94.796 L947.252,94.796 L944.996,97.82 L947.36,101 Z M948.296,98.264 L948.296,97.184 L951.464,97.184 L951.464,98.264 L948.296,98.264 Z M956.12,94.652 C957.488,94.652 958.448,95.648 958.448,97.052 L958.448,101 L957.284,101 L957.284,97.256 C957.284,96.332 956.696,95.684 955.856,95.684 C954.92,95.684 954.14,96.344 954.14,97.148 L954.14,101 L952.964,101 L952.964,92.612 L954.14,92.612 L954.14,95.72 C954.512,95.096 955.268,94.652 956.12,94.652 Z M962.996,100.088 C963.644,100.088 964.4,99.8 964.772,99.416 L965.516,100.184 C964.964,100.772 963.884,101.144 963.008,101.144 C961.28,101.144 959.816,99.788 959.816,97.88 C959.816,96.02 961.196,94.652 962.912,94.652 C964.808,94.652 965.9,96.092 965.9,98.312 L961.016,98.312 C961.172,99.344 961.928,100.088 962.996,100.088 Z M962.96,95.708 C962,95.708 961.22,96.356 961.028,97.364 L964.748,97.364 C964.616,96.404 964.028,95.708 962.96,95.708 Z M967.868,93.764 C967.46,93.764 967.148,93.428 967.148,93.044 C967.148,92.672 967.46,92.336 967.868,92.336 C968.252,92.336 968.576,92.672 968.576,93.044 C968.576,93.428 968.252,93.764 967.868,93.764 Z M967.268,101 L967.268,94.796 L968.456,94.796 L968.456,101 L967.268,101 Z M974.888,94.796 L976.076,94.796 L976.076,100.34 C976.076,101.936 974.768,103.064 972.932,103.064 C971.888,103.064 970.928,102.716 970.34,102.236 L970.808,101.348 C971.264,101.78 972.008,102.032 972.752,102.032 C974.084,102.032 974.888,101.396 974.888,100.316 L974.888,99.416 C974.396,100.124 973.628,100.544 972.692,100.544 C971.06,100.544 969.872,99.32 969.872,97.592 C969.872,95.864 971.06,94.652 972.692,94.652 C973.628,94.652 974.42,95.096 974.888,95.792 L974.888,94.796 Z M972.992,99.512 C974.096,99.512 974.888,98.72 974.888,97.592 C974.888,96.476 974.096,95.684 972.992,95.684 C971.888,95.684 971.108,96.476 971.108,97.592 C971.108,98.72 971.888,99.512 972.992,99.512 Z M981.008,94.652 C982.376,94.652 983.336,95.648 983.336,97.052 L983.336,101 L982.172,101 L982.172,97.256 C982.172,96.332 981.584,95.684 980.744,95.684 C979.808,95.684 979.028,96.344 979.028,97.148 L979.028,101 L977.852,101 L977.852,92.612 L979.028,92.612 L979.028,95.72 C979.4,95.096 980.156,94.652 981.008,94.652 Z M987.944,99.884 L988.376,100.7 C988.04,100.976 987.584,101.144 987.14,101.144 C986.18,101.144 985.508,100.448 985.508,99.452 L985.508,95.804 L984.572,95.804 L984.572,94.796 L985.508,94.796 L985.508,93.092 L986.672,93.092 L986.672,94.796 L988.136,94.796 L988.136,95.804 L986.672,95.804 L986.672,99.368 C986.672,99.8 986.96,100.112 987.308,100.112 C987.572,100.112 987.812,100.016 987.944,99.884 Z" id="Consistentx-height" fill="#5E5E72" fill-rule="nonzero"></path>
            </g>
            <g id="FF_Master__logo-and-wordmark-horizontal-Copy-2" transform="translate(0.000000, 0.000000)" fill-rule="nonzero">
                <path d="M192.051246,47.7266904 L234.681851,47.7266904 L234.681851,59.2626335 L204.281851,59.2626335 L204.281851,74.8982206 L234.681851,74.8982206 L234.681851,86.3430605 L204.281851,86.3430605 L204.281851,111.504626 L192.051246,111.504626 L192.051246,47.7266904 Z M249.184342,43.2740214 C253.375089,43.2740214 256.261922,46.3316726 256.261922,50.4370107 C256.261922,54.5423488 253.466192,57.6 249.093238,57.6 C244.902491,57.6 242.021352,54.633452 242.021352,50.6135231 C242.021352,46.2462633 245.249822,43.2740214 249.184342,43.2740214 Z M243.131673,64.341637 L255.185765,64.341637 L255.185765,111.516014 L243.131673,111.516014 L243.131673,64.341637 Z M290.135231,77.4377224 C288.465516,76.1183696 286.409535,75.3823763 284.281851,75.3423488 C279.385053,75.3423488 276.589324,78.4854093 276.589324,85.3864769 L276.589324,111.51032 L264.632028,111.51032 L264.632028,64.341637 L276.076868,64.341637 L276.076868,71.1743772 C278.525267,65.8448399 282.283274,63.9259081 287.35089,63.9259081 C290.213178,63.9169837 293.012174,64.7679895 295.385053,66.3686833 L290.135231,77.4377224 Z M295.111744,88.1822064 C295.111744,74.6419929 305.155872,63.3736655 319.396441,63.3736655 C333.637011,63.3736655 343.59573,73.4177936 343.59573,87.3964413 L343.59573,92.3786477 L306.903915,92.3786477 C308.213523,98.3174377 312.848399,102.246263 319.920285,102.246263 C325.426335,102.246263 329.184342,99.6270463 331.627046,95.2597865 L341.676868,101.28968 C336.694662,108.623488 329.617082,112.466904 319.572954,112.466904 C304.307473,112.46121 295.13452,102.240569 295.13452,88.1765125 L295.111744,88.1822064 Z M307.069039,82.852669 L331.87758,82.852669 C330.567972,76.8284698 325.676868,73.5088893 319.299644,73.5088893 C313.565836,73.5032028 308.765836,76.7316726 307.103203,82.8469751 L307.069039,82.852669 Z M346.590747,64.341637 L355.063345,64.341637 L355.063345,61.9786477 C355.063345,49.13879 360.478292,43.8092527 372.361566,43.8092527 L376.558007,43.8092527 L376.558007,54.2064057 L373.141637,54.2064057 C367.550178,54.2064057 366.308897,56.1252669 366.308897,61.9786477 L366.308897,64.341637 L376.558007,64.341637 L376.558007,75.1601423 L366.593594,75.1601423 L366.593594,111.504626 L355.063345,111.504626 L355.063345,75.1601423 L346.590747,75.1601423 L346.590747,64.341637 Z M378.824199,87.9259786 C378.824199,74.3857651 389.135943,63.3793594 403.461922,63.3793594 C412.231584,63.3793594 420.335087,68.0579183 424.719918,75.6526688 C429.104749,83.2474194 429.104749,92.6045379 424.719918,100.199288 C420.335087,107.794039 412.231584,112.472598 403.461922,112.472598 C388.788612,112.46121 378.824199,101.716726 378.824199,87.9145907 L378.824199,87.9259786 Z M416.40427,87.9259786 C416.40427,80.4156584 410.812811,74.5622776 403.47331,74.5622776 C396.071174,74.5622776 390.542349,80.4156584 390.542349,87.9259786 C390.542349,95.4362989 396.048399,101.295374 403.47331,101.295374 C410.801423,101.283986 416.392883,95.430605 416.392883,87.9145907 L416.40427,87.9259786 Z M444.361566,87.4021352 L427.313879,64.341637 L441.463345,64.341637 L451.530249,78.8327402 L461.819217,64.341637 L475.712456,64.341637 L458.414235,87.316726 L476.58363,111.504626 L462.519573,111.504626 L451.251246,96.1309609 L440.330249,111.504626 L426.266192,111.504626 L444.361566,87.4021352 Z" id="Shape" fill="#20133A"></path>
                <path d="M143.948754,31.5957295 C129.537367,12.6633452 107.074733,0.848398577 83.4505338,0.392882562 C64.9395018,0.0284697509 52.1338078,5.57437722 44.919573,10.0384342 C54.5992883,4.43558719 68.6064057,1.25836299 80.8711744,1.41779359 C112.421352,1.81637011 146.300356,23.2483986 151.333808,61.8818505 C157.107473,106.232028 126.149466,143.242705 82.5907473,143.356584 C34.6704626,143.476157 5.52882562,101.147331 13.1245552,63.1288256 C13.5060498,61.2327402 13.3124555,59.3822064 13.9501779,57.5886121 C14.3088968,50.9039146 16.8427046,40.4270463 22.3032028,29.7224199 C16.7857651,32.569395 9.77651246,41.5772242 6.29181495,49.9245552 C1.28683274,61.9558719 -0.472597865,76.344484 1.11032028,90.0327402 C1.22989324,91.0633452 1.33807829,92.0939502 1.4747331,93.1131673 C7.05850561,125.735208 32.1927318,151.52864 64.6593154,157.954917 C97.1258989,164.381195 130.190832,150.10742 147.780792,122.072275 C165.370753,94.0371292 163.837344,58.0554795 143.925979,31.6185053 L143.948754,31.5957295 Z" id="Path" fill="url(#radialGradient-3)"></path>
                <g id="Group" opacity="0.67" fill="url(#radialGradient-4)">
                    <path d="M143.948754,31.5957295 C129.537367,12.6633452 107.074733,0.848398577 83.4505338,0.392882562 C64.9395018,0.0284697509 52.1338078,5.57437722 44.919573,10.0384342 C54.5992883,4.43558719 68.6064057,1.25836299 80.8711744,1.41779359 C112.421352,1.81637011 146.300356,23.2483986 151.333808,61.8818505 C157.107473,106.232028 126.149466,143.242705 82.5907473,143.356584 C34.6704626,143.476157 5.52882562,101.147331 13.1245552,63.1288256 C13.5060498,61.2327402 13.3124555,59.3822064 13.9501779,57.5886121 C14.3088968,50.9039146 16.8427046,40.4270463 22.3032028,29.7224199 C16.7857651,32.569395 9.77651246,41.5772242 6.29181495,49.9245552 C1.28683274,61.9558719 -0.472597865,76.344484 1.11032028,90.0327402 C1.22989324,91.0633452 1.33807829,92.0939502 1.4747331,93.1131673 C7.05850561,125.735208 32.1927318,151.52864 64.6593154,157.954917 C97.1258989,164.381195 130.190832,150.10742 147.780792,122.072275 C165.370753,94.0371292 163.837344,58.0554795 143.925979,31.6185053 L143.948754,31.5957295 Z" id="Path"></path>
                </g>
                <path d="M143.948754,31.5957295 C129.537367,12.6633452 107.074733,0.848398577 83.4505338,0.392882562 C64.9395018,0.0284697509 52.1338078,5.57437722 44.919573,10.0384342 C54.5992883,4.43558719 68.6064057,1.25836299 80.8711744,1.41779359 C112.421352,1.81637011 146.300356,23.2483986 151.333808,61.8818505 C157.107473,106.232028 126.149466,143.242705 82.5907473,143.356584 C34.6704626,143.476157 5.52882562,101.147331 13.1245552,63.1288256 C13.5060498,61.2327402 13.3124555,59.3822064 13.9501779,57.5886121 C14.3088968,50.9039146 16.8427046,40.4270463 22.3032028,29.7224199 C16.7857651,32.569395 9.77651246,41.5772242 6.29181495,49.9245552 C1.28683274,61.9558719 -0.472597865,76.344484 1.11032028,90.0327402 C1.22989324,91.0633452 1.33807829,92.0939502 1.4747331,93.1131673 C7.05850561,125.735208 32.1927318,151.52864 64.6593154,157.954917 C97.1258989,164.381195 130.190832,150.10742 147.780792,122.072275 C165.370753,94.0371292 163.837344,58.0554795 143.925979,31.6185053 L143.948754,31.5957295 Z" id="Path" fill="url(#radialGradient-5)"></path>
                <path d="M143.948754,31.5957295 C129.537367,12.6633452 107.074733,0.848398577 83.4505338,0.392882562 C64.9395018,0.0284697509 52.1338078,5.57437722 44.919573,10.0384342 C54.5992883,4.43558719 68.6064057,1.25836299 80.8711744,1.41779359 C112.421352,1.81637011 146.300356,23.2483986 151.333808,61.8818505 C157.107473,106.232028 126.149466,143.242705 82.5907473,143.356584 C34.6704626,143.476157 5.52882562,101.147331 13.1245552,63.1288256 C13.5060498,61.2327402 13.3124555,59.3822064 13.9501779,57.5886121 C14.3088968,50.9039146 16.8427046,40.4270463 22.3032028,29.7224199 C16.7857651,32.569395 9.77651246,41.5772242 6.29181495,49.9245552 C1.28683274,61.9558719 -0.472597865,76.344484 1.11032028,90.0327402 C1.22989324,91.0633452 1.33807829,92.0939502 1.4747331,93.1131673 C7.05850561,125.735208 32.1927318,151.52864 64.6593154,157.954917 C97.1258989,164.381195 130.190832,150.10742 147.780792,122.072275 C165.370753,94.0371292 163.837344,58.0554795 143.925979,31.6185053 L143.948754,31.5957295 Z" id="Path" fill="url(#radialGradient-6)"></path>
                <path d="M143.948754,31.5957295 C129.537367,12.6633452 107.074733,0.848398577 83.4505338,0.392882562 C64.9395018,0.0284697509 52.1338078,5.57437722 44.919573,10.0384342 C54.5992883,4.43558719 68.6064057,1.25836299 80.8711744,1.41779359 C112.421352,1.81637011 146.300356,23.2483986 151.333808,61.8818505 C157.107473,106.232028 126.149466,143.242705 82.5907473,143.356584 C34.6704626,143.476157 5.52882562,101.147331 13.1245552,63.1288256 C13.5060498,61.2327402 13.3124555,59.3822064 13.9501779,57.5886121 C14.3088968,50.9039146 16.8427046,40.4270463 22.3032028,29.7224199 C16.7857651,32.569395 9.77651246,41.5772242 6.29181495,49.9245552 C1.28683274,61.9558719 -0.472597865,76.344484 1.11032028,90.0327402 C1.22989324,91.0633452 1.33807829,92.0939502 1.4747331,93.1131673 C7.05850561,125.735208 32.1927318,151.52864 64.6593154,157.954917 C97.1258989,164.381195 130.190832,150.10742 147.780792,122.072275 C165.370753,94.0371292 163.837344,58.0554795 143.925979,31.6185053 L143.948754,31.5957295 Z" id="Path" fill="url(#radialGradient-7)"></path>
                <path d="M151.333808,61.8818505 C151.960518,66.6564643 152.160597,71.4774202 151.931673,76.2875445 C154.579359,75.9003559 157.227046,75.541637 159.903203,75.2341637 C159.05677,59.4241687 153.504878,44.2278476 143.960142,31.5957295 C129.548754,12.6633452 107.086121,0.848398577 83.4619217,0.392882562 C64.9508897,0.0284697509 52.1451957,5.57437722 44.9309609,10.0384342 C54.6106762,4.43558719 68.6177936,1.25836299 80.8825623,1.41779359 C112.421352,1.81637011 146.300356,23.2483986 151.333808,61.8818505 Z" id="Path" fill="url(#linearGradient-8)"></path>
                <path d="M153.275445,59.6782918 C148.788612,19.3024911 112.694662,1.13879004 80.8540925,1.41779359 C68.5893238,1.51459075 54.5822064,4.43558719 44.9024911,10.0384342 C42.3434394,11.5560811 39.9635395,13.3572413 37.8078292,15.4078292 C38.0640569,15.197153 38.8327402,14.5651246 40.0854093,13.6996441 L40.2106762,13.6085409 L40.3245552,13.5345196 C45.0330506,10.3621302 50.2195933,7.96494018 55.6868327,6.4341637 C64.0967972,3.97437722 73.2014235,3.14875445 81.9587189,3.37081851 C117.950178,5.43772242 143.35089,35.2569395 144.233452,66.966548 C144.967972,93.2213523 123.427758,114.163701 98.5964413,115.365125 C80.5352313,116.241993 63.5217082,107.524555 55.2085409,90.0839858 C53.2667218,86.1129832 51.9473756,81.8668777 51.2967972,77.4946619 C47.3565836,50.9551601 65.2241993,28.3160142 81.6113879,22.7131673 C72.7686833,15.0092527 50.624911,15.5330961 34.1409253,27.6327402 C22.2690391,36.344484 14.5708185,49.6 12.0199288,65.4120996 C10.0725979,77.4718861 11.9060498,90.0099644 16.683274,101.20427 C27.054832,125.566279 50.2289507,142.039687 76.6462633,143.829181 C78.6220641,143.977224 80.6320285,144.051246 82.5907473,144.051246 C135.328114,144.05694 158.2121,104.125267 153.275445,59.6782918 Z" id="Path" fill="url(#radialGradient-9)"></path>
                <path d="M153.275445,59.6782918 C148.788612,19.3024911 112.694662,1.13879004 80.8540925,1.41779359 C68.5893238,1.51459075 54.5822064,4.43558719 44.9024911,10.0384342 C42.3434394,11.5560811 39.9635395,13.3572413 37.8078292,15.4078292 C38.0640569,15.197153 38.8327402,14.5651246 40.0854093,13.6996441 L40.2106762,13.6085409 L40.3245552,13.5345196 C45.0330506,10.3621302 50.2195933,7.96494018 55.6868327,6.4341637 C64.0967972,3.97437722 73.2014235,3.14875445 81.9587189,3.37081851 C117.950178,5.43772242 143.35089,35.2569395 144.233452,66.966548 C144.967972,93.2213523 123.427758,114.163701 98.5964413,115.365125 C80.5352313,116.241993 63.5217082,107.524555 55.2085409,90.0839858 C53.2667218,86.1129832 51.9473756,81.8668777 51.2967972,77.4946619 C47.3565836,50.9551601 65.2241993,28.3160142 81.6113879,22.7131673 C72.7686833,15.0092527 50.624911,15.5330961 34.1409253,27.6327402 C22.2690391,36.344484 14.5708185,49.6 12.0199288,65.4120996 C10.0725979,77.4718861 11.9060498,90.0099644 16.683274,101.20427 C27.054832,125.566279 50.2289507,142.039687 76.6462633,143.829181 C78.6220641,143.977224 80.6320285,144.051246 82.5907473,144.051246 C135.328114,144.05694 158.2121,104.125267 153.275445,59.6782918 Z" id="Path" fill="url(#radialGradient-10)"></path>
                <path d="M153.275445,59.6782918 C148.788612,19.3024911 112.694662,1.13879004 80.8540925,1.41779359 C68.5893238,1.51459075 54.5822064,4.43558719 44.9024911,10.0384342 C42.3434394,11.5560811 39.9635395,13.3572413 37.8078292,15.4078292 C38.0640569,15.197153 38.8327402,14.5651246 40.0854093,13.6996441 L40.2106762,13.6085409 L40.3245552,13.5345196 C45.0330506,10.3621302 50.2195933,7.96494018 55.6868327,6.4341637 C64.0967972,3.97437722 73.2014235,3.14875445 81.9587189,3.37081851 C117.950178,5.43772242 143.35089,35.2569395 144.233452,66.966548 C144.967972,93.2213523 123.427758,114.163701 98.5964413,115.365125 C80.5352313,116.241993 63.5217082,107.524555 55.2085409,90.0839858 C53.2667218,86.1129832 51.9473756,81.8668777 51.2967972,77.4946619 C47.3565836,50.9551601 65.2241993,28.3160142 81.6113879,22.7131673 C72.7686833,15.0092527 50.624911,15.5330961 34.1409253,27.6327402 C22.2690391,36.344484 14.5708185,49.6 12.0199288,65.4120996 C10.0725979,77.4718861 11.9060498,90.0099644 16.683274,101.20427 C27.054832,125.566279 50.2289507,142.039687 76.6462633,143.829181 C78.6220641,143.977224 80.6320285,144.051246 82.5907473,144.051246 C135.328114,144.05694 158.2121,104.125267 153.275445,59.6782918 Z" id="Path" fill="url(#radialGradient-11)" opacity="0.53" style="mix-blend-mode: multiply;"></path>
                <path d="M153.275445,59.6782918 C148.788612,19.3024911 112.694662,1.13879004 80.8540925,1.41779359 C68.5893238,1.51459075 54.5822064,4.43558719 44.9024911,10.0384342 C42.3434394,11.5560811 39.9635395,13.3572413 37.8078292,15.4078292 C38.0640569,15.197153 38.8327402,14.5651246 40.0854093,13.6996441 L40.2106762,13.6085409 L40.3245552,13.5345196 C45.0330506,10.3621302 50.2195933,7.96494018 55.6868327,6.4341637 C64.0967972,3.97437722 73.2014235,3.14875445 81.9587189,3.37081851 C117.950178,5.43772242 143.35089,35.2569395 144.233452,66.966548 C144.967972,93.2213523 123.427758,114.163701 98.5964413,115.365125 C80.5352313,116.241993 63.5217082,107.524555 55.2085409,90.0839858 C53.2667218,86.1129832 51.9473756,81.8668777 51.2967972,77.4946619 C47.3565836,50.9551601 65.2241993,28.3160142 81.6113879,22.7131673 C72.7686833,15.0092527 50.624911,15.5330961 34.1409253,27.6327402 C22.2690391,36.344484 14.5708185,49.6 12.0199288,65.4120996 C10.0725979,77.4718861 11.9060498,90.0099644 16.683274,101.20427 C27.054832,125.566279 50.2289507,142.039687 76.6462633,143.829181 C78.6220641,143.977224 80.6320285,144.051246 82.5907473,144.051246 C135.328114,144.05694 158.2121,104.125267 153.275445,59.6782918 Z" id="Path" fill="url(#radialGradient-12)" opacity="0.53" style="mix-blend-mode: multiply;"></path>
                <path d="M98.5964413,115.376512 C132.680427,113.303915 147.262633,85.1587189 148.173665,65.1843416 C149.602847,33.9814947 131.046263,0.33594306 81.9587189,3.37081851 C73.2014235,3.14875445 64.0967972,3.97437722 55.6868327,6.4341637 C50.2560442,8.03416046 45.0910521,10.4267107 40.3587189,13.5345196 L40.2448399,13.6085409 L40.119573,13.6996441 C39.3603796,14.2310795 38.6144721,14.7890866 37.8818505,15.3736655 C39.2483986,14.4398577 56.1765125,4.46405694 79.6925267,7.54448399 C107.871886,11.2341637 133.637011,33.1103203 133.637011,61.9672598 C133.637011,84.1736655 116.435587,101.124555 96.2960854,99.9174377 C66.3743772,98.1181495 58.8355872,67.5074733 74.397153,54.280427 C70.2007117,53.375089 62.3088968,55.1459075 56.8199288,63.3338078 C51.888968,70.6846975 52.1679715,82.0441281 55.2085409,90.0953737 C63.5217082,107.535943 80.5466192,116.469751 98.5964413,115.376512 Z" id="Path" fill="url(#radialGradient-13)"></path>
                <path d="M143.94306,31.5957295 C141.809164,28.8050477 139.492324,26.159133 137.007829,23.6754448 C135.030915,21.5951406 132.915528,19.6509626 130.676157,17.8562278 C131.96352,18.9794296 133.193094,20.1671946 134.360142,21.4149466 C138.719839,26.0583544 142.037496,31.5793709 144.091103,37.6085409 C148.253381,50.1921708 147.980071,65.941637 140.031317,78.3088968 C130.562278,93.0448399 115.137367,100.321708 98.4654804,99.9459075 C97.7423488,99.9459075 97.0192171,99.9459075 96.2903915,99.8946619 C66.3686833,98.0953737 58.8298932,67.4846975 74.3914591,54.2576512 C70.1950178,53.3523132 62.3032028,55.1231317 56.8142349,63.311032 C51.883274,70.6619217 52.1622776,82.0213523 55.202847,90.0725979 C53.2610278,86.1015953 51.9416816,81.8554898 51.2911032,77.483274 C47.3508897,50.9437722 65.2185053,28.3046263 81.605694,22.7017794 C72.7629893,14.9978648 50.6192171,15.5217082 34.1352313,27.6213523 C24.5295374,34.6704626 17.6569395,44.7032028 14.0298932,56.6604982 C14.5651246,49.9530249 17.1046263,39.9430605 22.3202847,29.716726 C16.802847,32.5637011 9.79359431,41.5715302 6.3088968,49.9188612 C1.30391459,61.9501779 -0.455516014,76.33879 1.12740214,90.0270463 C1.24697509,91.0576512 1.35516014,92.0882562 1.49181495,93.1074733 C7.08021601,125.723264 32.2130611,151.50919 64.6747932,157.932271 C97.1365252,164.355352 130.195431,150.08361 147.783574,122.053675 C165.371717,94.0237404 163.841778,58.0482881 143.937367,31.6128114 L143.94306,31.5957295 Z" id="Path" fill="url(#linearGradient-14)"></path>
                <path d="M144.085409,37.6085409 C142.041089,31.5801678 138.730983,26.0587933 134.377224,21.4149466 C129.292527,15.9259786 122.95516,11.7352313 116.253381,8.50676157 C110.580905,5.71901737 104.601357,3.60544109 98.4370107,2.20925267 C87.5636442,-0.166482571 76.3125714,-0.232437135 65.4120996,2.01565836 C54.0868327,4.39572954 44.1281139,9.28683274 37.830605,15.4021352 C42.5508897,12.5551601 49.13879,10.2149466 53.830605,9.03060498 C75.6156584,3.54163701 99.6042705,9.486121 115.957295,25.1330961 C119.267521,28.2688415 122.166151,31.8122489 124.58363,35.6782918 C134.337367,51.5017794 133.414947,71.3964413 125.807829,83.1259786 C120.159431,91.8434164 108.059786,100.019929 96.7686833,99.9288256 C114.08968,100.834164 130.243416,93.5516014 140.042705,78.2918149 C147.980071,65.941637 148.253381,50.1921708 144.085409,37.6085409 Z" id="Path" fill="url(#linearGradient-15)"></path>
                <path d="M144.085409,37.6085409 C142.041089,31.5801678 138.730983,26.0587933 134.377224,21.4149466 C129.292527,15.9259786 122.95516,11.7352313 116.253381,8.50676157 C110.580905,5.71901737 104.601357,3.60544109 98.4370107,2.20925267 C87.5636442,-0.166482571 76.3125714,-0.232437135 65.4120996,2.01565836 C54.0868327,4.39572954 44.1281139,9.28683274 37.830605,15.4021352 C42.5508897,12.5551601 49.13879,10.2149466 53.830605,9.03060498 C75.6156584,3.54163701 99.6042705,9.486121 115.957295,25.1330961 C119.267521,28.2688415 122.166151,31.8122489 124.58363,35.6782918 C134.337367,51.5017794 133.414947,71.3964413 125.807829,83.1259786 C120.159431,91.8434164 108.059786,100.019929 96.7686833,99.9288256 C114.08968,100.834164 130.243416,93.5516014 140.042705,78.2918149 C147.980071,65.941637 148.253381,50.1921708 144.085409,37.6085409 Z" id="Path" fill="url(#linearGradient-16)"></path>
            </g>
        </g>
    </g>
</svg>