<?xml version="1.0" encoding="UTF-8"?>
<svg width="344px" height="439px" viewBox="0 0 344 439" version="1.1" xmlns="http://www.w3.org/2000/svg" xmlns:xlink="http://www.w3.org/1999/xlink">
    <!-- Generator: Sketch 55.2 (78181) - https://sketchapp.com -->
    <title>Group 37</title>
    <desc>Created with Sketch.</desc>
    <defs>
        <radialGradient cx="89.4219962%" cy="18.9389776%" fx="89.4219962%" fy="18.9389776%" r="113.709095%" gradientTransform="translate(0.894220,0.189390),scale(0.997869,1.000000),translate(-0.894220,-0.189390)" id="radialGradient-1">
            <stop stop-color="#FFF44F" offset="0%"></stop>
            <stop stop-color="#FF980E" offset="29%"></stop>
            <stop stop-color="#FF5D36" offset="43%"></stop>
            <stop stop-color="#FF3750" offset="53%"></stop>
            <stop stop-color="#F5156C" offset="75%"></stop>
            <stop stop-color="#F1136E" offset="76%"></stop>
            <stop stop-color="#DA057A" offset="88%"></stop>
            <stop stop-color="#D2007F" offset="95%"></stop>
        </radialGradient>
        <radialGradient cx="8.29929694%" cy="23.641516%" fx="8.29929694%" fy="23.641516%" r="67.2956857%" gradientTransform="translate(0.082993,0.236415),scale(0.997869,1.000000),translate(-0.082993,-0.236415)" id="radialGradient-2">
            <stop stop-color="#B5007F" offset="0%"></stop>
            <stop stop-color="#F5156C" stop-opacity="0" offset="100%"></stop>
        </radialGradient>
        <radialGradient cx="99.1212941%" cy="12.4685139%" fx="99.1212941%" fy="12.4685139%" r="133.52489%" gradientTransform="translate(0.991213,0.124685),scale(0.997869,1.000000),translate(-0.991213,-0.124685)" id="radialGradient-3">
            <stop stop-color="#FFDD00" stop-opacity="0.6" offset="0%"></stop>
            <stop stop-color="#FFD702" stop-opacity="0.58" offset="9%"></stop>
            <stop stop-color="#FEC606" stop-opacity="0.52" offset="20%"></stop>
            <stop stop-color="#FDA90E" stop-opacity="0.43" offset="32%"></stop>
            <stop stop-color="#FC8119" stop-opacity="0.3" offset="45%"></stop>
            <stop stop-color="#FA4E27" stop-opacity="0.14" offset="57%"></stop>
            <stop stop-color="#F92433" stop-opacity="0" offset="66%"></stop>
        </radialGradient>
        <radialGradient cx="52.8674994%" cy="55.6216398%" fx="52.8674994%" fy="55.6216398%" r="172.258202%" gradientTransform="translate(0.528675,0.556216),scale(0.997869,1.000000),translate(-0.528675,-0.556216)" id="radialGradient-4">
            <stop stop-color="#960E18" offset="15%"></stop>
            <stop stop-color="#B11927" stop-opacity="0.74" offset="18%"></stop>
            <stop stop-color="#DB293D" stop-opacity="0.34" offset="22%"></stop>
            <stop stop-color="#F5334B" stop-opacity="0.09" offset="26%"></stop>
            <stop stop-color="#FF3750" stop-opacity="0" offset="27%"></stop>
        </radialGradient>
        <radialGradient cx="39.8577268%" cy="53.456468%" fx="39.8577268%" fy="53.456468%" r="172.258202%" gradientTransform="translate(0.398577,0.534565),scale(0.997869,1.000000),translate(-0.398577,-0.534565)" id="radialGradient-5">
            <stop stop-color="#960E18" offset="11%"></stop>
            <stop stop-color="#B11927" stop-opacity="0.74" offset="15%"></stop>
            <stop stop-color="#DB293D" stop-opacity="0.34" offset="21%"></stop>
            <stop stop-color="#F5334B" stop-opacity="0.09" offset="26%"></stop>
            <stop stop-color="#FF3750" stop-opacity="0" offset="28%"></stop>
        </radialGradient>
        <linearGradient x1="40.8577655%" y1="37.0805586%" x2="81.6412441%" y2="83.7259018%" id="linearGradient-6">
            <stop stop-color="#FFBC04" offset="0%"></stop>
            <stop stop-color="#FFAB02" stop-opacity="0.62" offset="17%"></stop>
            <stop stop-color="#FF9B01" stop-opacity="0.29" offset="34%"></stop>
            <stop stop-color="#FF9200" stop-opacity="0.08" offset="45%"></stop>
            <stop stop-color="#FF8E00" stop-opacity="0" offset="51%"></stop>
        </linearGradient>
        <radialGradient cx="89.2873314%" cy="16.0959054%" fx="89.2873314%" fy="16.0959054%" r="119.181134%" gradientTransform="translate(0.892873,0.160959),scale(0.999947,1.000000),translate(-0.892873,-0.160959)" id="radialGradient-7">
            <stop stop-color="#FF980E" offset="0%"></stop>
            <stop stop-color="#FF7139" offset="30%"></stop>
            <stop stop-color="#FF5B51" offset="48%"></stop>
            <stop stop-color="#FF4F5E" offset="63%"></stop>
            <stop stop-color="#FF4055" offset="74%"></stop>
            <stop stop-color="#FF3750" offset="84%"></stop>
        </radialGradient>
        <radialGradient cx="89.2873314%" cy="16.0959054%" fx="89.2873314%" fy="16.0959054%" r="119.181134%" gradientTransform="translate(0.892873,0.160959),scale(0.999947,1.000000),translate(-0.892873,-0.160959)" id="radialGradient-8">
            <stop stop-color="#FFDE08" offset="8%"></stop>
            <stop stop-color="#FFDB08" stop-opacity="0.97" offset="15%"></stop>
            <stop stop-color="#FFD209" stop-opacity="0.88" offset="25%"></stop>
            <stop stop-color="#FFC40B" stop-opacity="0.73" offset="37%"></stop>
            <stop stop-color="#FFB00D" stop-opacity="0.53" offset="51%"></stop>
            <stop stop-color="#FF970F" stop-opacity="0.28" offset="67%"></stop>
            <stop stop-color="#FF7B12" stop-opacity="0" offset="82%"></stop>
        </radialGradient>
        <radialGradient cx="62.6205198%" cy="53.3969701%" fx="62.6205198%" fy="53.3969701%" r="58.4804333%" gradientTransform="translate(0.626205,0.533970),scale(0.999947,1.000000),rotate(75.547572),translate(-0.626205,-0.533970)" id="radialGradient-9">
            <stop stop-color="#FF3750" offset="36%"></stop>
            <stop stop-color="#FF4D47" stop-opacity="0.63" offset="44%"></stop>
            <stop stop-color="#FF673D" stop-opacity="0.18" offset="55%"></stop>
            <stop stop-color="#FF7139" stop-opacity="0" offset="59%"></stop>
        </radialGradient>
        <radialGradient cx="52.1984599%" cy="57.7767628%" fx="52.1984599%" fy="57.7767628%" r="58.3812693%" gradientTransform="translate(0.521985,0.577768),scale(0.999947,1.000000),translate(-0.521985,-0.577768)" id="radialGradient-10">
            <stop stop-color="#FF3750" stop-opacity="0.8" offset="22%"></stop>
            <stop stop-color="#FF444B" stop-opacity="0.63" offset="27%"></stop>
            <stop stop-color="#FF643E" stop-opacity="0.18" offset="41%"></stop>
            <stop stop-color="#FF7139" stop-opacity="0" offset="47%"></stop>
        </radialGradient>
        <radialGradient cx="122.042297%" cy="1.77470705%" fx="122.042297%" fy="1.77470705%" r="260.353377%" gradientTransform="translate(1.220423,0.017747),scale(1.000000,0.982914),translate(-1.220423,-0.017747)" id="radialGradient-11">
            <stop stop-color="#FFF44F" offset="5%"></stop>
            <stop stop-color="#FF980E" offset="46%"></stop>
            <stop stop-color="#FF8424" offset="52%"></stop>
            <stop stop-color="#FF7634" offset="59%"></stop>
            <stop stop-color="#FF7139" offset="64%"></stop>
        </radialGradient>
        <linearGradient x1="73.761562%" y1="8.62324781%" x2="22.7251904%" y2="87.2791365%" id="linearGradient-12">
            <stop stop-color="#FFF44F" stop-opacity="0.8" offset="0%"></stop>
            <stop stop-color="#FFF44F" stop-opacity="0.7" offset="9%"></stop>
            <stop stop-color="#FFF44F" stop-opacity="0" offset="75%"></stop>
        </linearGradient>
        <linearGradient x1="50.0001723%" y1="100.410404%" x2="50.0001723%" y2="1.01596242%" id="linearGradient-13">
            <stop stop-color="#3A8EE6" offset="0%"></stop>
            <stop stop-color="#5C79F0" offset="24%"></stop>
            <stop stop-color="#9059FF" offset="63%"></stop>
            <stop stop-color="#C139E6" offset="100%"></stop>
        </linearGradient>
        <linearGradient x1="16.5447512%" y1="8.63933667%" x2="90.3087273%" y2="76.1114133%" id="linearGradient-14">
            <stop stop-color="#9059FF" stop-opacity="0" offset="81%"></stop>
            <stop stop-color="#6E008B" stop-opacity="0.5" offset="100%"></stop>
        </linearGradient>
    </defs>
    <g id="Assets" stroke="none" stroke-width="1" fill="none" fill-rule="evenodd">
        <g id="Group-37" transform="translate(1.000000, 0.000000)">
            <g id="Group" transform="translate(51.000000, 52.000000)" stroke="#EDEDF0" stroke-width="2">
                <rect id="Rectangle" x="0" y="0" width="240" height="24"></rect>
                <rect id="Rectangle" x="0" y="24" width="240" height="24"></rect>
                <rect id="Rectangle" x="0" y="48" width="240" height="24"></rect>
                <rect id="Rectangle" x="0" y="72" width="240" height="24"></rect>
                <rect id="Rectangle" x="0" y="95" width="240" height="24"></rect>
                <rect id="Rectangle" x="0" y="119" width="240" height="24"></rect>
                <rect id="Rectangle" x="0" y="143" width="240" height="24"></rect>
                <rect id="Rectangle" x="0" y="167" width="240" height="24"></rect>
                <rect id="Rectangle" x="0" y="191" width="240" height="24"></rect>
                <rect id="Rectangle" x="0" y="215" width="240" height="24"></rect>
                <rect id="Rectangle" x="0" y="239" width="240" height="24"></rect>
                <rect id="Rectangle" x="0" y="263" width="240" height="23"></rect>
                <rect id="Rectangle" x="0" y="286" width="240" height="24"></rect>
                <rect id="Rectangle" x="0" y="310" width="240" height="24"></rect>
            </g>
            <rect id="Rectangle" stroke="#EDEDF0" stroke-width="2" x="0" y="1" width="342" height="437" rx="4"></rect>
            <polygon id="Path-Copy-2" fill="#EDEDF0" fill-rule="nonzero" points="154 386 188 386 188 395.224712 163.754508 395.224712 163.754508 407.727703 188 407.727703 188 416.879564 163.754508 416.879564 163.754508 437 154 437"></polygon>
            <polygon id="Path-Copy-4" fill="#EDEDF0" fill-rule="nonzero" points="154 0 188 0 188 9.22471208 163.754508 9.22471208 163.754508 21.7277029 188 21.7277029 188 30.8795643 163.754508 30.8795643 163.754508 51 154 51"></polygon>
            <polygon id="Path-Copy-5" fill="#EDEDF0" fill-rule="nonzero" transform="translate(26.000000, 219.500000) rotate(-90.000000) translate(-26.000000, -219.500000) " points="9 194 43 194 43 203.224712 18.7545078 203.224712 18.7545078 215.727703 43 215.727703 43 224.879564 18.7545078 224.879564 18.7545078 245 9 245"></polygon>
            <polygon id="Path-Copy-6" fill="#EDEDF0" fill-rule="nonzero" transform="translate(317.000000, 219.500000) rotate(90.000000) translate(-317.000000, -219.500000) " points="300 194 334 194 334 203.224712 309.754508 203.224712 309.754508 215.727703 334 215.727703 334 224.879564 309.754508 224.879564 309.754508 245 300 245"></polygon>
            <g id="FF_Master__logo-and-wordmark-vertical-stacked" transform="translate(51.000000, 52.000000)" fill-rule="nonzero">
                <path d="M14.2382979,286.212766 L46.0170213,286.212766 L46.0170213,294.808511 L23.3617021,294.808511 L23.3617021,306.468085 L46.0170213,306.468085 L46.0170213,314.978723 L23.3617021,314.978723 L23.3617021,333.702128 L14.2382979,333.702128 L14.2382979,286.212766 Z M56.8340426,282.893617 C59.7952288,282.912418 62.180503,285.328175 62.1617019,288.289362 C62.1429007,291.250548 59.7271437,293.635822 56.7659574,293.617021 C55.3595597,293.681896 53.9899937,293.156349 52.9880195,292.167303 C51.9860453,291.178258 51.4427567,289.815632 51.4893617,288.408511 C51.4235722,286.956355 51.9597708,285.541382 52.9714179,284.497517 C53.9830651,283.453652 55.3805383,282.873371 56.8340426,282.893617 L56.8340426,282.893617 Z M52.3404255,298.587234 L61.3276596,298.587234 L61.3276596,333.753191 L52.3404255,333.753191 L52.3404255,298.587234 Z M87.3702128,308.357447 C86.1272887,307.37438 84.5971247,306.824477 83.012766,306.791489 C79.3617021,306.791489 77.2765957,309.131915 77.2765957,314.280851 L77.2765957,333.753191 L68.3574468,333.753191 L68.3574468,298.587234 L76.8680851,298.587234 L76.8680851,303.693617 C78.6978723,299.719149 81.4978723,298.289359 85.2680851,298.289359 C87.3912245,298.287875 89.4661651,298.922214 91.2255319,300.110638 L87.3702128,308.357447 Z M91.0808511,316.365957 C91.0808511,306.27234 98.5702128,297.87234 109.191489,297.87234 C119.812766,297.87234 127.225532,305.361702 127.225532,315.744681 L127.225532,319.455319 L99.8723404,319.455319 C100.851064,323.880851 104.306383,326.817021 109.574468,326.817021 C113.240726,326.933883 116.64263,324.915974 118.297872,321.642553 L125.787234,326.13617 C122.076596,331.6 116.8,334.468085 109.310638,334.468085 C97.9234043,334.468085 91.0638298,326.851064 91.0638298,316.365957 L91.0808511,316.365957 Z M100.008511,312.391489 L118.502128,312.391489 C117.523404,307.897872 113.87234,305.421277 109.140426,305.421277 C104.820393,305.259141 100.991505,308.181657 100.008511,312.391489 Z M129.438298,298.587234 L135.753191,298.587234 L135.753191,296.825532 C135.753191,287.259574 139.795745,283.285106 148.646809,283.285106 L151.778723,283.285106 L151.778723,291.06383 L149.225532,291.06383 C145.06383,291.06383 144.119149,292.502128 144.119149,296.859574 L144.119149,298.621277 L151.778723,298.621277 L151.778723,306.697872 L144.348936,306.697872 L144.348936,333.787234 L135.753191,333.787234 L135.753191,306.66383 L129.438298,306.66383 L129.438298,298.587234 Z M153.47234,316.170213 C153.390464,311.282287 155.300213,306.571297 158.762597,303.120149 C162.22498,299.669002 166.942153,297.774576 171.829787,297.87234 C181.935423,297.87234 190.12766,306.064577 190.12766,316.170213 C190.12766,326.275849 181.935423,334.468085 171.829787,334.468085 C160.893617,334.468085 153.47234,326.459574 153.47234,316.170213 L153.47234,316.170213 Z M181.47234,316.170213 C181.555219,313.558623 180.576569,311.024858 178.759686,309.147038 C176.942803,307.269218 174.44269,306.207545 171.829787,306.204255 C166.297872,306.204255 162.195745,310.570213 162.195745,316.170213 C162.195745,321.770213 166.297872,326.13617 171.829787,326.13617 C174.44269,326.132881 176.942803,325.071207 178.759686,323.193387 C180.576569,321.315567 181.555219,318.781803 181.47234,316.170213 L181.47234,316.170213 Z M202.306383,315.778723 L189.608511,298.587234 L200.161702,298.587234 L207.651064,309.395745 L215.310638,298.587234 L225.659574,298.587234 L212.765957,315.744681 L226.382979,333.753191 L215.855319,333.753191 L207.455319,322.289362 L199.310638,333.753191 L188.834043,333.753191 L202.306383,315.778723 Z" id="Shape" fill="#20133A"></path>
                <path d="M215.157447,47.2255319 C193.617021,18.9276596 160.042553,1.26808511 124.731915,0.587234043 C97.0638298,0.0425531915 77.9234043,8.33191489 67.1404255,15.0042553 C81.6085106,6.62978723 102.544681,1.88085106 120.876596,2.11914894 C168.034043,2.71489362 218.67234,34.7489362 226.195745,92.493617 C234.825532,158.782979 188.553191,214.102128 123.446809,214.27234 C51.8212766,214.451064 8.26382979,151.182979 19.6170213,94.3574468 C20.187234,91.5234043 19.8978723,88.7574468 20.8510638,86.0765957 C21.387234,76.0851064 25.1744681,60.4255319 33.3361702,44.4255319 C25.0893617,48.6808511 14.612766,62.1446809 9.40425532,74.6212766 C1.92340426,92.6042553 -0.706382979,114.110638 1.65957447,134.570213 C1.83829787,136.110638 2,137.651064 2.20425532,139.174468 C10.5502132,187.934008 48.1178598,226.486957 96.6450405,236.09219 C145.172221,245.697424 194.593744,224.362687 220.885121,182.459092 C247.176497,140.555496 244.884541,86.7744136 215.123404,47.2595745 L215.157447,47.2255319 Z" id="Path" fill="url(#radialGradient-1)"></path>
                <g id="Group" opacity="0.67" fill="url(#radialGradient-2)">
                    <path d="M215.157447,47.2255319 C193.617021,18.9276596 160.042553,1.26808511 124.731915,0.587234043 C97.0638298,0.0425531915 77.9234043,8.33191489 67.1404255,15.0042553 C81.6085106,6.62978723 102.544681,1.88085106 120.876596,2.11914894 C168.034043,2.71489362 218.67234,34.7489362 226.195745,92.493617 C234.825532,158.782979 188.553191,214.102128 123.446809,214.27234 C51.8212766,214.451064 8.26382979,151.182979 19.6170213,94.3574468 C20.187234,91.5234043 19.8978723,88.7574468 20.8510638,86.0765957 C21.387234,76.0851064 25.1744681,60.4255319 33.3361702,44.4255319 C25.0893617,48.6808511 14.612766,62.1446809 9.40425532,74.6212766 C1.92340426,92.6042553 -0.706382979,114.110638 1.65957447,134.570213 C1.83829787,136.110638 2,137.651064 2.20425532,139.174468 C10.5502132,187.934008 48.1178598,226.486957 96.6450405,236.09219 C145.172221,245.697424 194.593744,224.362687 220.885121,182.459092 C247.176497,140.555496 244.884541,86.7744136 215.123404,47.2595745 L215.157447,47.2255319 Z" id="Path"></path>
                </g>
                <path d="M215.157447,47.2255319 C193.617021,18.9276596 160.042553,1.26808511 124.731915,0.587234043 C97.0638298,0.0425531915 77.9234043,8.33191489 67.1404255,15.0042553 C81.6085106,6.62978723 102.544681,1.88085106 120.876596,2.11914894 C168.034043,2.71489362 218.67234,34.7489362 226.195745,92.493617 C234.825532,158.782979 188.553191,214.102128 123.446809,214.27234 C51.8212766,214.451064 8.26382979,151.182979 19.6170213,94.3574468 C20.187234,91.5234043 19.8978723,88.7574468 20.8510638,86.0765957 C21.387234,76.0851064 25.1744681,60.4255319 33.3361702,44.4255319 C25.0893617,48.6808511 14.612766,62.1446809 9.40425532,74.6212766 C1.92340426,92.6042553 -0.706382979,114.110638 1.65957447,134.570213 C1.83829787,136.110638 2,137.651064 2.20425532,139.174468 C10.5502132,187.934008 48.1178598,226.486957 96.6450405,236.09219 C145.172221,245.697424 194.593744,224.362687 220.885121,182.459092 C247.176497,140.555496 244.884541,86.7744136 215.123404,47.2595745 L215.157447,47.2255319 Z" id="Path" fill="url(#radialGradient-3)"></path>
                <path d="M215.157447,47.2255319 C193.617021,18.9276596 160.042553,1.26808511 124.731915,0.587234043 C97.0638298,0.0425531915 77.9234043,8.33191489 67.1404255,15.0042553 C81.6085106,6.62978723 102.544681,1.88085106 120.876596,2.11914894 C168.034043,2.71489362 218.67234,34.7489362 226.195745,92.493617 C234.825532,158.782979 188.553191,214.102128 123.446809,214.27234 C51.8212766,214.451064 8.26382979,151.182979 19.6170213,94.3574468 C20.187234,91.5234043 19.8978723,88.7574468 20.8510638,86.0765957 C21.387234,76.0851064 25.1744681,60.4255319 33.3361702,44.4255319 C25.0893617,48.6808511 14.612766,62.1446809 9.40425532,74.6212766 C1.92340426,92.6042553 -0.706382979,114.110638 1.65957447,134.570213 C1.83829787,136.110638 2,137.651064 2.20425532,139.174468 C10.5502132,187.934008 48.1178598,226.486957 96.6450405,236.09219 C145.172221,245.697424 194.593744,224.362687 220.885121,182.459092 C247.176497,140.555496 244.884541,86.7744136 215.123404,47.2595745 L215.157447,47.2255319 Z" id="Path" fill="url(#radialGradient-4)"></path>
                <path d="M215.157447,47.2255319 C193.617021,18.9276596 160.042553,1.26808511 124.731915,0.587234043 C97.0638298,0.0425531915 77.9234043,8.33191489 67.1404255,15.0042553 C81.6085106,6.62978723 102.544681,1.88085106 120.876596,2.11914894 C168.034043,2.71489362 218.67234,34.7489362 226.195745,92.493617 C234.825532,158.782979 188.553191,214.102128 123.446809,214.27234 C51.8212766,214.451064 8.26382979,151.182979 19.6170213,94.3574468 C20.187234,91.5234043 19.8978723,88.7574468 20.8510638,86.0765957 C21.387234,76.0851064 25.1744681,60.4255319 33.3361702,44.4255319 C25.0893617,48.6808511 14.612766,62.1446809 9.40425532,74.6212766 C1.92340426,92.6042553 -0.706382979,114.110638 1.65957447,134.570213 C1.83829787,136.110638 2,137.651064 2.20425532,139.174468 C10.5502132,187.934008 48.1178598,226.486957 96.6450405,236.09219 C145.172221,245.697424 194.593744,224.362687 220.885121,182.459092 C247.176497,140.555496 244.884541,86.7744136 215.123404,47.2595745 L215.157447,47.2255319 Z" id="Path" fill="url(#radialGradient-5)"></path>
                <path d="M226.195745,92.493617 C227.132477,99.6301408 227.431531,106.835931 227.089362,114.025532 C231.046809,113.446809 235.004255,112.910638 239.004255,112.451064 C237.739108,88.8201671 229.440802,66.1065169 215.174468,47.2255319 C193.634043,18.9276596 160.059574,1.26808511 124.748936,0.587234043 C97.0808511,0.0425531915 77.9404255,8.33191489 67.1574468,15.0042553 C81.6255319,6.62978723 102.561702,1.88085106 120.893617,2.11914894 C168.034043,2.71489362 218.67234,34.7489362 226.195745,92.493617 Z" id="Path" fill="url(#linearGradient-6)"></path>
                <path d="M229.097872,89.2 C222.391489,28.8510638 168.442553,1.70212766 120.851064,2.11914894 C102.519149,2.26382979 81.5829787,6.62978723 67.1148936,15.0042553 C63.2899281,17.2726531 59.7327372,19.9648128 56.5106383,23.0297872 C56.893617,22.7148936 58.0425532,21.7702128 59.9148936,20.4765957 L60.1021277,20.3404255 L60.2723404,20.2297872 C67.3100384,15.4880776 75.0622645,11.9050436 83.2340426,9.61702128 C95.8042553,5.94042553 109.412766,4.70638298 122.502128,5.03829787 C176.297872,8.12765957 214.26383,52.6978723 215.582979,100.093617 C216.680851,139.33617 184.485106,170.638298 147.370213,172.434043 C120.374468,173.744681 94.9446809,160.714894 82.5191489,134.646809 C79.616749,128.711427 77.6447475,122.364854 76.6723404,115.829787 C70.7829787,76.1617021 97.4893617,42.3234043 121.982979,33.9489362 C108.765957,22.4510638 75.6680851,23.2340426 51.0638298,41.3191489 C33.3191489,54.3404255 21.812766,74.1531915 18,97.787234 C15.0893617,115.812766 17.8297872,134.553191 24.9702128,151.285106 C40.4723819,187.698535 75.1102933,212.321021 114.595745,214.995745 C117.548936,215.217021 120.553191,215.32766 123.480851,215.32766 C202.27234,215.319149 236.476596,155.634043 229.097872,89.2 Z" id="Path" fill="url(#radialGradient-7)"></path>
                <path d="M229.097872,89.2 C222.391489,28.8510638 168.442553,1.70212766 120.851064,2.11914894 C102.519149,2.26382979 81.5829787,6.62978723 67.1148936,15.0042553 C63.2899281,17.2726531 59.7327372,19.9648128 56.5106383,23.0297872 C56.893617,22.7148936 58.0425532,21.7702128 59.9148936,20.4765957 L60.1021277,20.3404255 L60.2723404,20.2297872 C67.3100384,15.4880776 75.0622645,11.9050436 83.2340426,9.61702128 C95.8042553,5.94042553 109.412766,4.70638298 122.502128,5.03829787 C176.297872,8.12765957 214.26383,52.6978723 215.582979,100.093617 C216.680851,139.33617 184.485106,170.638298 147.370213,172.434043 C120.374468,173.744681 94.9446809,160.714894 82.5191489,134.646809 C79.616749,128.711427 77.6447475,122.364854 76.6723404,115.829787 C70.7829787,76.1617021 97.4893617,42.3234043 121.982979,33.9489362 C108.765957,22.4510638 75.6680851,23.2340426 51.0638298,41.3191489 C33.3191489,54.3404255 21.812766,74.1531915 18,97.787234 C15.0893617,115.812766 17.8297872,134.553191 24.9702128,151.285106 C40.4723819,187.698535 75.1102933,212.321021 114.595745,214.995745 C117.548936,215.217021 120.553191,215.32766 123.480851,215.32766 C202.27234,215.319149 236.476596,155.634043 229.097872,89.2 Z" id="Path" fill="url(#radialGradient-8)"></path>
                <path d="M229.097872,89.2 C222.391489,28.8510638 168.442553,1.70212766 120.851064,2.11914894 C102.519149,2.26382979 81.5829787,6.62978723 67.1148936,15.0042553 C63.2899281,17.2726531 59.7327372,19.9648128 56.5106383,23.0297872 C56.893617,22.7148936 58.0425532,21.7702128 59.9148936,20.4765957 L60.1021277,20.3404255 L60.2723404,20.2297872 C67.3100384,15.4880776 75.0622645,11.9050436 83.2340426,9.61702128 C95.8042553,5.94042553 109.412766,4.70638298 122.502128,5.03829787 C176.297872,8.12765957 214.26383,52.6978723 215.582979,100.093617 C216.680851,139.33617 184.485106,170.638298 147.370213,172.434043 C120.374468,173.744681 94.9446809,160.714894 82.5191489,134.646809 C79.616749,128.711427 77.6447475,122.364854 76.6723404,115.829787 C70.7829787,76.1617021 97.4893617,42.3234043 121.982979,33.9489362 C108.765957,22.4510638 75.6680851,23.2340426 51.0638298,41.3191489 C33.3191489,54.3404255 21.812766,74.1531915 18,97.787234 C15.0893617,115.812766 17.8297872,134.553191 24.9702128,151.285106 C40.4723819,187.698535 75.1102933,212.321021 114.595745,214.995745 C117.548936,215.217021 120.553191,215.32766 123.480851,215.32766 C202.27234,215.319149 236.476596,155.634043 229.097872,89.2 Z" id="Path" fill="url(#radialGradient-9)" opacity="0.53" style="mix-blend-mode: multiply;"></path>
                <path d="M229.097872,89.2 C222.391489,28.8510638 168.442553,1.70212766 120.851064,2.11914894 C102.519149,2.26382979 81.5829787,6.62978723 67.1148936,15.0042553 C63.2899281,17.2726531 59.7327372,19.9648128 56.5106383,23.0297872 C56.893617,22.7148936 58.0425532,21.7702128 59.9148936,20.4765957 L60.1021277,20.3404255 L60.2723404,20.2297872 C67.3100384,15.4880776 75.0622645,11.9050436 83.2340426,9.61702128 C95.8042553,5.94042553 109.412766,4.70638298 122.502128,5.03829787 C176.297872,8.12765957 214.26383,52.6978723 215.582979,100.093617 C216.680851,139.33617 184.485106,170.638298 147.370213,172.434043 C120.374468,173.744681 94.9446809,160.714894 82.5191489,134.646809 C79.616749,128.711427 77.6447475,122.364854 76.6723404,115.829787 C70.7829787,76.1617021 97.4893617,42.3234043 121.982979,33.9489362 C108.765957,22.4510638 75.6680851,23.2340426 51.0638298,41.3191489 C33.3191489,54.3404255 21.812766,74.1531915 18,97.787234 C15.0893617,115.812766 17.8297872,134.553191 24.9702128,151.285106 C40.4723819,187.698535 75.1102933,212.321021 114.595745,214.995745 C117.548936,215.217021 120.553191,215.32766 123.480851,215.32766 C202.27234,215.319149 236.476596,155.634043 229.097872,89.2 Z" id="Path" fill="url(#radialGradient-10)" opacity="0.53" style="mix-blend-mode: multiply;"></path>
                <path d="M147.370213,172.451064 C198.314894,169.353191 220.110638,127.285106 221.47234,97.4297872 C223.608511,50.7914894 195.87234,0.50212766 122.502128,5.03829787 C109.412766,4.70638298 95.8042553,5.94042553 83.2340426,9.61702128 C75.1167469,12.0085058 67.3967321,15.5846048 60.3234043,20.2297872 L60.1531915,20.3404255 L59.9659574,20.4765957 C58.8312057,21.2652482 57.7163121,22.0992908 56.6212766,22.9787234 C58.6638298,21.5829787 83.9659574,6.67234043 119.114894,11.2765957 C161.234043,16.7914894 199.744681,49.4893617 199.744681,92.6212766 C199.744681,125.812766 174.034043,151.148936 143.931915,149.344681 C99.2085106,146.655319 87.9404255,100.902128 111.2,81.1319149 C104.92766,79.7787234 93.1319149,82.4255319 84.9276596,94.6638298 C77.5574468,105.651064 77.9744681,122.629787 82.5191489,134.66383 C94.9446809,160.731915 120.391489,174.085106 147.370213,172.451064 Z" id="Path" fill="url(#radialGradient-11)"></path>
                <path d="M215.148936,47.2255319 C211.959441,43.0543532 208.496505,39.0995552 204.782979,35.387234 C201.828123,32.2778432 198.666294,29.3719175 195.319149,26.6893617 C197.252062,28.367528 199.098416,30.1428686 200.851064,32.0085106 C207.367419,38.9489234 212.326258,47.201081 215.395745,56.212766 C221.617021,75.0212766 221.208511,98.5617021 209.32766,117.046809 C195.174468,139.07234 172.119149,149.948936 147.2,149.387234 C146.119149,149.387234 145.038298,149.387234 143.948936,149.310638 C99.2255319,146.621277 87.9574468,100.868085 111.217021,81.0978723 C104.944681,79.7446809 93.1489362,82.3914894 84.9446809,94.6297872 C77.5744681,105.617021 77.9914894,122.595745 82.5361702,134.629787 C79.6337703,128.694406 77.6617688,122.347833 76.6893617,115.812766 C70.8,76.1446809 97.506383,42.306383 122,33.9319149 C108.765957,22.4510638 75.6680851,23.2340426 51.0638298,41.3191489 C36.706383,51.8553191 26.4340426,66.8510638 21.012766,84.7234043 C21.812766,74.6978723 25.6085106,59.7361702 33.4042553,44.4510638 C25.1574468,48.706383 14.6808511,62.1702128 9.47234043,74.6468085 C1.99148936,92.6297872 -0.638297872,114.13617 1.72765957,134.595745 C1.90638298,136.13617 2.06808511,137.676596 2.27234043,139.2 C10.6252165,187.950198 48.1907988,226.491927 96.7107281,236.092384 C145.230657,245.69284 194.643171,224.36114 220.931832,182.465333 C247.220493,140.569527 244.933721,86.7977073 215.182979,47.2851064 L215.148936,47.2255319 Z" id="Path" fill="url(#linearGradient-12)"></path>
                <path d="M215.361702,56.212766 C212.306097,47.202272 207.358543,38.9495794 200.851064,32.0085106 C193.251064,23.8042553 183.778723,17.5404255 173.761702,12.7148936 C165.283161,8.54810575 156.345645,5.38898376 147.131915,3.30212766 C130.879702,-0.24883831 114.062939,-0.347419335 97.7702128,3.01276596 C80.8510638,6.57021277 65.9489362,13.8808511 56.5361702,23.0212766 C63.5914894,18.7659574 73.4382979,15.2680851 80.4510638,13.4978723 C113.012766,5.29361702 148.868085,14.1787234 173.310638,37.5659574 C178.258369,42.2528961 182.590896,47.5491593 186.204255,53.3276596 C200.782979,76.9787234 199.404255,106.714894 188.034043,124.246809 C179.591489,137.276596 161.506383,149.497872 144.629787,149.361702 C170.519149,150.714894 194.66383,139.829787 209.310638,117.021277 C221.182979,98.5617021 221.591489,75.0212766 215.361702,56.212766 Z" id="Path" fill="url(#linearGradient-13)"></path>
                <path d="M215.361702,56.212766 C212.306097,47.202272 207.358543,38.9495794 200.851064,32.0085106 C193.251064,23.8042553 183.778723,17.5404255 173.761702,12.7148936 C165.283161,8.54810575 156.345645,5.38898376 147.131915,3.30212766 C130.879702,-0.24883831 114.062939,-0.347419335 97.7702128,3.01276596 C80.8510638,6.57021277 65.9489362,13.8808511 56.5361702,23.0212766 C63.5914894,18.7659574 73.4382979,15.2680851 80.4510638,13.4978723 C113.012766,5.29361702 148.868085,14.1787234 173.310638,37.5659574 C178.258369,42.2528961 182.590896,47.5491593 186.204255,53.3276596 C200.782979,76.9787234 199.404255,106.714894 188.034043,124.246809 C179.591489,137.276596 161.506383,149.497872 144.629787,149.361702 C170.519149,150.714894 194.66383,139.829787 209.310638,117.021277 C221.182979,98.5617021 221.591489,75.0212766 215.361702,56.212766 Z" id="Path" fill="url(#linearGradient-14)"></path>
            </g>
        </g>
    </g>
</svg>